<svg width="102" height="102" viewBox="0 0 102 102" fill="none" xmlns="http://www.w3.org/2000/svg">
<path d="M51 12.1125C58.395 12.1125 64.3875 18.105 64.3875 25.5C64.3875 32.895 58.395 38.8875 51 38.8875C43.605 38.8875 37.6125 32.895 37.6125 25.5C37.6125 18.105 43.605 12.1125 51 12.1125ZM51 69.4875C69.9337 69.4875 89.8875 78.795 89.8875 82.875C89.8875 86.7479 86.7479 89.8875 82.875 89.8875H19.125C15.2521 89.8875 12.1125 86.7479 12.1125 82.875C12.1125 78.795 32.0662 69.4875 51 69.4875ZM51 0C36.9112 0 25.5 11.4112 25.5 25.5C25.5 39.5888 36.9112 51 51 51C65.0888 51 76.5 39.5888 76.5 25.5C76.5 11.4112 65.0888 0 51 0ZM51 57.375C33.9788 57.375 0 65.9175 0 82.875V92.4375C0 97.7187 4.28128 102 9.5625 102H92.4375C97.7187 102 102 97.7187 102 92.4375V82.875C102 65.9175 68.0212 57.375 51 57.375Z" fill="#1C2E45" fill-opacity="0.6"/>
</svg>
