<svg width="201" height="158" viewBox="0 0 201 158" fill="none" xmlns="http://www.w3.org/2000/svg">
<path d="M192.438 149.88H8.56209C6.42467 149.878 4.37547 149.028 2.86407 147.516C1.35266 146.005 0.502465 143.956 0.5 141.818V13.2613C0.502379 11.1238 1.35252 9.07459 2.86394 7.56317C4.37536 6.05176 6.42462 5.20159 8.56209 5.19922H192.438C194.576 5.20168 196.625 6.05188 198.136 7.56329C199.647 9.07469 200.498 11.1239 200.5 13.2613V141.818C200.497 143.956 199.647 146.005 198.136 147.516C196.625 149.028 194.576 149.878 192.438 149.88Z" fill="#F2F2F2"/>
<path d="M192.438 149.547H8.56246C6.51332 149.545 4.54876 148.73 3.09977 147.281C1.65083 145.832 0.835757 143.867 0.833346 141.818V13.2615C0.835676 11.2124 1.6507 9.24783 3.09966 7.79889C4.54861 6.34994 6.51315 5.53489 8.56227 5.53257H192.438C194.487 5.53498 196.451 6.35005 197.9 7.79899C199.349 9.24798 200.164 11.2125 200.167 13.2617V141.818C200.164 143.867 199.349 145.832 197.9 147.281C196.451 148.729 194.487 149.544 192.438 149.547Z" stroke="#E6E6E6" stroke-opacity="0.1" stroke-width="0.666693"/>
<path d="M127.685 13.2388H73.311C69.8637 13.2349 66.5588 11.8637 64.1212 9.42617C61.6836 6.9886 60.3125 3.68365 60.3086 0.236398V0H140.687V0.236398C140.683 3.68365 139.312 6.9886 136.874 9.42617C134.437 11.8637 131.132 13.2349 127.685 13.2388Z" fill="#151617"/>
<path d="M127.923 157.918H73.5493C70.102 157.915 66.7971 156.543 64.3595 154.106C61.922 151.668 60.5508 148.363 60.5469 144.916V144.68H140.925V144.916C140.921 148.363 139.55 151.668 137.113 154.106C134.675 156.543 131.37 157.915 127.923 157.918Z" fill="#151617"/>
</svg>
