<svg width="14" height="14" viewBox="0 0 14 14" fill="none" xmlns="http://www.w3.org/2000/svg">
<path d="M7 7C8.2375 7 9.25 5.9875 9.25 4.75C9.25 3.5125 8.2375 2.5 7 2.5C5.7625 2.5 4.75 3.5125 4.75 4.75C4.75 5.9875 5.7625 7 7 7ZM7 4C7.4125 4 7.75 4.3375 7.75 4.75C7.75 5.1625 7.4125 5.5 7 5.5C6.5875 5.5 6.25 5.1625 6.25 4.75C6.25 4.3375 6.5875 4 7 4ZM11.5 10.435C11.5 8.56 8.5225 7.75 7 7.75C5.4775 7.75 2.5 8.56 2.5 10.435V11.5H11.5V10.435ZM4.36 10C4.915 9.6175 6.0325 9.25 7 9.25C7.9675 9.25 9.085 9.6175 9.64 10H4.36ZM12.25 0.25H1.75C0.9175 0.25 0.25 0.925 0.25 1.75V12.25C0.25 13.075 0.9175 13.75 1.75 13.75H12.25C13.075 13.75 13.75 13.075 13.75 12.25V1.75C13.75 0.925 13.075 0.25 12.25 0.25ZM12.25 12.25H1.75V1.75H12.25V12.25Z" fill="#18273A" fill-opacity="0.94"/>
</svg>
