<svg width="165" height="48" viewBox="0 0 165 48" fill="none" xmlns="http://www.w3.org/2000/svg">
<path fill-rule="evenodd" clip-rule="evenodd" d="M23.3369 0.121713C23.1087 0.252893 22.5243 0.827374 22.1032 1.33482C21.4925 2.0705 21.2939 2.30531 21.1167 2.50147C21.0143 2.61455 20.717 2.96944 20.4554 3.28978C20.1939 3.61013 19.867 3.99586 19.7292 4.14636C19.591 4.29728 19.3562 4.57486 19.207 4.7632C19.0573 4.95195 18.8537 5.19252 18.7542 5.2982C18.6551 5.40348 18.5737 5.50382 18.5737 5.52068C18.5737 5.53754 18.5194 5.60621 18.4536 5.67324C18.3878 5.74027 18.1949 5.96151 18.0251 6.16465C17.8557 6.3678 17.6628 6.59068 17.597 6.65977C17.5308 6.72885 17.4769 6.79753 17.4769 6.81274C17.4769 6.82796 17.3852 6.94392 17.2734 7.07058L17.0694 7.30087L16.0566 7.21245C15.4998 7.16393 14.4964 7.0788 13.8273 7.02329C13.1583 6.96777 12.0632 6.87648 11.3941 6.82056C7.78726 6.51954 7.82098 6.51995 7.27734 6.79958C7.045 6.91925 6.91916 7.04508 6.7995 7.27743C6.51986 7.82106 6.51945 7.78734 6.82047 11.3942C6.8764 12.0633 6.96769 13.1583 7.02361 13.8274C7.07913 14.4965 7.16507 15.4994 7.21442 16.0567C7.30283 17.0493 7.30201 17.0707 7.16466 17.1653C7.08776 17.2179 6.91382 17.3639 6.77811 17.4889C6.52356 17.7246 6.45818 17.7801 5.82448 18.2991C5.61764 18.4685 5.32526 18.7197 5.17434 18.8575C5.02383 18.9953 4.74625 19.2305 4.5575 19.3798C4.36916 19.529 4.12859 19.7326 4.02291 19.8321C3.91722 19.9316 3.80167 20.013 3.76589 20.013C3.73012 20.013 3.70051 20.0361 3.70051 20.0644C3.7001 20.0924 3.45378 20.3161 3.15276 20.5612C2.85174 20.8063 2.60501 21.03 2.60501 21.058C2.6046 21.0863 2.5606 21.1094 2.50714 21.1094C2.45368 21.1094 2.39981 21.1373 2.38747 21.1719C2.37472 21.206 2.13375 21.4268 1.85206 21.662C1.56996 21.8977 1.30389 22.1243 1.25989 22.1654C1.2163 22.2065 0.974916 22.4224 0.723657 22.6449C-0.283431 23.5356 -0.292066 24.4538 0.698573 25.3433C0.855249 25.484 1.03166 25.6476 1.09129 25.7073C1.15051 25.7669 1.46139 26.0284 1.78174 26.2887C2.10208 26.5486 2.37966 26.7793 2.39857 26.8011C2.41749 26.8229 2.75675 27.1124 3.15276 27.4443C3.54836 27.7761 3.88268 28.0747 3.89502 28.108C3.90777 28.1417 3.95917 28.1688 4.00934 28.1688C4.05951 28.1688 4.11091 28.196 4.12366 28.2297C4.136 28.263 4.3778 28.4814 4.66031 28.715C4.94323 28.9485 5.35651 29.2989 5.57898 29.4938C5.80145 29.6887 6.06628 29.9096 6.16744 29.9852C6.26861 30.0605 6.56674 30.3146 6.82952 30.5498L7.30736 30.9775L7.221 31.7148C7.1733 32.1207 7.13382 32.622 7.133 32.8293C7.13218 33.0365 7.08489 33.6842 7.02773 34.2685C6.97057 34.8529 6.87845 35.8863 6.82252 36.5648C6.76701 37.2433 6.68929 38.1838 6.64981 38.6551C6.44708 41.0829 6.86858 41.5735 9.00284 41.3946C9.46053 41.3564 10.3903 41.2791 11.0688 41.2228C12.2116 41.1278 14.3825 40.9402 16.2256 40.7774C16.9765 40.7112 17.2713 40.7552 17.2713 40.9333C17.2713 40.962 17.3252 41.0414 17.3914 41.1097C17.4572 41.1779 17.6501 41.3992 17.8195 41.6007C17.9893 41.8026 18.1896 42.037 18.2653 42.1213C18.4511 42.3289 18.8262 42.7792 19.2608 43.3155C19.4594 43.5606 19.6581 43.7921 19.7029 43.8295C19.7477 43.8673 19.9957 44.1605 20.2548 44.4809C20.6931 45.0233 20.9197 45.2893 21.1812 45.5673C21.2392 45.6294 21.4243 45.8498 21.5921 46.0571C21.942 46.4897 21.8964 46.4367 22.4803 47.0901C23.438 48.1626 24.6594 48.3378 25.2265 47.4841C25.2721 47.4154 25.7355 46.8701 25.9379 46.6464C26.0152 46.5609 26.2171 46.326 26.3869 46.1241C26.5564 45.9226 26.7492 45.7014 26.815 45.6331C26.8812 45.5649 26.9351 45.4933 26.9351 45.4744C26.9351 45.4555 26.989 45.3843 27.0552 45.3161C27.121 45.2478 27.3138 45.0262 27.4833 44.8243C27.6531 44.6219 27.846 44.4089 27.9117 44.3505C27.9775 44.2925 28.0318 44.2054 28.0318 44.1572C28.0318 44.1087 28.0549 44.0692 28.0832 44.0692C28.1112 44.0692 28.2888 43.8776 28.4772 43.6436C28.6655 43.41 28.897 43.1374 28.9912 43.0379C29.1668 42.8524 29.2145 42.7961 29.745 42.1492C29.9144 41.9428 30.1389 41.6809 30.2442 41.5678C30.3495 41.4547 30.5502 41.2129 30.69 41.0303L30.9445 40.698L31.2871 40.7387C31.4758 40.7609 31.892 40.7963 32.2123 40.8169C32.5327 40.837 33.4271 40.9127 34.2002 40.9847C34.9729 41.0566 36.2066 41.1644 36.9414 41.224C37.6767 41.284 38.6336 41.3638 39.0678 41.4016C41.33 41.5982 41.6347 41.064 41.2996 37.4901C41.2412 36.8679 41.1462 35.7884 41.0886 35.091C41.031 34.3936 40.92 33.1796 40.8419 32.3929C40.7637 31.6063 40.7255 30.9413 40.7567 30.915C40.7884 30.8887 40.9833 30.7304 41.1902 30.5634C41.397 30.396 41.6285 30.1958 41.7042 30.1181C41.7799 30.0403 42.0579 29.8055 42.3219 29.5958C42.5855 29.3861 42.8799 29.141 42.9761 29.0513C43.0719 28.9617 43.3187 28.7499 43.5243 28.5805C43.7299 28.4111 43.9326 28.2412 43.975 28.2034C44.0173 28.1656 44.1995 28.0114 44.38 27.8604C44.5602 27.7095 44.7415 27.5553 44.7826 27.5175C44.8238 27.4796 45.0273 27.3114 45.2346 27.1437C45.4418 26.9759 45.661 26.7908 45.7215 26.7329C45.9123 26.5494 46.2153 26.2941 46.6052 25.989C48.556 24.4625 48.5704 23.6516 46.6739 22.0774C46.3913 21.8426 46.0829 21.5814 45.9883 21.4963C45.8942 21.4116 45.5561 21.1279 45.2374 20.8659C44.9188 20.604 44.5795 20.3165 44.4837 20.2269C44.3879 20.1372 44.109 19.902 43.864 19.7046C43.6189 19.5068 43.3396 19.2716 43.2438 19.182C43.0917 19.0401 42.7615 18.7617 42.157 18.2653C42.0648 18.1897 41.9333 18.0741 41.8646 18.0083C41.7955 17.9421 41.7256 17.8882 41.7091 17.8882C41.6927 17.8882 41.5463 17.7686 41.3839 17.6226C41.221 17.4762 41.0002 17.2825 40.8925 17.1916L40.6967 17.0263L40.8382 15.6582C40.9155 14.9056 41.0277 13.6732 41.0874 12.9194C41.147 12.1652 41.2432 11.0549 41.3012 10.4521C41.6507 6.82261 41.3666 6.40316 38.7237 6.64537C38.3276 6.68156 37.4024 6.75928 36.6675 6.81809C35.3409 6.92377 33.9354 7.04303 31.9857 7.21533L30.9713 7.30498L30.6513 6.92501C30.4753 6.7161 30.2635 6.46814 30.1809 6.37397C30.0978 6.2798 29.9021 6.04828 29.745 5.85994C29.3695 5.40882 28.9057 4.86231 28.8197 4.76896C28.7819 4.72825 28.6121 4.52551 28.4426 4.31908C28.2732 4.11223 28.0729 3.86797 27.9973 3.77585C27.922 3.68415 27.8139 3.55831 27.7575 3.49663C27.7008 3.43454 27.4861 3.18533 27.2797 2.94271C27.0737 2.70009 26.8364 2.42457 26.7529 2.3304C26.6694 2.23623 26.4108 1.92781 26.178 1.64489C25.9449 1.36238 25.7269 1.12058 25.6936 1.10783C25.6603 1.09549 25.6327 1.05889 25.6327 1.02682C25.6327 0.932647 24.9847 0.294838 24.7334 0.141452C24.4303 -0.043188 23.6432 -0.0542911 23.3369 0.121713ZM24.4756 6.56231C24.7071 6.85469 24.9234 7.10389 24.9563 7.11664C24.9892 7.12897 25.0159 7.16763 25.0159 7.20217C25.0159 7.23671 25.0702 7.32143 25.136 7.39051C25.4251 7.69317 25.7014 8.03696 25.7014 8.09412C25.7014 8.12825 25.7265 8.1558 25.7569 8.1558C25.7874 8.1558 25.963 8.36141 26.1472 8.61226C26.8249 9.53546 26.9902 9.6432 27.3208 9.3796C27.3636 9.34547 27.6876 9.16865 28.0405 8.98647C28.3937 8.8043 28.8522 8.55469 29.0591 8.43173C29.2663 8.30919 29.4974 8.18089 29.5731 8.14716C29.6488 8.11344 29.9576 7.94895 30.259 7.782C30.5609 7.61504 30.8257 7.47646 30.8479 7.4744C30.887 7.4707 30.9577 7.67755 31.1617 8.39596C31.3652 9.11231 31.4808 9.50462 31.5959 9.86937C31.6613 10.0766 31.7608 10.4007 31.8167 10.589C31.8731 10.7774 31.9742 11.1076 32.0417 11.323L32.1642 11.7141L32.7194 11.6779C33.0249 11.6578 33.5973 11.5965 33.9921 11.5418C34.3865 11.4867 35.0802 11.4123 35.5342 11.3757C35.9878 11.3395 36.4463 11.291 36.5528 11.2684L36.7465 11.2268L36.705 11.7988C36.6671 12.3186 36.6256 12.7372 36.3961 14.9069C36.288 15.9251 36.2629 15.8482 36.7531 15.9941C36.9887 16.0641 37.351 16.1759 37.5582 16.2417C38.0094 16.3856 38.437 16.5119 39.4433 16.7989C39.8578 16.9169 40.2814 17.044 40.3842 17.0818L40.5713 17.1501L40.2875 17.6732C40.1317 17.961 39.9026 18.3817 39.7793 18.6079C39.6555 18.8341 39.4745 19.1733 39.3763 19.3617C39.2784 19.5504 39.1283 19.828 39.0432 19.9785C38.9581 20.1294 38.787 20.437 38.6628 20.6624L38.437 21.0719L38.6315 21.2348C38.7389 21.3244 38.8918 21.4527 38.972 21.5202C39.0522 21.5872 39.3286 21.8076 39.5864 22.0099C39.8438 22.2119 40.1329 22.4504 40.2287 22.5392C40.3246 22.628 40.5339 22.795 40.6938 22.9105C40.8542 23.0261 40.9854 23.1457 40.9854 23.1774C40.9854 23.2087 41.0314 23.2342 41.0882 23.2342C41.1445 23.2342 41.191 23.2588 41.191 23.2893C41.191 23.3197 41.3748 23.4813 41.5993 23.6491C42.0924 24.0167 42.0862 23.9727 41.6869 24.277C41.5076 24.414 41.2839 24.592 41.1902 24.6726C40.8069 25.0012 40.7247 25.069 40.2312 25.4626C39.9487 25.6883 39.6863 25.9067 39.6489 25.9478C39.6111 25.9894 39.3857 26.1695 39.148 26.3488C38.3971 26.9154 38.4115 26.8813 38.7002 27.4089C38.8363 27.6573 39.0284 28.0146 39.1271 28.203C39.2253 28.3917 39.3232 28.5612 39.3442 28.5801C39.3652 28.599 39.4441 28.7376 39.5194 28.8885C39.7805 29.4107 40.3866 30.5338 40.48 30.6687C40.6186 30.8677 40.6001 30.8994 40.3172 30.9508C40.1757 30.9763 39.952 31.0359 39.82 31.0836C39.6884 31.1309 39.3335 31.2366 39.0321 31.3184C38.7302 31.4002 38.3758 31.5084 38.2438 31.5586C38.1118 31.6087 37.8033 31.7029 37.5582 31.7679C37.3132 31.8329 36.9965 31.9287 36.8546 31.9805C36.7124 32.0327 36.5351 32.0755 36.4603 32.0755C36.3003 32.0755 36.2954 32.1474 36.3912 33.0563C36.5664 34.7151 36.6667 35.7206 36.7062 36.2153L36.7494 36.7569L36.383 36.71C36.1815 36.6841 35.6769 36.6347 35.2624 36.6006C34.8479 36.566 34.2771 36.5072 33.9946 36.4698C33.7117 36.4324 33.1836 36.3818 32.8209 36.3576L32.1613 36.3131L32.0766 36.5418C32.0297 36.6676 31.9672 36.8782 31.9376 37.0102C31.9076 37.1422 31.8513 37.3424 31.8122 37.4555C31.7727 37.5686 31.63 38.0312 31.4943 38.4836C31.359 38.9359 31.2065 39.445 31.1555 39.6145C31.1045 39.7843 31.0268 40.0557 30.9828 40.2177C30.8898 40.5594 30.8512 40.559 30.2249 40.2083C30.0176 40.0919 29.74 39.9397 29.608 39.8694C29.476 39.7995 29.1524 39.6231 28.8884 39.4783C28.6244 39.3332 28.1774 39.0963 27.8945 38.952C27.612 38.8076 27.3644 38.6682 27.3451 38.6423C27.0996 38.3179 26.926 38.4174 26.2451 39.2719C25.9296 39.6675 25.6537 40.0068 25.6315 40.0257C25.6097 40.0446 25.4082 40.2905 25.1837 40.5718C24.9596 40.8531 24.7297 41.1315 24.6734 41.1907C24.6166 41.2499 24.4624 41.4428 24.3308 41.6196C24.0043 42.0563 24.0244 42.0641 23.4056 41.2593C23.2168 41.0147 23.0165 40.7671 22.9598 40.71C22.9034 40.6528 22.6876 40.3904 22.4807 40.1273C22.2735 39.8641 22.0576 39.5968 22.0008 39.533C21.9441 39.4693 21.7434 39.2172 21.555 38.9725C21.3663 38.7279 21.1722 38.5107 21.1233 38.4898C21.0472 38.4569 20.3868 38.7472 20.2868 38.8574C20.2683 38.8779 20.0829 38.984 19.8756 39.093C19.6683 39.202 19.2674 39.4158 18.9849 39.5684C18.702 39.7214 18.3475 39.9081 18.1966 39.9833C18.0457 40.059 17.9071 40.1379 17.8882 40.1589C17.8692 40.1799 17.6924 40.2798 17.4954 40.3814L17.1373 40.5652L17.0587 40.2786C17.0151 40.1207 16.9415 39.8682 16.8946 39.7173C16.8001 39.4142 16.6911 39.0424 16.3814 37.9696C16.2671 37.574 16.1302 37.1113 16.0771 36.9415C16.0241 36.7721 15.9612 36.5455 15.9377 36.4386C15.9089 36.3074 15.8629 36.256 15.7975 36.2811C15.7436 36.3016 15.4599 36.3366 15.1663 36.3584C14.8727 36.3806 14.2316 36.4419 13.7418 36.4953C12.0969 36.6742 11.2983 36.7486 11.2753 36.7252C11.2625 36.7124 11.2971 36.3008 11.3517 35.8106C11.7543 32.2202 11.7638 32.0755 11.5977 32.0755C11.5273 32.0755 11.3337 32.0327 11.1667 31.9809C10.9997 31.9287 10.6782 31.8312 10.452 31.7638C10.2258 31.6967 9.87093 31.5882 9.66367 31.5228C9.45642 31.4578 9.10153 31.3505 8.87536 31.2843C8.64918 31.2185 8.34817 31.1227 8.20588 31.0717C8.0636 31.0207 7.89212 30.9787 7.82468 30.9787C7.57548 30.9787 7.46198 30.827 7.56849 30.6362C7.62112 30.542 7.74613 30.3105 7.84647 30.1222C7.9464 29.9338 8.09855 29.6562 8.1845 29.5053C8.27003 29.3544 8.47976 28.9691 8.65042 28.6487C9.23353 27.5532 9.32071 27.3949 9.38404 27.3188C9.60569 27.052 9.54853 26.8895 9.104 26.524C8.86508 26.3278 8.59284 26.1012 8.49867 26.0206C8.4045 25.9396 8.1113 25.706 7.8473 25.5012C7.5837 25.296 7.32751 25.0884 7.27816 25.039C7.22881 24.9901 6.99771 24.8046 6.76413 24.6274C6.0926 24.1171 5.97869 23.9908 6.10453 23.8958C6.50835 23.5907 7.10586 23.124 7.16795 23.0651C7.20866 23.0261 7.37562 22.8863 7.53888 22.7543C7.70213 22.6223 7.86909 22.4833 7.91021 22.445C7.95092 22.4068 8.12323 22.2682 8.29306 22.137C8.46249 22.0062 8.66316 21.8418 8.73842 21.7723C8.81367 21.7023 9.00613 21.551 9.16568 21.4351C9.54976 21.1571 9.56991 21.0538 9.32688 20.6192C9.2142 20.4177 9.04396 20.0986 8.94814 19.9102C8.85274 19.7215 8.61916 19.2897 8.42918 18.9504C8.2396 18.6112 8.03687 18.2411 7.9793 18.128C7.92132 18.0149 7.7852 17.7546 7.67664 17.549C7.45211 17.1242 7.45704 17.0929 7.76258 17.0325C7.88472 17.0082 8.12323 16.9445 8.29306 16.8906C8.46249 16.8367 8.92511 16.6994 9.32112 16.5855C9.71672 16.472 10.2258 16.3202 10.452 16.2487C10.6782 16.1771 11.0565 16.0616 11.2929 15.9925L11.7231 15.8663L11.6848 15.3868C11.6384 14.8094 11.4751 13.227 11.3452 12.0974C11.2929 11.6454 11.2555 11.2708 11.2625 11.2651C11.2802 11.249 12.4255 11.3642 13.7418 11.5134C14.3825 11.5866 15.1297 11.6627 15.4023 11.6833L15.8978 11.7207L15.9398 11.532C15.9632 11.4279 16.0216 11.2194 16.0697 11.0689C16.1178 10.918 16.2063 10.6248 16.2663 10.4175C16.4694 9.71475 16.7976 8.6028 16.8934 8.29315C16.9456 8.12331 17.0081 7.8848 17.0324 7.76267C17.0941 7.45096 17.1467 7.4415 17.5584 7.66932C17.7586 7.78035 18.1538 7.98761 18.4363 8.1303C18.7192 8.273 18.9931 8.42186 19.0453 8.46134C19.1634 8.55058 20.1988 9.11478 20.6824 9.3537C21.1056 9.5626 21.1335 9.55273 21.53 9.04692C21.6924 8.83967 21.8647 8.64516 21.9128 8.61514C21.9609 8.58512 22.0004 8.51562 22.0004 8.46093C22.0004 8.40624 22.0251 8.36141 22.0547 8.36141C22.0847 8.36141 22.2212 8.21502 22.3578 8.03613C22.4943 7.85684 22.6859 7.61792 22.7838 7.50483C22.8817 7.39175 23.1851 7.01589 23.4578 6.66964C24.0569 5.90887 23.9656 5.91874 24.4756 6.56231ZM113.804 10.7091C113.673 10.8588 113.668 10.9961 113.65 15.3362L113.632 19.8095L113.274 19.5414C112.895 19.258 112.027 18.8221 111.681 18.7424C111.568 18.716 111.337 18.6548 111.167 18.6058C110.434 18.3949 109.279 18.2818 108.21 18.3163C107.044 18.3542 106.442 18.4586 105.445 18.7966C104.435 19.1388 103.02 20.1113 102.52 20.8071C102.4 20.9737 102.278 21.1094 102.246 21.1094C102.215 21.1094 102.189 21.1558 102.189 21.2122C102.189 21.2689 102.166 21.3154 102.138 21.3154C102.09 21.3158 101.96 21.5111 101.725 21.9318C101.583 22.1876 101.116 23.3119 101.07 23.5084C101.048 23.6026 100.967 23.911 100.89 24.1935C100.357 26.1596 100.413 30.2139 100.997 31.9065C101.05 32.0586 101.094 32.228 101.095 32.2836C101.096 32.3387 101.157 32.5073 101.23 32.6582C101.303 32.8087 101.363 32.9547 101.364 32.9822C101.372 33.1467 102.055 34.4047 102.138 34.4055C102.166 34.4055 102.189 34.4413 102.189 34.4844C102.189 35.003 104.78 37.0102 105.449 37.0102C105.508 37.0102 105.611 37.0394 105.678 37.0751C106.335 37.4267 108.951 37.5423 110.379 37.2832C111.767 37.0311 112.403 36.7856 113.165 36.2075L113.62 35.8616L113.647 36.2819C113.695 37.0221 113.665 37.0102 115.5 37.0102C116.97 37.0102 117.07 37.0019 117.199 36.8732C117.335 36.7371 117.336 36.6446 117.336 23.6454V10.5549H115.638C113.962 10.5549 113.938 10.5569 113.804 10.7091ZM139.129 10.7621C138.905 10.9858 138.954 33.4173 139.18 34.1735C139.846 36.4094 141.194 37.2158 144.266 37.2158C145.866 37.2158 145.739 37.3572 145.763 35.5466C145.787 33.729 145.846 33.8343 144.783 33.7862C143.835 33.743 143.46 33.6427 143.147 33.3482C142.661 32.8918 142.695 33.7681 142.695 21.588V10.6231H140.981C139.351 10.6231 139.261 10.6301 139.129 10.7621ZM68.2849 11.5698C67.9777 11.6948 67.5094 12.0715 67.5094 12.1936C67.5094 12.2347 67.4822 12.268 67.4489 12.268C67.3728 12.268 67.0336 12.9712 66.7215 13.776C66.6557 13.9454 66.5763 14.1461 66.545 14.2214C66.5142 14.297 66.4221 14.5281 66.3407 14.7354C66.2592 14.9426 66.1667 15.1742 66.135 15.2494C66.1034 15.3251 66.0104 15.5562 65.929 15.7634C65.8476 15.9707 65.6728 16.4025 65.54 16.7232C65.4076 17.0436 65.2739 17.3672 65.2427 17.4429C65.2118 17.5181 65.1197 17.7497 65.0383 17.9569C64.9573 18.1642 64.8648 18.3953 64.8327 18.4709C64.801 18.5462 64.7093 18.7777 64.6291 18.985C64.549 19.1922 64.4437 19.4542 64.3951 19.5673C64.3162 19.7515 64.0908 20.2943 63.9399 20.664C63.9091 20.7393 63.817 20.9708 63.7351 21.178C63.6533 21.3853 63.5435 21.6522 63.4917 21.771C63.4395 21.8899 63.3971 22.0182 63.3971 22.0568C63.3971 22.0951 63.3515 22.2139 63.296 22.3204C63.1956 22.5129 63.1401 22.6445 62.8531 23.3711C62.7712 23.5784 62.6766 23.8099 62.6433 23.8851C62.5611 24.0702 62.1124 25.1735 61.9467 25.5987C61.8735 25.787 61.7876 26.0029 61.7567 26.0786C61.7255 26.1539 61.6474 26.3541 61.5828 26.524C61.5182 26.6934 61.4253 26.9249 61.3768 27.038C61.2094 27.4254 60.8052 28.4086 60.6584 28.7857C60.5773 28.9929 60.4856 29.2245 60.4544 29.2997C60.4231 29.375 60.3438 29.5756 60.278 29.7451C60.2122 29.9149 60.1184 30.146 60.0699 30.2591C59.9288 30.586 59.5168 31.5952 59.356 32.0068C59.275 32.2141 59.1833 32.4456 59.152 32.5208C59.1212 32.5965 59.0418 32.7968 58.976 32.9666C58.9102 33.136 58.8169 33.3675 58.7684 33.4806C58.7203 33.5937 58.6277 33.8248 58.5632 33.9947C58.4986 34.1641 58.3913 34.4264 58.3247 34.577C58.258 34.7279 58.1042 35.098 57.9829 35.3994C57.862 35.7012 57.7156 36.0623 57.6581 36.2017C57.6005 36.3415 57.5495 36.573 57.545 36.7157L57.5372 36.976L59.2162 36.9954C60.1398 37.0056 60.9594 36.9987 61.0379 36.9797C61.2045 36.939 61.3274 36.7022 61.8575 35.3994C61.9957 35.0601 62.1347 34.7209 62.1667 34.6456C62.1984 34.5704 62.2909 34.3389 62.3723 34.1316C62.4538 33.9243 62.5463 33.6928 62.5784 33.6176C62.6108 33.5423 62.7169 33.28 62.8144 33.0349C62.9119 32.7898 63.0196 32.5278 63.0529 32.4526C63.3227 31.8485 63.6027 31.1445 63.6027 31.0692C63.6027 30.994 64.5263 30.9812 68.8845 30.9956L74.1658 31.0133L74.2584 31.1844C74.3089 31.2789 74.464 31.6334 74.603 31.9727C74.742 32.3119 74.8953 32.682 74.9435 32.7951C74.9916 32.9082 75.0849 33.1393 75.1507 33.3092C75.3444 33.8084 75.372 33.8766 75.5126 34.2003C75.5866 34.3697 75.7157 34.6781 75.8 34.8854C75.8848 35.0926 75.9929 35.355 76.0406 35.4681C76.0883 35.5812 76.2294 35.9204 76.354 36.2219C76.7105 37.0862 76.5065 37.0151 78.5725 36.9941C80.7245 36.9723 80.6447 37.0694 79.881 35.3994C79.8292 35.2863 79.6771 34.9129 79.5426 34.5696C79.4081 34.2258 79.2346 33.794 79.1565 33.6098C78.9751 33.1813 78.929 33.0682 78.7831 32.6923C78.7173 32.5225 78.6239 32.2914 78.5758 32.1783C78.5273 32.0652 78.4352 31.8337 78.3706 31.6643C78.306 31.4944 78.2275 31.2942 78.1958 31.2189C78.1646 31.1432 78.0573 30.8813 77.9577 30.6362C77.8582 30.3911 77.7377 30.0983 77.6896 29.9852C77.6419 29.8721 77.5486 29.6406 77.4819 29.4712C77.4157 29.3014 77.322 29.0703 77.2735 28.9572C77.2253 28.8441 77.1328 28.6126 77.0683 28.4431C77.0037 28.2733 76.9256 28.073 76.8943 27.9974C76.8635 27.9221 76.7257 27.5829 76.5884 27.2436C76.2746 26.4693 76.0821 25.9996 75.9707 25.7356C75.9226 25.6225 75.8305 25.3914 75.7655 25.2216C75.7009 25.0522 75.6055 24.8133 75.5537 24.6907C75.5019 24.5682 75.4172 24.3675 75.3654 24.2449C75.3136 24.1224 75.2178 23.8835 75.1524 23.7141C75.0142 23.3542 74.8069 22.848 74.6198 22.4117C74.4718 22.0659 74.4298 21.9614 74.2621 21.5206C74.1975 21.3512 74.105 21.1196 74.0569 21.0066C74.0083 20.8935 73.9224 20.6776 73.8656 20.5271C73.7587 20.2441 73.3236 19.177 73.1666 18.8135C73.118 18.7004 73.0251 18.4693 72.9601 18.2995C72.8956 18.1296 72.803 17.8985 72.7545 17.7854C72.7064 17.6724 72.6122 17.4408 72.546 17.2714C72.4798 17.1016 72.3869 16.8705 72.34 16.7574C72.2931 16.6443 72.171 16.3379 72.0682 16.0768C71.9654 15.8157 71.8568 15.5533 71.8272 15.4941C71.7972 15.4349 71.7195 15.2478 71.6541 15.0783C71.5891 14.9085 71.4962 14.6774 71.4476 14.5643C71.3995 14.4512 71.307 14.2197 71.2424 14.0503C71.1779 13.8805 71.0993 13.6802 71.0681 13.6045C71.0364 13.5293 70.9291 13.2677 70.8288 13.0235C70.2975 11.7265 69.3011 11.1569 68.2849 11.5698ZM69.1094 18.4195C69.1789 18.5984 69.2772 18.8373 69.3278 18.9504C69.3788 19.0635 69.563 19.5109 69.7378 19.9444C69.913 20.3778 70.179 21.0255 70.3295 21.3836C70.6762 22.2094 70.6692 22.1917 70.9673 22.9257C71.3214 23.7975 71.7384 24.8059 71.9378 25.273C72.1628 25.8006 72.2277 25.9585 72.3396 26.2497C72.4046 26.4195 72.4893 26.6177 72.5279 26.6905C72.5662 26.7633 72.6217 26.9023 72.6509 26.9989C72.6801 27.096 72.7257 27.2292 72.7525 27.295C72.7985 27.4085 72.5909 27.4151 68.9556 27.4151C64.8261 27.4151 64.9877 27.4291 65.1765 27.0886C65.2127 27.0232 65.3549 26.6917 65.4927 26.3525C65.6305 26.0132 65.8908 25.3812 66.0713 24.9477C66.2518 24.5139 66.5121 23.8818 66.6499 23.5426C66.7877 23.2033 66.9254 22.8641 66.9567 22.7888C66.9875 22.7131 67.0673 22.5129 67.1331 22.343C67.1993 22.1736 67.3161 21.896 67.393 21.7262C67.4699 21.5568 67.5566 21.3561 67.5858 21.2808C67.6701 21.0621 68.1315 19.9316 68.236 19.6873C68.4424 19.2058 68.5247 19.0072 68.6398 18.7107C68.9227 17.9808 68.9355 17.973 69.1094 18.4195ZM153.969 18.2719C153.086 18.3398 151.557 18.716 150.748 19.0648C150.155 19.3201 149.47 19.6627 149.411 19.7322C149.392 19.7548 149.296 19.8152 149.197 19.8662C148.914 20.0118 148.538 20.3737 148.486 20.5509C148.439 20.7088 148.62 21.3142 148.715 21.3158C148.74 21.3162 148.822 21.4474 148.896 21.6074C148.971 21.7669 149.051 21.9133 149.075 21.9318C149.098 21.9507 149.247 22.2032 149.405 22.4927C149.818 23.2473 149.987 23.2708 150.872 22.6971C151.336 22.3961 151.498 22.3105 152.084 22.0572C152.986 21.667 153.801 21.5251 155.134 21.5259C155.738 21.5263 156.354 21.5531 156.505 21.5851C156.656 21.6176 156.94 21.6769 157.137 21.7172C158.65 22.0272 159.618 23.3008 159.542 24.8791L159.521 25.3244L156.299 25.3647C152.362 25.4141 151.829 25.4959 150.177 26.3105C146.779 27.9842 146.267 33.4263 149.265 35.9932C149.477 36.175 149.673 36.3238 149.699 36.3242C149.725 36.3247 149.884 36.4172 150.052 36.5303C150.219 36.6434 150.38 36.7359 150.408 36.7359C150.436 36.7359 150.585 36.7939 150.74 36.8642C152.372 37.6073 155.523 37.6307 157.259 36.9127C157.921 36.6388 158.869 36.0853 158.869 35.9726C158.869 35.9402 158.903 35.9134 158.943 35.9134C158.984 35.9134 159.127 35.7901 159.263 35.6396C159.531 35.341 159.624 35.3007 159.624 35.4833C159.624 36.8247 160.391 37.2191 162.999 37.217L164.49 37.2158V35.8193C164.49 34.2167 164.514 34.2809 163.874 34.2052C163.133 34.118 163.193 34.579 163.165 28.7516C163.137 23.286 163.108 22.9093 162.621 21.6579C161.61 19.0668 158.659 17.9117 153.969 18.2719ZM127.274 18.332C127.217 18.3459 126.924 18.392 126.623 18.4348C125.486 18.596 123.994 19.1182 123.567 19.5039C123.508 19.5578 123.436 19.6018 123.408 19.6018C123.334 19.6018 122.539 20.2199 122.351 20.4234C122.264 20.518 122.062 20.7343 121.902 20.9038C121.488 21.3421 121.158 21.8685 120.656 22.8916C119.532 25.1797 119.424 29.9523 120.44 32.4526C120.788 33.3096 121.396 34.4059 121.522 34.4059C121.557 34.4059 121.585 34.4404 121.585 34.4832C121.585 34.584 122.709 35.7078 122.81 35.7078C122.853 35.7078 122.887 35.735 122.887 35.7679C122.887 35.9652 124.637 36.8173 125.629 37.1035C127.174 37.5489 129.613 37.5464 131.249 37.0982C132.162 36.8477 133.304 36.3954 133.499 36.207C133.548 36.1585 133.617 36.119 133.651 36.119C133.83 36.119 134.867 35.3188 135.481 34.7065C136.433 33.7574 136.437 33.6867 135.585 32.9214C135.255 32.6257 134.905 32.307 134.807 32.2124C134.042 31.4796 133.92 31.4809 133.167 32.2285C131.44 33.9449 128.658 34.4853 126.282 33.5666C125.982 33.4502 125.705 33.3301 125.666 33.2989C125.626 33.268 125.498 33.1652 125.379 33.0702C125.26 32.9756 125.145 32.8979 125.122 32.8979C124.947 32.8979 124.177 31.8826 123.95 31.3521C123.761 30.9105 123.499 29.9943 123.535 29.9005C123.562 29.8314 124.833 29.8137 129.786 29.8137C134.411 29.8137 136.06 29.7928 136.227 29.7323C136.534 29.6217 136.547 29.5222 136.495 27.77C136.438 25.8643 136.313 24.965 135.927 23.6795C135.757 23.1112 135.379 22.2846 135.108 21.8849C135.021 21.7566 134.95 21.6222 134.95 21.5864C134.95 21.5502 134.921 21.5206 134.886 21.5206C134.851 21.5206 134.803 21.4605 134.78 21.3869C134.557 20.6866 132.485 19.2066 131.089 18.751C130.139 18.4409 127.858 18.1905 127.274 18.332ZM90.0921 18.4537C88.6467 18.6494 87.1815 19.3958 86.3282 20.3712L86.0145 20.7302V19.8592V18.9883L85.8047 18.8801C85.4683 18.7062 82.7296 18.7596 82.526 18.9439L82.3817 19.0746V27.9291C82.3817 36.4201 82.387 36.7881 82.5071 36.8967C82.6909 37.0628 85.741 37.0682 85.9067 36.9024C86.0025 36.8066 86.0145 36.2219 86.0145 31.5002C86.0145 25.2611 86.0153 25.2504 86.6194 23.9879C87.9427 21.2225 92.6413 21.0707 93.9609 23.7511C94.556 24.9597 94.5765 25.2183 94.5794 31.4607C94.5811 36.0944 94.5938 36.7231 94.688 36.858C94.7933 37.0081 94.8171 37.0102 96.4188 37.0081L98.0428 37.0061L98.1649 36.8375C98.3253 36.6175 98.3113 24.944 98.1497 24.0907C97.9272 22.9142 97.5406 21.9059 97.0032 21.0999C96.6981 20.6422 95.9352 19.8074 95.8221 19.8074C95.7888 19.8074 95.7436 19.761 95.7218 19.7046C95.7 19.6479 95.635 19.6018 95.5775 19.6018C95.5199 19.6018 95.4726 19.573 95.4726 19.5377C95.4726 19.5027 95.4109 19.4542 95.3357 19.4303C95.2608 19.4065 95.1597 19.3506 95.112 19.3057C94.9536 19.1589 94.4096 18.9184 93.6221 18.6478C92.9127 18.4039 91.1675 18.3081 90.0921 18.4537ZM110.414 21.6769C110.659 21.7661 110.951 21.8882 111.065 21.9483C111.178 22.0087 111.368 22.109 111.488 22.1716C112.2 22.5437 113.129 23.7613 113.514 24.8281C113.749 25.4766 113.754 30.1378 113.521 30.8459C112.221 34.797 107.139 35.5051 104.948 32.0397C104.9 31.9653 104.83 31.8271 104.792 31.7329C104.754 31.6388 104.695 31.4998 104.661 31.4245C104.304 30.6169 104.177 29.6916 104.179 27.8946C104.183 25.3026 104.564 24.0389 105.719 22.7987C106.811 21.625 108.9 21.1258 110.414 21.6769ZM129.158 21.6904C131.359 22.042 132.659 23.4829 132.891 25.8282C132.999 26.9195 133.586 26.8019 128.139 26.7814L123.47 26.7637L123.492 26.2155C123.525 25.4013 123.947 24.034 124.305 23.5775C125.535 22.0124 127.178 21.3738 129.158 21.6904ZM159.446 28.3473C159.611 28.4106 159.607 31.0659 159.441 31.5614C159.182 32.3391 158.632 33.0928 158.081 33.4264C157.637 33.6957 157.037 33.9309 156.391 34.0884C155.404 34.3298 152.931 34.1756 152.602 33.8528C152.566 33.8174 152.495 33.7891 152.445 33.7891C152.252 33.7891 151.439 33.1179 151.324 32.8638C151.29 32.7881 151.235 32.6804 151.202 32.6236C150.981 32.2478 150.919 31.9657 150.919 31.3336C150.919 29.4243 152.066 28.5167 154.654 28.3773C155.808 28.3152 159.306 28.2934 159.446 28.3473Z" fill="#345CDC"/>
</svg>
