<svg width="231" height="48" viewBox="0 0 231 48" fill="none" xmlns="http://www.w3.org/2000/svg">
<path d="M10.6559 24.11C10.97 23.888 11.0315 23.7321 10.7173 23.4793C8.64327 21.8777 6.53618 20.2738 4.49288 18.6391C3.67792 17.9801 2.76611 17.4132 2.0102 16.6289H1.97949V30.71H2.0102C2.26296 30.4903 2.54406 30.2706 2.79682 30.051C5.39524 28.1021 8.01492 26.0895 10.6559 24.11Z" fill="#292525"/>
<path d="M231 0.566928C231 0.0944868 230.906 0 230.433 0H1.44584C0.973395 0 0.878906 0.0944868 0.878906 0.566928V11.1968V37.9134V47.4331C0.878906 47.9055 0.973395 48 1.44584 48H230.403C230.875 48 230.967 47.9055 230.967 47.4331C231 31.7787 231 16.1882 231 0.566928ZM229.899 46.2709C229.899 46.774 229.774 46.8992 229.271 46.8992H2.60804C2.04347 46.8992 1.97969 46.7102 1.97969 46.2378V30.7748H1.94899V16.6913H1.97969V1.7622C1.97969 1.25905 2.10489 1.1315 2.60804 1.1315H229.271C229.774 1.1315 229.899 1.22598 229.899 1.7622V46.2709Z" fill="white"/>
<path d="M158.642 4.08671C158.642 3.26939 158.642 3.26939 157.855 3.26939H6.03638C5.81621 3.28592 5.59512 3.28592 5.37496 3.26939C5.03008 3.23868 4.93559 3.39694 4.93559 3.71112V15.7182C4.92325 15.8261 4.93995 15.9353 4.98398 16.0346C5.028 16.1338 5.09774 16.2195 5.18598 16.2828C6.28677 17.1332 7.38756 18.0119 8.49307 18.8599C10.586 20.4946 12.6978 22.1103 14.8049 23.7332C14.2403 24.1725 13.7372 24.6119 13.2009 25.0206C10.6238 26.9694 8.0159 28.9182 5.43874 30.867C5.12457 31.1198 4.90252 31.3702 4.93559 31.8426C4.9663 35.6765 4.9663 39.5434 4.93559 43.3796C4.93559 43.9749 5.06079 44.1639 5.71984 44.1639C56.4521 44.1324 107.195 44.1324 157.95 44.1639C158.547 44.1639 158.673 44.008 158.673 43.441C158.642 30.3662 158.642 17.2206 158.642 4.08671ZM26.5616 33.7276C25.3663 35.2064 23.7269 35.8347 21.908 35.9292C21.1828 35.9653 20.4558 35.9233 19.7395 35.804C17.949 35.5513 16.1962 35.771 14.3962 35.8347H13.8624L13.5482 35.5206C13.5323 35.4289 13.5531 35.3346 13.6062 35.2582C13.6592 35.1817 13.7402 35.1291 13.8317 35.1119H13.8931C14.3655 35.0812 14.8687 35.1733 15.1828 34.734C15.5584 34.2308 15.5915 33.6025 15.5915 33.0048C15.6529 31.4647 15.6844 29.9245 15.686 28.3843V14.6174C15.686 14.2088 15.6529 13.7694 15.6222 13.3607C15.5584 12.4489 15.1498 12.0403 14.2403 11.882L13.5151 11.7875C13.3285 11.7875 13.1395 11.7261 13.1395 11.5064C13.1395 11.2867 13.3285 11.1592 13.5482 11.1592H15.497C15.8726 11.1592 16.2198 11.1922 16.5978 11.1922H17.6962C19.2364 11.1922 20.8096 11.0032 22.3498 11.2536C25.4915 11.7261 26.6017 14.2088 26.3655 16.5662C26.2072 18.456 25.3285 20.0245 23.9773 21.3119C23.6301 21.6261 23.5687 21.7536 24.0694 22.004C28.8789 24.5812 29.2261 30.4607 26.5545 33.7276M50.7435 11.8206C49.5198 12.0095 49.2978 12.1962 49.2364 13.4221C49.0167 16.6914 49.1726 19.93 49.1419 23.1993C49.1419 24.9591 49.1419 26.719 48.8891 28.4788C48.6175 30.3025 48.145 32.0623 46.9639 33.5718C45.1403 35.8655 42.6576 36.4631 39.8584 36.1489C35.8049 35.7095 34.1065 32.9103 33.4474 29.6741C33.1798 28.2865 33.0531 26.8754 33.0694 25.4623V14.6481C33.0694 14.334 33.0694 13.9891 33.0387 13.6749C32.9443 12.3851 32.5663 12.0095 31.2789 11.8206C30.9954 11.7875 30.4923 11.9765 30.5561 11.4733C30.6198 10.9702 31.0592 11.1922 31.3734 11.1922C33.5726 11.2229 35.7742 11.2843 37.9734 11.1922L38.5072 11.2229L38.76 11.5371L38.5072 11.8206H38.4458C36.7781 12.2292 36.7474 12.2292 36.6529 13.9584C36.5915 15.1843 36.5915 16.3773 36.6222 17.6032C36.6529 21.0922 36.4639 24.5505 36.7474 28.0395C36.8419 29.3599 37.0616 30.6379 37.6923 31.819C38.6041 33.4725 39.9553 34.3962 41.9041 34.3324C43.9167 34.2379 45.1734 33.1395 45.96 31.3773C46.5576 30.0261 46.6521 28.5426 46.6828 27.104C46.7135 26.034 46.7135 24.9662 46.7135 23.9292V14.5513C46.7186 14.247 46.7084 13.9427 46.6828 13.6395C46.5576 12.4158 46.2104 12.0379 44.9537 11.8796L44.6395 11.8489C44.4198 11.8489 44.2002 11.7851 44.2309 11.504C44.2616 11.2229 44.4506 11.2206 44.6702 11.2206H44.7978C46.7466 11.2513 48.7261 11.282 50.675 11.2206C50.9254 11.2206 51.2726 11.1568 51.2726 11.5347C51.3033 11.8489 50.9584 11.7851 50.7364 11.8182M63.908 34.2591C63.4693 34.7843 62.9297 35.2162 62.321 35.529C61.7124 35.8418 61.0471 36.0293 60.3647 36.0804C58.6994 36.2694 57.0576 36.1749 55.4939 35.5773C54.5821 35.2017 54.4876 35.0765 54.4876 34.1009C54.5183 32.6836 54.5821 31.2662 54.6128 29.8489V29.6694C54.7072 29.4804 54.6128 29.1025 54.96 29.1355C55.3072 29.1686 55.1797 29.4804 55.1797 29.6694C55.2149 30.3306 55.3307 30.9851 55.5246 31.6182C55.792 32.5489 56.3895 33.3502 57.2053 33.872C58.021 34.3938 58.999 34.6003 59.9561 34.4528C61.6238 34.2332 62.8498 32.6316 62.9419 30.6497C63.034 28.6678 62.1883 27.2245 60.7427 26.0623C59.5167 25.056 58.1962 24.1725 57.1285 23.0127C55.0852 20.7497 54.4569 18.1088 55.2742 15.2174C55.997 12.671 58.26 10.9655 60.9009 10.8166C62.23 10.7563 63.5605 10.9005 64.8458 11.2442C65.2852 11.3694 65.4128 11.5914 65.3797 12.0308C65.349 12.6284 65.3797 13.2568 65.3797 13.8544H65.349C65.349 14.5773 65.3797 15.3001 65.349 16.0229C65.349 16.2426 65.3797 16.5875 65.0348 16.5875C64.6899 16.5875 64.8151 16.2426 64.7844 16.0229C64.6261 14.6056 64.123 13.3513 62.7411 12.7536C62.1413 12.4725 61.4755 12.3627 60.8172 12.4365C60.1589 12.5103 59.5338 12.7648 59.0112 13.1718C57.4072 14.367 57.2821 17.0387 58.7608 18.704C59.5143 19.5521 60.4569 20.2135 61.3592 20.8725C63.0576 22.1292 64.6285 23.5135 65.2876 25.5969C66.3576 28.708 66.138 31.6631 63.9057 34.2733M77.108 35.8442C76.6356 35.8442 76.1324 35.8749 75.6624 35.8442C74.0301 35.719 72.3907 35.719 70.7584 35.8442C70.4112 35.8749 70.0663 35.8442 69.7214 35.8442C69.5017 35.8442 69.3128 35.7804 69.2797 35.53C69.2466 35.2796 69.438 35.1521 69.6576 35.1521C70.1301 35.1214 70.6639 35.2158 70.9781 34.7434C71.2923 34.271 71.323 33.6426 71.3561 33.0473C71.4813 29.9765 71.4813 26.8867 71.4506 23.8347C71.4198 20.7828 71.4505 17.7355 71.4175 14.6883C71.4175 14.3103 71.3868 13.9324 71.3561 13.5237C71.2616 12.3308 70.9474 12.0166 69.7828 11.8584C69.5324 11.8277 69.1852 11.8891 69.1852 11.5135C69.1852 11.1379 69.5631 11.1993 69.8159 11.1993H76.4159C76.6663 11.1993 77.0135 11.1355 77.0135 11.5135C77.0135 11.8914 76.6994 11.7946 76.4797 11.8277C75.2537 12.0166 75.0624 12.2363 74.9702 13.4292C74.9065 14.0906 74.8757 14.719 74.8757 15.378V31.2757C74.8757 32.0316 74.9395 32.8182 74.9702 33.5718C75.0317 34.6395 75.4427 35.0481 76.5104 35.1119H77.0443C77.297 35.1119 77.6419 35.1119 77.6419 35.4568C77.6419 35.8017 77.3584 35.8347 77.108 35.8347M101.675 11.7875C100.135 12.1017 100.073 12.1347 99.9151 13.6773C99.7261 15.6568 99.8537 17.6363 99.7899 19.6182C99.6954 24.6473 99.634 29.6458 99.5702 34.6749V35.2702C99.5065 35.5844 99.5702 36.0261 99.1923 36.1513C98.8143 36.2765 98.5332 35.993 98.3135 35.7426C97.7773 35.1143 97.2435 34.4529 96.7403 33.8245C92.6868 28.7954 88.6309 23.7662 84.9293 18.4536L84.6789 18.1395C84.6789 20.2158 84.6458 22.2568 84.6789 24.3001C84.7403 27.0662 84.8348 29.8324 84.8986 32.5985C84.9019 33.0018 84.9543 33.4032 85.0545 33.7938C85.2742 34.7387 85.6214 35.0198 86.6277 35.0505L87.0364 35.0836C87.223 35.1143 87.445 35.145 87.445 35.4284C87.445 35.7119 87.223 35.7733 86.9726 35.7733C86.5946 35.7733 86.2498 35.8064 85.8718 35.7733C84.2065 35.6174 82.5647 35.7426 80.9112 35.7733C80.6584 35.7733 80.2828 35.9009 80.2498 35.4591C80.2167 35.0174 80.6277 35.0836 80.9112 35.0505C82.0427 34.9891 82.3568 34.7363 82.4206 33.6332C82.6403 29.7993 82.6072 25.9655 82.671 22.0985C82.7348 18.6095 82.7655 15.0899 82.7962 11.6009V11.3481C82.86 11.0977 82.86 10.7198 83.1742 10.656C83.4883 10.5922 83.6773 10.878 83.8332 11.0977C85.3734 13.141 86.9041 15.1843 88.4868 17.2253C91.534 21.156 94.5836 25.1151 97.5695 29.1072L97.7277 29.2962L97.8222 28.6985C97.7584 23.9221 97.6639 19.1434 97.5695 14.367C97.5594 13.9448 97.5175 13.5239 97.4443 13.108C97.2883 12.1631 96.8466 11.8513 95.6844 11.7568C95.4009 11.7261 94.9616 11.882 94.9616 11.4426C94.9616 11.0032 95.4009 11.1284 95.7151 11.1284C97.5387 11.1592 99.3931 11.2229 101.217 11.1284H101.595L101.94 11.4119C102.065 11.693 101.909 11.7568 101.687 11.7875M118.567 31.3395C118.547 32.614 118.432 33.8853 118.222 35.1426C118.128 35.7095 117.844 35.9599 117.247 35.9599C115.77 35.9292 114.291 35.9599 112.815 35.8347C110.708 35.6458 108.563 35.7402 106.466 35.8654C106.266 35.8705 106.066 35.8603 105.868 35.8347L105.617 35.5513L105.837 35.1733L106.026 35.1119C107.472 34.8284 107.661 34.6395 107.691 33.0993C107.754 31.3403 107.786 29.5804 107.786 27.8198V14.7119C107.786 14.2725 107.755 13.8308 107.722 13.3914C107.661 12.4466 107.25 12.0403 106.305 11.9151C106.052 11.882 105.769 11.8513 105.518 11.8206L105.235 11.5678L105.488 11.2844C105.684 11.2487 105.883 11.2282 106.083 11.2229C107.781 11.2843 109.477 11.3481 110.673 11.3174H115.766C116.375 11.3359 116.982 11.2397 117.556 11.034C117.87 10.9088 118.059 10.9702 117.998 11.3174C117.776 12.7631 117.809 14.2088 117.62 15.6544C117.589 15.8127 117.556 16.0631 117.306 16.0324C117.055 16.0017 117.147 15.7796 117.117 15.6237C117.122 15.424 117.112 15.2242 117.086 15.0261C116.866 13.7363 116.363 13.3277 115.073 13.2332C113.942 13.1718 112.81 13.108 111.679 13.108C111.334 13.108 111.176 13.2025 111.176 13.5804V21.345C111.176 21.5954 111.176 21.8174 111.521 21.7843C112.969 21.7536 114.445 21.7536 115.891 21.6899C116.126 21.6911 116.358 21.6345 116.567 21.5249C116.775 21.4154 116.954 21.2562 117.086 21.0615L117.431 20.8088L117.589 21.2505C117.495 22.2875 117.4 23.2938 117.336 24.3214C117.306 24.8552 117.275 25.4198 117.275 25.956C117.275 26.145 117.211 26.3647 117.022 26.3647C116.772 26.3647 116.803 26.1119 116.803 25.956C116.614 23.9127 116.394 23.693 114.32 23.5938C113.439 23.5607 112.591 23.53 111.721 23.4662C111.377 23.4662 111.218 23.53 111.218 23.9387C111.218 26.4544 111.188 28.9985 111.251 31.5143C111.282 33.1489 111.974 33.841 113.64 33.9355C114.299 33.9662 114.929 33.9662 115.588 33.9355C117.129 33.841 117.788 33.2103 118.04 31.7032L118.135 31.1694C118.196 30.9804 118.135 30.6332 118.449 30.6969C118.605 30.7914 118.574 31.1056 118.574 31.3253M132.027 34.2497C131.588 34.7749 131.049 35.2067 130.44 35.5195C129.831 35.8324 129.166 36.0199 128.484 36.071C126.82 36.2895 125.128 36.1064 123.549 35.5371C122.888 35.2867 122.543 34.8781 122.604 34.1198C122.699 32.6741 122.699 31.2591 122.732 29.8135V29.6269C122.824 29.4379 122.732 29.0599 123.077 29.0906C123.36 29.1237 123.296 29.4379 123.296 29.6269C123.317 30.2897 123.433 30.9461 123.641 31.5757C124.272 33.5552 126.032 34.6867 128.075 34.4103C129.74 34.1906 130.966 32.5867 131.061 30.6072C131.155 28.6276 130.305 27.182 128.829 26.0174C127.603 25.0111 126.282 24.1277 125.214 22.9702C123.202 20.7686 122.604 18.1914 123.325 15.3308C123.955 12.7536 126.343 10.8993 129.015 10.7741C130.306 10.72 131.598 10.8577 132.849 11.1828C133.352 11.308 133.572 11.5277 133.51 12.0615C133.479 12.6477 133.479 13.2352 133.51 13.8214H133.447C133.447 14.5442 133.477 15.267 133.447 15.9899C133.447 16.1788 133.477 16.5568 133.132 16.5568C132.788 16.5568 132.913 16.2119 132.882 15.9899C132.724 14.5725 132.221 13.3182 130.839 12.7229C130.236 12.4351 129.566 12.321 128.902 12.3936C128.239 12.4662 127.609 12.7226 127.083 13.134C125.481 14.3269 125.354 16.9985 126.832 18.6662C127.586 19.5143 128.529 20.1733 129.431 20.8347C131.129 22.0914 132.7 23.4733 133.362 25.5592C134.46 28.7009 134.24 31.656 132.008 34.2662M147.693 34.2332C147.253 34.772 146.709 35.217 146.093 35.5416C145.478 35.8662 144.803 36.0639 144.11 36.1229C142.448 36.3351 140.759 36.1472 139.184 35.5749C138.525 35.3245 138.178 34.9158 138.24 34.1576C138.334 32.7119 138.334 31.2969 138.398 29.8513L138.429 29.5985C138.523 29.4095 138.459 29.0954 138.773 29.1261C139.026 29.1568 138.993 29.4072 138.993 29.6292C139.015 30.3122 139.132 30.9887 139.34 31.6395C139.969 33.619 141.729 34.7529 143.772 34.4741C145.425 34.2544 146.663 32.6505 146.758 30.671C146.852 28.6914 146.004 27.2434 144.525 26.0812C143.299 25.0749 141.981 24.1914 140.911 23.0316C138.899 20.8324 138.313 18.2552 139.021 15.3946C139.65 12.8174 142.038 10.9607 144.71 10.8355C146.004 10.7829 147.299 10.9205 148.553 11.2442C149.025 11.3694 149.276 11.5914 149.212 12.1253C149.18 12.7115 149.18 13.299 149.212 13.8851H149.148C149.148 14.608 149.181 15.3308 149.148 16.0536C149.148 16.2733 149.181 16.6206 148.834 16.6206C148.487 16.6206 148.614 16.2733 148.584 16.0536C148.425 14.6363 147.922 13.382 146.54 12.7843C145.945 12.5008 145.283 12.3888 144.628 12.461C143.973 12.5332 143.351 12.7867 142.832 13.193C141.228 14.3883 141.103 17.0599 142.579 18.7253C143.335 19.5733 144.277 20.2347 145.189 20.8938C146.885 22.1198 148.425 23.504 149.117 25.5473C150.124 28.6182 149.935 31.5828 147.7 34.2214" fill="#EA2127"/>
<path d="M227.227 3.26953H160.748C159.961 3.26953 159.961 3.26954 159.961 4.05615V43.3703C159.961 44.1546 159.961 44.1546 160.748 44.1546H227.258C228.044 44.1546 228.044 44.1546 228.044 43.3703V4.11993C228.075 3.26953 228.075 3.26953 227.227 3.26953ZM175.363 35.9601C173.258 36.2435 171.151 35.9601 169.077 35.7711C168.093 35.7097 167.106 35.7097 166.122 35.7711C165.588 35.8042 165.021 35.8042 164.487 35.8349C164.237 35.8349 163.984 35.8349 163.984 35.49C163.984 35.1451 164.237 35.1428 164.456 35.1428C165.777 35.1735 165.963 34.6089 166.058 33.3829C166.152 32.1569 166.185 30.9617 166.185 29.7357V13.8947C166.122 12.4184 165.682 11.9459 164.237 11.8514L163.859 11.8207L163.544 11.5065C163.544 11.3176 163.7 11.2231 163.859 11.1924L164.392 11.1593C166.027 11.1286 167.662 11.3483 169.391 11.1924C171.779 11.1924 174.295 11.0341 176.747 11.4428C180.763 12.1349 183.377 14.4593 184.509 18.3569C185.863 22.8853 185.485 27.2861 182.969 31.3703C181.24 34.1695 178.537 35.49 175.363 35.9601ZM206.355 35.8042C204.439 35.8042 202.521 35.8656 200.603 35.7097C200.414 35.6766 200.13 35.8042 200.038 35.49C199.946 35.1758 200.227 35.1735 200.383 35.0813C200.49 35.0215 200.57 34.9221 200.605 34.8043C200.641 34.6866 200.629 34.5597 200.572 34.4506C199.913 32.2514 199.221 30.0522 198.559 27.8813C198.547 27.8287 198.523 27.7792 198.491 27.7361C198.458 27.6929 198.417 27.657 198.369 27.6306C198.322 27.6042 198.27 27.5879 198.216 27.5826C198.162 27.5774 198.108 27.5834 198.056 27.6002H192.368C192.118 27.6002 191.959 27.631 191.865 27.9144C191.3 29.8302 190.544 31.6939 190.169 33.6333C189.98 34.5782 190.136 35.268 191.35 35.1428C191.603 35.112 191.917 35.1121 191.917 35.5207C191.917 35.9294 191.603 35.8656 191.35 35.8656C189.46 35.7097 187.547 35.8042 185.662 35.8656C185.409 35.8656 185.095 35.8987 185.095 35.5207C185.095 35.2065 185.348 35.1428 185.598 35.1428C186.76 35.2065 187.452 34.5451 187.83 33.5412C188.459 31.8428 189.023 30.1136 189.621 28.4176C191.511 22.8215 193.424 17.2585 195.311 11.6624C195.437 11.2845 195.5 10.7837 195.97 10.7506C196.504 10.7199 196.568 11.2845 196.693 11.6624C198.925 18.2317 201.125 24.7703 203.357 31.3396C203.645 32.2854 204.046 33.1929 204.552 34.042C204.992 34.7672 205.559 35.1758 206.442 35.1428C206.695 35.1428 207.04 35.1121 207.009 35.49C206.914 35.8349 206.6 35.8042 206.348 35.8042M223.183 11.8207C222.709 11.8733 222.255 12.0412 221.86 12.3097C221.466 12.5781 221.143 12.939 220.92 13.3609C219.224 16.127 217.903 19.0491 216.519 21.9735C215.985 23.0719 215.388 24.1727 215.293 25.4294C215.263 25.9325 215.232 26.4357 215.232 26.9388C215.263 29.1404 215.137 31.3396 215.326 33.5412C215.421 34.6727 215.829 35.0483 216.98 35.112C217.221 35.1069 217.463 35.1172 217.703 35.1428C217.922 35.1735 218.111 35.268 218.111 35.5207C218.093 35.6197 218.037 35.7077 217.955 35.7663C217.873 35.8248 217.772 35.8494 217.672 35.8349C217.011 35.8349 216.382 35.8656 215.723 35.8042C213.9 35.6152 212.076 35.8042 210.252 35.8349H209.78L209.466 35.5207L209.747 35.1735L210.094 35.1428C211.1 35.0813 211.476 34.7672 211.54 33.7609C211.698 31.0892 211.79 28.4176 211.57 25.7766C211.48 24.9468 211.223 24.1435 210.817 23.4144C209.371 20.5231 207.926 17.5987 206.447 14.7073C206.151 14.1124 205.804 13.5441 205.41 13.0089C205.205 12.7044 204.941 12.4445 204.633 12.2447C204.326 12.045 203.981 11.9096 203.619 11.8467C203.4 11.816 203.177 11.7829 203.211 11.5018C203.244 11.2207 203.461 11.1876 203.714 11.1876C205.788 11.2491 207.831 11.2491 209.905 11.1876C210.094 11.1876 210.344 11.1876 210.377 11.438C210.411 11.6884 210.188 11.7829 210 11.816C209.466 11.9412 209.371 12.3191 209.527 12.7892L209.685 13.2617C211.162 16.4979 212.607 19.7057 214.148 23.0672C215.501 19.6727 217.218 16.6561 218.298 13.3231C218.581 12.4136 218.487 12.2554 217.637 11.7829L217.417 11.4073L217.731 11.1876H217.92C219.68 11.2798 221.442 11.2491 223.202 11.1876C223.422 11.1876 223.641 11.1876 223.674 11.438C223.644 11.7215 223.424 11.7829 223.171 11.816" fill="#292525"/>
<path d="M101.684 11.192H101.308C99.4848 11.2841 97.6305 11.2227 95.8068 11.192C95.5234 11.192 95.084 11.0975 95.0533 11.5061C95.0226 11.9148 95.4927 11.7872 95.7761 11.8203C96.9383 11.9148 97.3777 12.229 97.536 13.1715C97.6092 13.5867 97.6511 14.0067 97.6612 14.4282C97.7557 19.2069 97.8501 23.9833 97.9139 28.7313L97.8194 29.3266L97.6612 29.14C94.6753 25.1479 91.6257 21.1865 88.5785 17.2581C87.0053 15.2455 85.4651 13.1715 83.9249 11.1282C83.769 10.9085 83.5801 10.625 83.2659 10.6888C82.9517 10.7526 82.9517 11.1282 82.8879 11.3786V11.6313C82.8572 15.1203 82.8265 18.64 82.7627 22.129C82.699 25.9652 82.7627 29.7991 82.51 33.666C82.4486 34.7668 82.1344 35.0479 81.0029 35.1117C80.7194 35.1117 80.3108 35.0479 80.3415 35.5203C80.3722 35.9928 80.7501 35.8345 81.0029 35.8345C82.6564 35.8038 84.31 35.6762 85.9635 35.8345C86.3108 35.8652 86.6864 35.8345 87.0643 35.8345C87.3147 35.8345 87.5368 35.7707 87.5368 35.4896C87.5368 35.2085 87.3171 35.1731 87.1305 35.1424L86.7218 35.1117C85.7462 35.0479 85.3683 34.7668 85.1486 33.855C85.0484 33.4643 84.996 33.063 84.9927 32.6597C84.8982 29.8935 84.8037 27.1274 84.773 24.3613C84.7399 22.318 84.773 20.2439 84.773 18.2006L85.0234 18.5148C88.732 23.7967 92.7879 28.8258 96.8344 33.8857C97.3375 34.5447 97.8714 35.1731 98.4076 35.8038C98.6273 36.0542 98.9084 36.3376 99.2864 36.2124C99.6643 36.0872 99.6336 35.6455 99.6643 35.3313C99.6797 35.1324 99.6797 34.9326 99.6643 34.7337C99.7257 29.7046 99.7895 24.7061 99.884 19.677C99.9147 17.6975 99.7895 15.718 99.9785 13.7361C100.134 12.1959 100.198 12.1959 101.738 11.8463C101.927 11.8156 102.083 11.7211 102.083 11.5014L101.684 11.192Z" fill="white"/>
<path d="M24.0501 22.0341C23.5776 21.7837 23.6107 21.6585 23.9556 21.3443C25.3067 20.0545 26.1878 18.4837 26.3461 16.5963C26.5327 14.2341 25.465 11.7561 22.3304 11.2837C20.7902 11.064 19.2193 11.253 17.6792 11.2222H16.5642C16.1886 11.2222 15.8414 11.1915 15.4634 11.1915H13.5146C13.2949 11.1915 13.106 11.2837 13.106 11.5364C13.106 11.7892 13.2949 11.8199 13.4839 11.8199C13.7267 11.8349 13.9682 11.8665 14.2067 11.9144C15.1186 12.0396 15.4965 12.4789 15.591 13.3908C15.6217 13.7994 15.6524 14.2388 15.6524 14.6474C15.6524 19.2372 15.6855 23.827 15.6524 28.4167C15.6524 29.9569 15.591 31.4876 15.5579 33.0372C15.5272 33.6325 15.5272 34.2632 15.1493 34.7663C14.8351 35.2057 14.3319 35.1112 13.8619 35.1419H13.7981C13.6091 35.2057 13.4839 35.3002 13.5146 35.5506L13.8312 35.8648H14.365C16.1556 35.8341 17.9083 35.5813 19.6776 35.8341C20.3955 35.9381 21.121 35.98 21.8461 35.9593C23.7004 35.8341 25.302 35.2057 26.4973 33.76C29.2327 30.453 28.8855 24.5805 24.0453 22.0341M19.6776 12.6608C20.8091 12.5356 21.8036 12.8498 22.4107 13.823C23.7004 15.8994 23.9201 18.0986 22.8193 20.3309C22.2548 21.4624 20.3367 22.027 19.2052 21.4931C18.9217 21.3679 18.9855 21.1482 18.9855 20.9285V17.0994C18.9855 15.8734 19.0162 14.6167 18.9855 13.3908C18.9855 12.8876 19.2052 12.7317 19.6776 12.6679M24.265 32.69C23.3201 34.7026 21.0595 34.6718 19.7768 33.8852C19.5998 33.7719 19.4511 33.6195 19.3422 33.4398C19.2332 33.26 19.167 33.0576 19.1485 32.8482C19.0435 32.2042 19.0016 31.5515 19.0233 30.8994V23.6687C19.0233 23.1656 19.1815 23.0711 19.6516 23.0404C21.3501 22.9152 22.543 23.7018 23.4548 25.053C24.4304 26.4986 24.8083 28.0695 24.9004 29.7041C24.8083 30.8049 24.7138 31.7781 24.2721 32.69" fill="white"/>
<path d="M50.6995 11.1915C48.7506 11.2529 46.7711 11.2222 44.8223 11.1915H44.6971C44.475 11.1915 44.2554 11.2222 44.2554 11.5057C44.2554 11.7892 44.4443 11.8199 44.664 11.8199L44.9782 11.8506C46.2372 12.0088 46.5821 12.3844 46.7073 13.6104C46.7349 13.9135 46.7459 14.2179 46.7404 14.5222V23.8884C46.7404 24.9584 46.7404 26.0262 46.7073 27.0632C46.6766 28.5112 46.5821 29.9876 45.9845 31.3388C45.2309 33.0986 43.9412 34.1994 41.9309 34.2939C39.9821 34.3884 38.6239 33.4458 37.7191 31.7781C37.0884 30.6159 36.8687 29.3262 36.7743 27.9986C36.5239 24.5096 36.7128 21.0514 36.6491 17.5624C36.6491 16.3364 36.6184 15.1411 36.7128 13.9151C36.8073 12.186 36.838 12.186 38.5034 11.7773H38.5672L38.8176 11.4962L38.5672 11.2128L38.0333 11.1821C35.8317 11.2742 33.6325 11.2128 31.4309 11.1821C31.1475 11.1821 30.6774 10.9931 30.6136 11.4632C30.5498 11.9332 31.0861 11.7773 31.3365 11.8104C32.6262 11.9994 33.0042 12.375 33.0963 13.6647C33.1238 13.9884 33.1349 14.3132 33.1294 14.638V25.4521C33.1108 26.8664 33.2343 28.279 33.4979 29.6687C34.1593 32.9049 35.8246 35.7041 39.9113 36.1435C42.7081 36.4577 45.1601 35.86 47.0144 33.5663C48.2097 32.0876 48.6491 30.3277 48.9325 28.4734C49.1829 26.7136 49.1829 24.9537 49.1829 23.1939C49.216 19.9246 49.0908 16.686 49.2774 13.4167C49.3412 12.1907 49.5609 11.9994 50.7869 11.8151C51.0065 11.7821 51.3538 11.8458 51.3538 11.501C51.2593 11.123 50.9451 11.1537 50.6924 11.1868" fill="white"/>
<path d="M118.344 30.7755C118.03 30.7117 118.094 31.0566 118.03 31.2479L117.935 31.7818C117.685 33.2912 117.023 33.9196 115.483 34.0141C114.824 34.0448 114.194 34.0448 113.535 34.0141C111.9 33.9196 111.172 33.2275 111.146 31.5952C111.113 29.0794 111.146 26.533 111.113 24.0196C111.113 23.6109 111.302 23.5471 111.616 23.5471C112.498 23.5778 113.346 23.6416 114.227 23.6723C116.27 23.7361 116.52 23.9558 116.709 26.0345C116.709 26.2235 116.679 26.4432 116.929 26.4432C117.179 26.4432 117.182 26.1928 117.182 26.0345C117.212 25.5007 117.212 24.9361 117.243 24.3999C117.307 23.3629 117.401 22.3566 117.496 21.329L117.338 20.8896L116.993 21.14C116.86 21.335 116.682 21.4945 116.474 21.6045C116.265 21.7145 116.033 21.7716 115.798 21.7708C114.352 21.8322 112.875 21.8322 111.43 21.8629C111.113 21.8629 111.083 21.6432 111.083 21.4235V13.6424C111.083 13.2668 111.208 13.17 111.586 13.17C112.717 13.17 113.849 13.2314 114.98 13.2952C116.301 13.3896 116.773 13.7983 116.993 15.0881C117.018 15.2854 117.029 15.4844 117.023 15.6834C117.023 15.8416 116.993 16.0613 117.212 16.092C117.432 16.1227 117.496 15.8723 117.527 15.7164C117.716 14.2708 117.652 12.8251 117.905 11.3771C117.966 11.0322 117.777 10.9684 117.463 11.0959C116.889 11.3009 116.281 11.3963 115.672 11.3771H110.579C109.386 11.4101 107.688 11.3463 105.99 11.2826C105.79 11.2886 105.591 11.3099 105.394 11.3463L105.142 11.6298L105.425 11.8802C105.675 11.9133 105.959 11.944 106.212 11.9747C107.157 12.133 107.563 12.5086 107.629 13.4534C107.662 13.8928 107.693 14.3322 107.693 14.7739C107.693 19.1416 107.723 23.5141 107.723 27.8794C107.723 29.6416 107.662 31.4015 107.629 33.1613C107.598 34.7015 107.409 34.8904 105.964 35.1715L105.775 35.2046L105.546 35.5755L105.798 35.8589C105.995 35.8864 106.195 35.8975 106.394 35.892C108.531 35.7645 110.646 35.67 112.743 35.8589C114.222 35.9841 115.698 35.9534 117.177 35.9841C117.772 35.9841 118.056 35.7338 118.15 35.1668C118.375 33.9115 118.491 32.639 118.495 31.3637C118.559 31.1133 118.59 30.7991 118.339 30.7684" fill="white"/>
<path d="M145.155 20.8721C144.245 20.213 143.3 19.5516 142.556 18.7036C141.08 17.0382 141.174 14.3666 142.807 13.1713C143.331 12.7636 143.959 12.5095 144.62 12.4374C145.28 12.3652 145.948 12.4778 146.548 12.7626C147.93 13.3603 148.438 14.6169 148.592 16.0319C148.622 16.2516 148.497 16.5965 148.842 16.5965C149.187 16.5965 149.125 16.2516 149.156 16.0319C149.189 15.3091 149.156 14.5862 149.156 13.8634H149.22C149.22 13.2658 149.189 12.6988 149.22 12.1012C149.284 11.5673 149.062 11.3477 148.561 11.2225C147.309 10.8985 146.016 10.7608 144.725 10.8138C142.022 10.939 139.665 12.7933 139.036 15.3705C138.314 18.2311 138.909 20.8036 140.926 23.0099C141.996 24.1721 143.314 25.0839 144.54 26.0595C146.019 27.2406 146.867 28.6981 146.773 30.6469C146.678 32.5957 145.452 34.2303 143.787 34.45C142.829 34.6081 141.846 34.406 141.027 33.8826C140.209 33.3592 139.614 32.5516 139.355 31.6154C139.147 30.9638 139.03 30.2865 139.008 29.6028C139.008 29.4138 139.041 29.1303 138.788 29.0996C138.474 29.0689 138.505 29.3831 138.444 29.5721L138.413 29.8225C138.38 31.2681 138.349 32.6831 138.255 34.1288C138.191 34.8847 138.538 35.2933 139.199 35.5461C140.803 36.1437 142.469 36.2382 144.134 36.0799C144.832 36.0182 145.51 35.8195 146.131 35.4953C146.751 35.171 147.302 34.7275 147.751 34.1902C149.95 31.5492 150.17 28.5941 149.102 25.4831C148.379 23.4705 146.839 22.0886 145.171 20.8626" fill="white"/>
<path d="M129.469 20.8721C128.56 20.213 127.615 19.5516 126.871 18.7036C125.394 17.0382 125.52 14.3666 127.121 13.1713C127.646 12.7636 128.274 12.5095 128.934 12.4374C129.595 12.3652 130.263 12.4778 130.863 12.7626C132.245 13.3603 132.753 14.6169 132.906 16.0319C132.937 16.2516 132.812 16.5965 133.157 16.5965C133.502 16.5965 133.44 16.2209 133.471 16.0319C133.504 15.3091 133.471 14.5862 133.471 13.8634H133.535C133.535 13.2658 133.504 12.6988 133.535 12.1012C133.598 11.5673 133.379 11.3477 132.876 11.2225C131.624 10.8985 130.331 10.7608 129.039 10.8138C126.337 10.939 123.979 12.7626 123.351 15.3705C122.628 18.2311 123.257 20.8036 125.241 23.0099C126.311 24.1721 127.629 25.0532 128.855 26.0595C130.334 27.2406 131.182 28.6981 131.087 30.6469C130.993 32.5957 129.767 34.2303 128.102 34.45C127.143 34.6081 126.16 34.406 125.342 33.8826C124.524 33.3592 123.928 32.5517 123.67 31.6154C123.472 30.9834 123.351 30.3299 123.309 29.6689C123.309 29.4492 123.372 29.1658 123.089 29.1351C122.744 29.102 122.805 29.4799 122.744 29.6689V29.8579C122.713 31.3036 122.68 32.7185 122.619 34.1642C122.555 34.9177 122.9 35.3264 123.564 35.5815C125.165 36.1792 126.833 36.2736 128.498 36.1177C129.871 35.9922 131.142 35.3383 132.042 34.2941C134.272 31.6839 134.494 28.7311 133.459 25.6177C132.736 23.513 131.196 22.1288 129.467 20.8721" fill="white"/>
<path d="M61.3553 20.8721C60.4435 20.2131 59.501 19.5517 58.7569 18.7036C57.2782 17.0383 57.4033 14.3666 59.0073 13.1713C59.5321 12.7636 60.1597 12.5096 60.8203 12.4374C61.4809 12.3653 62.1486 12.4779 62.749 12.7627C64.1309 13.3603 64.6388 14.617 64.7923 16.032C64.823 16.2517 64.6978 16.5965 65.0427 16.5965C65.3876 16.5965 65.3262 16.2209 65.3569 16.032C65.3876 15.3091 65.3569 14.5863 65.3569 13.8635H65.4207C65.4207 13.2658 65.3876 12.6375 65.4207 12.0398C65.4388 11.9529 65.4391 11.8631 65.4218 11.776C65.4044 11.6888 65.3697 11.6061 65.3196 11.5327C65.2696 11.4592 65.2052 11.3967 65.1305 11.3487C65.0557 11.3006 64.972 11.2682 64.8845 11.2532C63.5985 10.8873 62.2603 10.7388 60.9254 10.8139C59.6433 10.8606 58.4088 11.3114 57.3983 12.1017C56.3878 12.8921 55.6529 13.9816 55.2986 15.2147C54.4813 18.1367 55.1097 20.7469 57.153 23.0099C58.2207 24.2028 59.5411 25.0532 60.7671 26.0595C62.2459 27.2406 63.0939 28.6981 62.9687 30.6469C62.8435 32.5958 61.6482 34.2304 59.9829 34.4501C59.0243 34.6082 58.041 34.4062 57.2225 33.8829C56.4039 33.3595 55.8078 32.5519 55.549 31.6154C55.3563 30.982 55.2405 30.3277 55.2041 29.6666C55.2041 29.4469 55.2679 29.1635 54.9537 29.1328C54.6396 29.102 54.701 29.4776 54.6065 29.6666V29.8556C54.5758 31.2729 54.512 32.6902 54.4813 34.1076C54.4506 35.0832 54.5451 35.2391 55.4876 35.5839C57.0585 36.2146 58.6931 36.2761 60.3585 36.0871C61.7315 35.9641 63.0026 35.3108 63.9018 34.2658C66.1341 31.6556 66.3537 28.7005 65.3191 25.5587C64.627 23.5154 63.0868 22.1005 61.3577 20.8745" fill="white"/>
<path d="M77.0713 35.1025H76.5375C75.4698 35.0387 75.0611 34.63 74.9973 33.5623C74.9359 32.8088 74.9028 32.0222 74.9028 31.2663V15.371C74.9028 14.7119 74.9359 14.0836 74.9973 13.4222C75.0918 12.1962 75.2808 12.0049 76.5068 11.8206C76.7265 11.7875 77.0713 11.8513 77.0406 11.5064C77.0099 11.1615 76.6958 11.1923 76.443 11.1923H69.843C69.5902 11.1923 69.2454 11.1592 69.2147 11.5064C69.184 11.8537 69.5595 11.8206 69.8123 11.8513C70.9745 12.0096 71.2887 12.3545 71.3832 13.5167C71.4139 13.8946 71.4469 14.2726 71.4469 14.6812C71.4469 17.7285 71.4776 20.7781 71.4776 23.8277C71.4776 26.8773 71.5084 29.9883 71.3832 33.0403C71.3525 33.6356 71.3525 34.2214 71.0052 34.7363C70.658 35.2513 70.1572 35.1143 69.6847 35.145C69.4651 35.1757 69.2761 35.2702 69.3091 35.523C69.3422 35.7757 69.5288 35.8371 69.7485 35.8371C70.0934 35.8371 70.4406 35.8678 70.7855 35.8371C72.4178 35.7119 74.0572 35.7119 75.6895 35.8371C76.1619 35.8678 76.6627 35.8371 77.1351 35.8371C77.4186 35.8371 77.7021 35.8678 77.7021 35.4923C77.7021 35.1167 77.3548 35.1143 77.0713 35.1143" fill="white"/>
<path d="M184.51 18.3569C183.378 14.4923 180.771 12.1348 176.748 11.4427C174.263 11.034 171.787 11.1923 169.392 11.1923C167.663 11.3482 166.028 11.1285 164.393 11.1592L163.86 11.1923C163.701 11.223 163.545 11.2844 163.545 11.4734L163.86 11.7876L164.238 11.8207C165.714 11.9458 166.153 12.4183 166.186 13.864V29.7049C166.186 30.9309 166.153 32.1262 166.059 33.3522C165.964 34.5781 165.778 35.1427 164.457 35.112C164.238 35.112 163.985 35.1734 163.985 35.4569C163.985 35.8041 164.238 35.8348 164.488 35.8041C165.022 35.8041 165.589 35.771 166.123 35.7403C167.107 35.6766 168.094 35.6766 169.078 35.7403C171.182 35.8986 173.259 36.2128 175.364 35.9293C178.538 35.4899 181.241 34.1695 182.97 31.3396C185.486 27.286 185.83 22.8852 184.51 18.3474M180.494 30.0734C179.457 32.7758 177.289 34.127 174.428 34.3254C173.459 34.4266 172.479 34.3522 171.537 34.1057C170.311 33.7277 169.902 33.1608 169.808 31.8734C169.619 28.8876 169.713 25.9018 169.713 24.2671V14.0789C169.713 13.134 169.869 12.9474 170.814 12.8529C175.56 12.4443 179.488 14.771 180.778 19.297C181.815 22.9419 181.845 26.5561 180.494 30.0781" fill="#FCFDFF"/>
<path d="M206.357 35.1025C205.509 35.1332 204.911 34.7246 204.467 34.0017C203.973 33.1462 203.573 32.2402 203.272 31.2994C201.042 24.7301 198.84 18.1915 196.608 11.6222C196.483 11.2442 196.422 10.6773 195.885 10.7104C195.413 10.7411 195.351 11.2442 195.226 11.6222C193.337 17.2159 191.423 22.7812 189.536 28.3749C188.94 30.1041 188.374 31.8025 187.745 33.4986C187.367 34.5049 186.708 35.1521 185.513 35.1025C185.263 35.0718 185.01 35.1332 185.01 35.4804C185.01 35.8277 185.324 35.8253 185.577 35.8253C187.466 35.7616 189.38 35.6671 191.265 35.8253C191.518 35.856 191.832 35.8891 191.832 35.4804C191.832 35.0718 191.518 35.1025 191.265 35.1025C190.039 35.197 189.883 34.5356 190.084 33.593C190.492 31.6442 191.246 29.7899 191.78 27.8718C191.874 27.5907 192.033 27.5576 192.283 27.5576H197.974C198.224 27.5576 198.413 27.5907 198.474 27.8411C199.136 30.0427 199.828 32.2419 200.487 34.4104C200.532 34.5209 200.538 34.6436 200.503 34.7579C200.469 34.8723 200.397 34.9714 200.298 35.0387C200.142 35.1332 199.889 35.197 199.953 35.4474C200.014 35.7616 200.298 35.6671 200.518 35.6671C202.436 35.8253 204.354 35.7615 206.27 35.7615C206.522 35.7615 206.837 35.7946 206.867 35.4167C206.962 35.0718 206.648 35.1025 206.364 35.1025M196.934 25.7364H192.942C192.755 25.7364 192.47 25.8285 192.597 25.4198C193.478 22.6868 194.326 19.9867 195.238 17.06C196.055 19.7623 196.842 22.3088 197.626 24.8553C197.879 25.7364 197.879 25.7364 196.934 25.7364Z" fill="#FCFDFF"/>
<path d="M223.14 11.1924C221.38 11.2538 219.621 11.2846 217.861 11.1924H217.672L217.358 11.4121L217.577 11.7877C218.425 12.2601 218.551 12.4184 218.236 13.3279C217.169 16.6609 215.44 19.6775 214.088 23.072C212.548 19.7105 211.069 16.472 209.624 13.2664L209.468 12.794C209.31 12.3216 209.404 11.9767 209.94 11.8208C210.129 11.757 210.349 11.6932 210.318 11.4428C210.288 11.1924 210.068 11.1594 209.846 11.1924C207.772 11.2538 205.729 11.2538 203.655 11.1924C203.435 11.1924 203.182 11.1924 203.151 11.5066C203.151 11.757 203.371 11.7877 203.56 11.8515C203.921 11.916 204.266 12.0521 204.574 12.2517C204.882 12.4512 205.147 12.7103 205.353 13.0137C205.757 13.5421 206.104 14.1113 206.39 14.7121C207.836 17.6035 209.312 20.4948 210.758 23.4192C211.15 24.1544 211.406 24.9548 211.514 25.7814C211.707 28.4398 211.696 31.109 211.481 33.7657C211.419 34.8027 211.041 35.0861 210.035 35.1476L209.69 35.1783L209.406 35.5255L209.718 35.8349H210.191C212.014 35.8042 213.836 35.646 215.659 35.8042C216.288 35.8657 216.949 35.8349 217.608 35.8349C217.708 35.8495 217.809 35.8249 217.891 35.7663C217.973 35.7078 218.029 35.6198 218.047 35.5208C218.08 35.268 217.861 35.1735 217.639 35.1428C217.399 35.1172 217.157 35.1069 216.916 35.1121C215.754 35.0483 215.376 34.7035 215.251 33.5413C215.062 31.3397 215.189 29.1405 215.156 26.9389C215.156 26.4357 215.189 25.9326 215.22 25.4294C215.345 24.1727 215.943 23.0672 216.446 21.9735C217.828 19.0491 219.148 16.1271 220.847 13.3609C221.083 12.9497 221.409 12.5974 221.801 12.3306C222.193 12.0638 222.64 11.8895 223.11 11.8208C223.36 11.7877 223.582 11.7263 223.549 11.4428C223.613 11.1594 223.36 11.1594 223.14 11.1924Z" fill="#FCFDFF"/>
<path d="M19.612 23.0716C19.1396 23.1047 18.9837 23.1991 18.9837 23.7023C19.0144 26.1212 18.9837 28.5094 18.9837 30.9306C18.9629 31.5828 19.0048 32.2354 19.1089 32.8795C19.2034 33.3188 19.3593 33.6968 19.7372 33.9165C21.027 34.7031 23.2805 34.7338 24.2254 32.7236C24.6648 31.8117 24.7923 30.8338 24.8231 29.7684C24.788 28.1122 24.2869 26.4994 23.3774 25.1149C22.4963 23.733 21.3034 22.9464 19.5979 23.0716" fill="#EA2127"/>
<path d="M19.0164 17.1338V20.9677C19.0164 21.1874 18.955 21.4071 19.2361 21.5323C20.3676 22.0685 22.2857 21.5015 22.8526 20.3701C23.9204 18.1378 23.7314 15.9386 22.444 13.8645C21.8463 12.8889 20.84 12.5748 19.7085 12.7C19.2054 12.7638 19.0164 12.9197 19.0164 13.4559C19.0471 14.6488 19.0164 15.9078 19.0164 17.1338Z" fill="#EA2127"/>
<path d="M170.805 12.8976C169.86 12.9921 169.705 13.1811 169.705 14.1236V24.3071C169.735 25.911 169.61 28.9275 169.799 31.9157C169.86 33.2031 170.302 33.7701 171.528 34.1456C172.473 34.4598 173.444 34.4291 174.419 34.3677C177.28 34.1787 179.449 32.8275 180.486 30.1157C181.837 26.596 181.806 22.9488 180.769 19.3653C179.482 14.8063 175.551 12.4795 170.805 12.8976Z" fill="#292525"/>
<path d="M195.229 17.0684C194.318 19.9597 193.47 22.6951 192.589 25.4282C192.463 25.8699 192.747 25.7447 192.933 25.7447H196.926C197.87 25.7447 197.87 25.7447 197.587 24.8636C196.833 22.3172 196.047 19.7707 195.225 17.0684" fill="#292525"/>
</svg>
