<svg width="58" height="49" viewBox="0 0 58 49" fill="none" xmlns="http://www.w3.org/2000/svg">
<path d="M5.3484 30.0156L5.49419 30.1368C5.33625 29.0454 5.2512 27.8569 5.56709 26.814C6.04091 25.1404 6.63622 23.5153 6.93996 21.7811C7.18294 20.435 7.46238 18.9191 7.30443 17.6214C7.1222 18.3248 6.93996 19.0161 6.55118 19.6224C5.08111 21.8903 3.5746 24.5583 4.60729 27.4446C4.58299 27.481 4.54655 27.5173 4.5101 27.4931C4.09702 26.535 3.99983 25.4557 3.73254 24.437C3.01573 21.7326 0.938206 19.4648 1.54567 16.3359C1.21764 17.0151 1.09615 17.7791 0.926056 18.5189C0.561578 20.435 0.926056 22.4602 1.44848 24.2308C2.09239 26.4259 4.24281 28.0024 5.3484 30.0156Z" fill="#D69D36"/>
<path d="M4.78945 15.9723C5.27542 14.9779 6.06512 14.032 7.01277 13.3286C9.10245 11.752 11.3865 9.71463 11.423 7.04662C10.7183 8.96274 8.61647 9.76314 7.21931 11.0729C6.4782 11.7642 5.90718 12.6009 5.57915 13.4741L5.53055 13.4377C5.70064 12.6616 6.02867 11.9703 6.25951 11.2184C6.86698 9.18103 6.75763 6.74344 8.75012 5.37305C7.72958 5.63985 6.86698 6.29472 6.10157 7.14364C4.48571 8.92636 4.63151 11.558 4.83804 13.8864C4.91094 14.6141 4.87449 15.2326 4.78945 15.9723Z" fill="#D69D36"/>
<path d="M7.21948 10.1631C8.33722 9.12012 9.62504 8.34397 10.5727 7.10698C11.7026 5.61532 12.6867 3.94175 14.1689 2.65625C12.1642 3.4324 10.0017 4.2328 8.7017 6.29445C7.93629 7.49506 7.8148 8.91396 7.21948 10.1631Z" fill="#D69D36"/>
<path d="M8.05796 15.4384C8.54393 14.4561 8.84766 13.3403 8.98131 12.261C8.79907 12.7218 8.51963 13.1463 8.13086 13.5101C6.50285 15.0503 4.59541 16.5541 4.23093 18.737C4.18234 19.0523 4.14589 19.3676 4.06084 19.6708C3.98795 19.7072 3.98795 19.6223 3.96365 19.598L4.17019 16.9058C4.36458 14.2741 2.97956 11.3515 4.49822 9.03513C4.44962 9.02301 4.41317 9.07152 4.37672 9.08364C2.99171 10.8421 2.06836 12.7825 2.06836 15.1473C2.06836 18.07 3.75711 20.1195 3.96365 22.8603C4.40102 19.9982 6.80658 17.9609 8.05796 15.4384Z" fill="#D69D36"/>
<path d="M4.83811 33.3981C6.40536 34.6351 8.27636 35.5931 9.70997 36.6846C9.43054 35.9691 8.96887 35.3142 8.78663 34.5745C7.94833 31.1909 8.41 27.2617 6.96423 24.1328C7.23152 25.9155 6.52686 27.4921 6.36892 29.1899C6.23527 30.5846 6.47826 31.9428 7.02498 33.107C7.18292 33.4587 7.4745 33.7619 7.55955 34.1257C7.03713 33.6528 6.6605 33.0585 6.30817 32.4764C4.61942 29.7478 1.08397 27.9772 0.840988 24.6543C0.719496 26.1338 0.853138 27.6982 1.33911 29.008C2.00732 30.8028 3.31944 32.1975 4.83811 33.3981Z" fill="#D69D36"/>
<path d="M26.1478 42.3613C23.4142 42.3613 20.9601 43.6832 18.5667 44.6777C16.3919 45.5751 13.5125 45.4053 11.5808 44.0713C12.5285 45.2598 13.8041 45.9995 15.1284 46.4968C17.5704 47.4669 20.4255 46.7272 22.5152 45.3932C24.0095 44.4351 25.2974 43.0768 27.0833 43.0768C29.9627 43.0768 32.9879 46.0238 35.5757 48.6918C35.9766 48.3644 36.4018 48.0248 36.7298 47.6488C34.0206 45.0779 30.1935 42.3613 26.1478 42.3613Z" fill="#D69D36"/>
<path d="M21.264 42.652C21.6892 42.5429 22.1995 42.5792 22.5882 42.4337C20.9602 42.1063 19.393 41.6091 18.1295 40.457C16.3192 38.8076 14.7155 37.0492 12.7838 35.7637C14.3024 37.8011 14.7277 40.7601 17.4977 41.791C17.9837 41.9729 18.5547 42.0093 18.9799 42.2761C18.4453 42.3609 17.9837 42.1912 17.4855 42.082C13.9136 41.318 9.5642 42.3003 6.89136 39.2685C7.89975 41.2574 9.98943 42.8218 12.0062 43.4767C15.1043 44.5196 18.3481 43.3675 21.264 42.652Z" fill="#D69D36"/>
<path d="M15.2866 41.1598C12.9661 39.2922 12.6137 36.4908 11.5811 34.041C10.9371 32.513 9.8923 31.1426 8.77457 29.8086C10.0016 32.2583 9.46708 35.4114 11.0586 37.7156C11.5568 38.4433 12.2493 39.1345 12.8932 39.7045L12.8689 39.7409C12.2857 39.4741 11.7633 39.0618 11.2287 38.6252C8.44654 36.3088 4.25503 36.0178 2.59058 32.2462C3.0401 35.0112 5.23912 37.4609 7.62038 39.0132C9.88015 40.4928 12.7838 40.3351 15.2866 41.1598Z" fill="#D69D36"/>
<path d="M47.6168 7.10698C48.5644 8.3561 49.8522 9.12012 50.97 10.1631C50.3746 8.91396 50.2532 7.49506 49.4999 6.29445C48.1999 4.2328 46.0373 3.4324 44.0327 2.65625C45.4906 3.94175 46.4747 5.60319 47.6168 7.10698Z" fill="#D69D36"/>
<path d="M51.9299 11.2184C52.1486 11.9582 52.4766 12.6616 52.6588 13.4377L52.6102 13.4741C52.2822 12.6009 51.7112 11.7642 50.9701 11.0729C49.5729 9.75102 47.4711 8.96274 46.7786 7.03449C46.815 9.71463 49.0991 11.752 51.1888 13.3165C52.1243 14.0198 52.9261 14.9658 53.4121 15.9602C53.327 15.2204 53.2906 14.602 53.3635 13.8864C53.5822 11.5459 53.7158 8.92636 52.1121 7.14364C51.3467 6.29472 50.4841 5.62772 49.4636 5.37305C51.4317 6.74344 51.3224 9.18103 51.9299 11.2184Z" fill="#D69D36"/>
<path d="M54.0194 16.8941L54.2259 19.5864C54.2016 19.6107 54.2016 19.6834 54.1287 19.6592C54.0437 19.356 54.0072 19.0407 53.9586 18.7254C53.5941 16.5546 51.6746 15.0386 50.0587 13.4985C49.6699 13.1347 49.3905 12.7102 49.2083 12.2494C49.3419 13.3287 49.6456 14.4444 50.1316 15.4267C51.383 17.9492 53.7885 19.9866 54.2259 22.8608C54.4325 20.1079 56.1212 18.0705 56.1212 15.1478C56.1212 12.783 55.1979 10.8426 53.8128 9.08412C53.7764 9.05987 53.7399 9.02348 53.6913 9.03561C55.21 11.3519 53.8128 14.2746 54.0194 16.8941Z" fill="#D69D36"/>
<path d="M54.4568 24.4257C54.1896 25.4444 54.0924 26.5358 53.6793 27.4818C53.6428 27.506 53.6064 27.4575 53.5821 27.4333C54.6148 24.547 53.1083 21.8911 51.6382 19.6111C51.2494 19.0169 51.0672 18.3135 50.8849 17.6101C50.727 18.9199 51.0064 20.4237 51.2494 21.7698C51.5653 23.504 52.1485 25.1291 52.6223 26.8026C52.9382 27.8456 52.8531 29.0219 52.6952 30.1255L52.841 30.0043C53.9344 27.9911 56.097 26.4146 56.7531 24.2074C57.2755 22.4489 57.64 20.4115 57.2755 18.4954C57.1054 17.7557 56.9717 16.9916 56.6559 16.3125C57.2512 19.4535 55.1736 21.7213 54.4568 24.4257Z" fill="#D69D36"/>
<path d="M39.6101 44.6777C37.2045 43.6832 34.7625 42.3613 32.0289 42.3613C27.9954 42.3613 24.1562 45.09 21.4712 47.6488C21.7992 48.0248 22.2244 48.3765 22.6254 48.6918C25.201 46.0359 28.2383 43.0768 31.1177 43.0768C32.9037 43.0768 34.1915 44.4351 35.6859 45.3932C37.7634 46.715 40.6185 47.4669 43.0726 46.4968C44.3848 45.9995 45.6604 45.2598 46.6202 44.0713C44.6763 45.3932 41.7848 45.5751 39.6101 44.6777Z" fill="#D69D36"/>
<path d="M51.8935 32.453C51.529 33.0351 51.1645 33.6415 50.6421 34.1023C50.7272 33.7506 51.0188 33.4353 51.1767 33.0836C51.7234 31.9073 51.9664 30.5611 51.8328 29.1665C51.6627 27.4686 50.958 25.8921 51.2374 24.1094C49.7795 27.2382 50.2533 31.1675 49.415 34.551C49.2328 35.3029 48.7711 35.9578 48.4917 36.6612C49.9253 35.5697 51.7963 34.6117 53.3636 33.3747C54.8822 32.1862 56.1944 30.7794 56.8869 28.9603C57.385 27.6506 57.5065 26.0861 57.385 24.6066C57.1298 27.9537 53.5823 29.7243 51.8935 32.453Z" fill="#D69D36"/>
<path d="M46.9363 38.6252C46.4017 39.0618 45.8793 39.4741 45.2961 39.7409L45.2718 39.7045C45.9157 39.1224 46.6082 38.4311 47.1064 37.7156C48.6979 35.4114 48.1634 32.2462 49.3904 29.8086C48.2727 31.1426 47.2279 32.513 46.584 34.041C45.5513 36.4908 45.1989 39.2922 42.8784 41.1598C45.3812 40.3351 48.2849 40.4928 50.5325 39.0254C52.9016 37.4731 55.1006 35.0233 55.5623 32.2583C53.91 36.0178 49.7306 36.3088 46.9363 38.6252Z" fill="#D69D36"/>
<path d="M40.7035 42.0937C40.2054 42.2029 39.7437 42.3605 39.2092 42.2878C39.6344 42.021 40.1933 41.9846 40.6914 41.8027C43.4614 40.7597 43.8866 37.8007 45.4053 35.7754C43.4736 37.0609 41.8699 38.8194 40.0596 40.4687C38.7961 41.6208 37.2288 42.1059 35.6008 42.4454C35.9896 42.591 36.4999 42.5546 36.9251 42.6637C39.8531 43.3914 43.0848 44.5313 46.195 43.5005C48.1996 42.8335 50.2893 41.2691 51.3099 39.2923C48.6249 42.312 44.2633 41.3418 40.7035 42.0937Z" fill="#D69D36"/>
<path d="M29.0878 0.691406C18.032 0.691406 9.0415 9.66564 9.0415 20.7015C9.0415 31.7374 18.032 40.7116 29.0878 40.7116C40.1437 40.7116 49.1342 31.7374 49.1342 20.7015C49.1342 9.66564 40.1437 0.691406 29.0878 0.691406ZM29.0878 24.5216C26.9739 24.5216 25.2608 22.8117 25.2608 20.7015C25.2608 18.5914 26.9739 16.8814 29.0878 16.8814C31.2018 16.8814 32.9149 18.5914 32.9149 20.7015C32.9149 22.8117 31.2018 24.5216 29.0878 24.5216ZM31.9672 17.4878C31.2626 16.8571 30.3514 16.4569 29.343 16.3963V13.1219C31.2504 13.1826 32.9878 13.9466 34.2877 15.1714L31.9672 17.4878ZM28.8449 16.3963C27.8365 16.4569 26.9253 16.8571 26.2206 17.4878L23.9001 15.1714C25.2001 13.9466 26.9374 13.1826 28.8449 13.1219V16.3963ZM25.8804 17.8395C25.2487 18.5428 24.8477 19.4524 24.787 20.459H21.5067C21.5674 18.555 22.3328 16.8208 23.5599 15.5231L25.8804 17.8395ZM24.787 20.9441C24.8477 21.9506 25.2487 22.8602 25.8804 23.5636L23.5599 25.8799C22.3328 24.5823 21.5674 22.8481 21.5067 20.9441H24.787ZM26.2206 23.9153C26.9253 24.5459 27.8365 24.9461 28.8449 25.0067V28.2811C26.9374 28.2205 25.2001 27.4564 23.9001 26.2316L26.2206 23.9153ZM29.3308 24.9946C30.3392 24.934 31.2504 24.5338 31.9551 23.9031L34.2756 26.2195C32.9756 27.4443 31.2383 28.2083 29.3308 28.269V24.9946ZM32.3074 23.5636C32.9392 22.8602 33.3401 21.9506 33.4008 20.9441H36.6811C36.6204 22.8481 35.855 24.5823 34.6279 25.8799L32.3074 23.5636ZM33.4008 20.459C33.3401 19.4524 32.9392 18.5428 32.3074 17.8395L34.6279 15.5231C35.855 16.8208 36.6204 18.555 36.6811 20.459H33.4008ZM34.6279 14.8319C33.2307 13.5221 31.3841 12.6975 29.3308 12.6368V8.99863C32.3803 9.05927 35.1503 10.2963 37.2036 12.2609L34.6279 14.8319ZM28.8449 12.6368C26.8038 12.6975 24.9449 13.5221 23.5478 14.8319L20.9721 12.2609C23.0253 10.2963 25.7954 9.05927 28.8449 8.99863V12.6368ZM23.2076 15.1714C21.8955 16.5661 21.0693 18.4094 21.0086 20.459H17.3638C17.4245 17.415 18.6637 14.65 20.6319 12.6005L23.2076 15.1714ZM21.0207 20.9441C21.0815 22.9815 21.9076 24.8369 23.2197 26.2316L20.6319 28.8026C18.6637 26.7531 17.4245 23.988 17.3638 20.9441H21.0207ZM23.5599 26.5711C24.9571 27.8809 26.8038 28.7056 28.857 28.7662V32.4044C25.8075 32.3438 23.0375 31.1068 20.9843 29.1421L23.5599 26.5711ZM29.3308 28.7541C31.3719 28.6934 33.2307 27.8688 34.6279 26.559L37.2036 29.13C35.1503 31.0946 32.3803 32.3316 29.3308 32.3923V28.7541ZM34.9681 26.2195C36.2802 24.8248 37.1064 22.9815 37.1671 20.9319H40.8119C40.7512 23.9759 39.5119 26.7409 37.5437 28.7904L34.9681 26.2195ZM37.1671 20.459C37.1064 18.4216 36.2802 16.5661 34.9681 15.1714L37.5437 12.6005C39.5119 14.65 40.7512 17.415 40.8119 20.459H37.1671ZM37.5437 11.9213C35.4055 9.8718 32.5139 8.5863 29.3308 8.52567V5.29979C33.4008 5.36043 37.0942 7.00975 39.8157 9.64138L37.5437 11.9213ZM28.8449 8.51354C25.6617 8.57418 22.7702 9.85967 20.6319 11.9092L18.36 9.64138C21.0815 7.00975 24.7748 5.36043 28.8449 5.29979V8.51354ZM20.2917 12.2609C18.2385 14.3953 16.9507 17.2816 16.8899 20.459H13.6704C13.7311 16.3963 15.3834 12.7096 18.0198 9.99307L20.2917 12.2609ZM16.8899 20.9441C16.9507 24.1214 18.2385 27.0077 20.2917 29.1421L18.0198 31.41C15.3834 28.6934 13.7311 25.0067 13.6704 20.9441H16.8899ZM20.6319 29.4817C22.7702 31.5312 25.6617 32.8167 28.8449 32.8774V36.0911C24.7748 36.0305 21.0815 34.3811 18.36 31.7495L20.6319 29.4817ZM29.3308 32.8895C32.5139 32.8288 35.4055 31.5434 37.5437 29.4938L39.8157 31.7616C37.0942 34.3933 33.4008 36.0426 29.3308 36.1032V32.8895ZM37.8961 29.1421C39.9493 27.0077 41.2371 24.1214 41.2979 20.9441H44.5174C44.4567 25.0067 42.8044 28.6934 40.168 31.41L37.8961 29.1421ZM41.2979 20.459C41.2371 17.2816 39.9493 14.3953 37.8961 12.2609L40.168 9.99307C42.8044 12.7096 44.4567 16.3963 44.5174 20.459H41.2979ZM40.168 9.30182C37.3494 6.57316 33.5466 4.87534 29.3308 4.8147V1.1765C34.5429 1.23714 39.2689 3.34729 42.7436 6.73082L40.168 9.30182ZM28.8449 4.8147C24.6412 4.87534 20.8263 6.57316 18.0077 9.30182L15.4442 6.73082C18.9189 3.34729 23.645 1.23714 28.857 1.1765V4.8147H28.8449ZM17.6675 9.64138C14.9339 12.4549 13.233 16.2508 13.1723 20.459H9.52748C9.58822 15.2563 11.7022 10.5388 15.0919 7.07039L17.6675 9.64138ZM13.1844 20.9441C13.2452 25.1401 14.9461 28.9481 17.6797 31.7616L15.0919 34.3205C11.7022 30.8642 9.60037 26.1467 9.53963 20.9441H13.1844ZM18.0198 32.1012C20.8385 34.8299 24.6412 36.5277 28.857 36.5883V40.2265C23.645 40.1659 18.9189 38.0557 15.4442 34.6722L18.0198 32.1012ZM29.3308 36.5883C33.5345 36.5277 37.3494 34.8299 40.168 32.1012L42.7436 34.6722C39.2689 38.0557 34.5429 40.1659 29.3308 40.2265V36.5883ZM40.5082 31.7495C43.2418 28.936 44.9427 25.1401 45.0034 20.9319H48.6482C48.5875 26.1346 46.4735 30.8521 43.0838 34.3205L40.5082 31.7495ZM45.0034 20.459C44.9427 16.2629 43.2418 12.4549 40.5082 9.64138L43.0838 7.07039C46.4735 10.5388 48.5875 15.2563 48.6482 20.459H45.0034Z" fill="#D69D36"/>
<path d="M30.2431 16.0703L30.1216 16.0824V16.228L30.2431 16.2158V16.0703Z" fill="#D69D36"/>
<path d="M30.0969 15.875H29.939V15.9963H30.0969V15.875Z" fill="#D69D36"/>
<path d="M29.6477 15.84L29.7935 15.8643L29.8056 15.743L29.6599 15.7188L29.6477 15.84Z" fill="#D69D36"/>
<path d="M29.5265 15.7916L29.3928 15.7795L29.405 15.6582L29.5508 15.6703L29.5265 15.7916Z" fill="#D69D36"/>
<path d="M28.5173 15.6328H28.3594V15.7541H28.5173V15.6328Z" fill="#D69D36"/>
<path d="M28.0076 15.8752L28.1534 15.8994L28.1655 15.7782L28.0319 15.7539L28.0076 15.8752Z" fill="#D69D36"/>
<path d="M28.0321 16.0702L27.8621 16.0217L27.8985 15.9004L28.0564 15.9489L28.0321 16.0702Z" fill="#D69D36"/>
<path d="M27.7401 16.2158L27.7158 16.0946L27.8373 16.0703L27.8616 16.1916L27.7401 16.2158Z" fill="#D69D36"/>
<path d="M11.8852 28.7667V29.0335H12.0067L11.9824 28.7303L11.8245 28.6697V28.5605H11.7273V28.7667H11.8852Z" fill="#D69D36"/>
<path d="M12.7356 29.5059L13.0393 29.6514L13.1365 29.9303L13.2823 30.0395L13.416 30.3426L13.3431 30.4882L13.1122 30.282L12.9543 30.0516L12.8692 29.8697L12.7356 29.5059Z" fill="#D69D36"/>
<path d="M17.8382 35.8015L17.9476 36.0683L17.8018 36.1532L17.7167 36.032L17.5223 35.9713L17.498 35.7894L17.3401 35.5469L17.5831 35.5833L17.8382 35.8015Z" fill="#D69D36"/>
<path d="M28.469 17.3911H28.2503L28.2138 16.9424L28.3353 16.8575V16.6271H27.6307L27.6064 16.3967L27.7036 16.336L27.5456 16.2754L27.4241 16.433L27.3877 16.615L27.1812 16.6513V16.7484H27.0354V17.0152L26.4643 17.4881L25.3345 17.4517C25.2494 17.6337 25.055 17.4275 25.055 17.4275C25.0186 17.3062 24.727 17.4275 24.727 17.4275C24.727 17.6579 24.3382 17.3305 24.3382 17.3305L23.6336 16.8211C23.2326 16.4573 22.6252 16.9181 22.6009 17.0273C22.6252 17.3183 22.1392 17.0879 22.1392 17.0879C22.1392 17.0879 21.7383 16.9666 21.6775 17.1243C21.6168 17.282 21.3495 17.2456 21.3495 17.2456L21.313 17.3305L21.1065 17.3669L21.0701 17.4881L20.8271 17.5245L21.4345 17.5003C21.5925 17.476 21.3738 17.8519 21.2766 17.8277L20.9972 17.8519L20.9 17.949H20.6327L20.5112 18.1187L20.1224 18.0945C20.1224 18.0945 19.9037 18.2764 19.9159 18.337C19.9402 18.3977 19.8794 18.5796 19.8187 18.5796C19.7579 18.5796 19.6364 18.7615 19.6729 18.8221C19.7093 18.8828 19.5514 19.0889 19.5514 19.0889L19.5149 19.2951L19.3935 19.3315V19.8893L19.1505 20.0591V20.3017L18.786 20.6897L18.8224 21.0172L18.5187 21.3446L18.5552 21.6721L18.3729 21.7327L18.3365 21.8782L18.2514 22.3027L18.458 22.3269C18.5552 22.2906 18.543 22.5937 18.458 22.6301C18.3729 22.6665 18.1542 22.7514 18.2757 22.8363C18.3972 22.9212 17.9477 22.8969 17.9477 22.7756C17.9477 22.6544 17.7047 22.5452 17.644 22.5937C17.5832 22.6301 17.486 22.4118 17.486 22.4118C17.2673 22.1814 16.5748 22.4361 16.5748 22.4361L16.4776 22.7635C16.2589 22.7999 16.1131 23.1758 16.1131 23.1758C15.9309 23.2365 15.7851 23.4669 15.8459 23.5275C15.9066 23.5882 15.7487 23.6124 15.7487 23.6124V24.0611L15.6515 24.2067L15.6758 24.6918C15.7973 24.6918 15.773 24.9222 15.773 24.9222C15.5664 24.9464 15.615 25.2132 15.615 25.2132L15.1898 25.3588L15.1048 25.48L14.5823 25.4558L14.4365 25.6013L14.2908 25.4558H13.2824L13.2459 25.3588L13.0394 25.3224L13.0151 25.092L12.7113 25.1162L12.6506 25.2375L12.3226 25.2617C12.3469 25.4679 11.9945 25.7711 11.9581 25.6862C11.9216 25.6013 11.6908 25.383 11.8001 25.3345C11.8973 25.2981 12.1646 25.2496 12.1646 25.2496V25.1041L11.4114 25.0798L11.3263 25.2011L11.0226 25.2254V25.5528L10.8768 25.5892C10.7796 25.6498 10.9011 25.8802 10.9011 25.8802C11.0469 26.0258 10.8768 26.2441 10.8768 26.2441C10.7553 26.3653 10.974 26.5958 10.974 26.5958C11.1319 26.6321 10.8768 26.7534 10.8768 26.7534C10.9132 26.9596 11.0347 27.0202 11.0347 27.0202C10.9132 27.2264 11.1198 27.3234 11.1198 27.3234L11.1441 27.6751L11.2899 27.76V27.9904L11.3749 28.1359H11.703L11.6787 27.6266C11.3992 27.2991 11.9216 27.2142 11.9459 27.3355C11.9702 27.4568 12.1889 27.5174 12.1889 27.5174C12.2254 27.8206 12.5777 28.0025 12.6749 27.6993C12.7721 27.3962 12.8571 27.5781 12.9179 27.7236C12.9786 27.8691 13.3674 28.2208 13.3674 28.2208H13.6711L13.7076 28.5119C14.0478 28.4876 14.1571 28.5361 14.2908 28.997C14.4365 29.4699 14.8132 29.5912 14.8132 29.5912L15.0926 29.567C15.0926 29.3244 15.372 29.6033 15.372 29.7367C15.372 29.858 15.9188 30.331 15.9188 30.331L16.4655 30.4523L16.9757 30.8646L17.3645 30.8282H17.5225C17.6197 30.4765 18.1056 30.8525 18.1542 30.9737C18.1907 31.095 18.5187 31.3012 18.5552 31.2041C18.5916 31.1071 18.8224 31.1678 18.8589 31.4709C18.8953 31.7741 19.0411 31.7135 19.0411 31.7135L20.1953 31.6892L20.5962 31.3375L21.6289 31.3133C22.1513 31.289 21.8355 30.5735 21.7261 30.5735C21.5439 30.428 21.7869 29.8338 21.7869 29.8338L20.3168 28.4634C19.9766 28.4634 20.2804 27.9661 20.2804 27.9661C20.5476 27.7964 20.2196 27.5417 20.2196 27.5417C20.2561 27.2991 20.0738 27.0081 20.0738 27.0081C19.7093 26.7655 19.8065 26.2926 19.8065 26.2926V25.9651C19.5028 25.6741 19.928 25.6377 19.928 25.6377C20.0738 25.3951 19.8308 25.2132 19.8308 25.2132L19.8065 24.9464L19.4785 24.9101L19.442 23.952L18.7131 22.909C18.5673 22.8727 18.6766 22.618 18.6766 22.618C18.8589 22.521 18.6402 22.2663 18.6402 22.2663L18.6159 21.8176L19.0411 21.7812L19.1383 21.6235H19.3449L19.3206 21.0899C19.4178 20.8231 19.6607 20.9687 19.6607 20.9687L19.9402 20.9929L20.0981 20.6897L20.1346 20.4472L19.9159 20.4229C19.6729 20.2774 19.7944 19.7438 19.7944 19.7438C20.1832 19.1738 20.6205 19.5013 20.6205 19.5013L20.9 19.477C21.3252 19.7681 20.9364 20.2895 20.9364 20.2895C20.8514 20.4108 20.9 20.7989 20.9 20.7989L20.9972 21.4538L20.7299 21.6842C20.5112 21.8055 20.5112 22.0965 20.7542 22.1571C20.9121 22.1814 20.8514 22.5695 20.6084 22.3027C20.2439 22.3027 20.8149 22.6301 20.6448 22.5452C21.0093 22.7271 20.9243 22.3876 20.9243 22.3876L21.4102 21.9995C21.5925 21.854 21.9205 22.3027 21.9205 22.3633C21.9205 22.424 22.7224 22.3876 22.7224 22.3876C22.941 22.5331 23.0261 22.8969 23.0261 22.8969C23.2448 22.6059 23.7186 22.8727 23.3663 23.0424C23.6943 23.2486 23.6943 23.4305 23.6943 23.4305C23.9616 23.3456 23.9616 23.5518 23.9616 23.6124C23.9616 23.6731 24.0466 23.3092 24.0466 23.3092C23.7429 23.0788 24.4476 23.0061 24.2532 23.4063L24.1317 23.5882L24.3382 23.7458L24.3625 24.2188C24.812 24.1824 24.6905 23.6246 24.6905 23.6246L24.8971 23.5882C24.8971 23.4063 25.0429 23.5033 25.0429 23.5033C24.8971 22.812 25.3709 22.6908 25.3709 22.6908C25.6382 22.6301 25.6503 22.0723 25.6503 22.0723C25.4681 21.9874 25.5653 21.7084 25.7718 21.951C25.9784 22.1935 25.6503 21.4538 25.6503 21.4538L25.4924 21.3082L25.2737 21.284L25.2494 21.0536H24.8849L24.8242 21.3446L24.6905 21.4053L24.6541 21.3204L24.5933 21.5508H24.2289L24.2046 21.3082L24.4233 21.2476L24.5083 21.1263L24.5691 20.7989H24.8363L25.1765 20.7019C25.2008 20.3502 25.3831 20.4351 25.3831 20.4351L25.5045 20.5321L25.6868 20.6776L25.7111 20.7989L25.5896 20.8595L25.5653 21.0293L25.626 21.2597H25.784C25.8447 20.9323 26.27 20.9323 26.3914 21.1385L26.5129 20.8474C26.2335 20.7019 26.5129 20.4836 26.5858 20.5806C26.6709 20.6776 26.8531 20.3138 26.8531 20.3138C26.8531 20.3138 26.9989 20.4957 26.8531 20.2532C26.7073 20.0106 26.9503 19.8893 26.9503 19.8893C26.9139 19.6468 27.2176 19.6832 27.2176 19.6832L27.2419 19.3557L26.9625 19.3315C26.9017 19.6225 26.6587 19.3679 26.7802 19.3072C26.9017 19.2466 27.0232 19.1253 27.0232 19.1253V18.9192L27.1447 18.8828L27.169 18.6766H27.4727L27.74 18.5553L27.8008 18.4583L28.0802 18.4341L28.4811 18.0702L28.4447 17.9126C28.2017 17.9126 28.4447 17.7307 28.4447 17.7307L28.469 17.3911Z" fill="#D69D36"/>
<path d="M20.329 21.4426L19.9646 21.4062L19.9888 21.5518H20.086C20.244 21.8428 20.1103 22.5341 20.1103 22.5341C20.1103 22.5341 19.8674 22.5583 19.8309 22.4371C19.7945 22.3158 19.6851 22.7039 19.7702 22.7645C19.8552 22.8251 20.1346 22.7645 20.1589 22.9949C20.1832 23.2254 20.3412 22.8494 20.3412 22.8494L20.329 21.4426Z" fill="#D69D36"/>
<path d="M19.9648 23.1044V23.5895L20.2807 24.0261L20.4022 23.735L20.4508 23.5531L20.305 23.4925L20.3293 23.1893L20.4508 23.1651L20.463 23.0195L20.1592 23.2257L19.9648 23.1044Z" fill="#D69D36"/>
<path d="M20.4868 24.4737V24.2676L20.341 24.2918L20.3289 24.4495L20.4868 24.4737Z" fill="#D69D36"/>
<path d="M20.3049 25.4561V25.3105L20.1348 25.3348V25.4803L20.3049 25.4561Z" fill="#D69D36"/>
<path d="M20.5472 24.826C20.5958 24.826 20.6322 24.7897 20.6322 24.7411C20.6322 24.6926 20.5958 24.6562 20.5472 24.6562C20.4986 24.6562 20.4622 24.6926 20.4622 24.7411C20.4622 24.7897 20.4986 24.826 20.5472 24.826Z" fill="#D69D36"/>
<path d="M20.6817 25.2499C20.7287 25.2499 20.7668 25.2119 20.7668 25.165C20.7668 25.1181 20.7287 25.0801 20.6817 25.0801C20.6348 25.0801 20.5967 25.1181 20.5967 25.165C20.5967 25.2119 20.6348 25.2499 20.6817 25.2499Z" fill="#D69D36"/>
<path d="M20.6932 22.91C20.7402 22.91 20.7782 22.872 20.7782 22.8251C20.7782 22.7782 20.7402 22.7402 20.6932 22.7402C20.6462 22.7402 20.6082 22.7782 20.6082 22.8251C20.6082 22.872 20.6462 22.91 20.6932 22.91Z" fill="#D69D36"/>
<path d="M27.1691 20.0481H27.2906L27.3149 20.1815L27.2298 20.2542L27.1934 20.3634L27.0355 20.3997L26.671 20.7514L26.6467 20.9091L26.5495 21.0546L26.428 21.3578L26.0028 21.3821L25.9177 21.7459L25.9785 22.0612L26.3429 22.2067L26.3794 22.0006L26.5009 21.9399L26.5252 21.7338L26.6102 21.5882L26.7317 21.4427L26.7682 21.285L26.9747 21.1638L27.2177 21.1153L27.3149 20.994L27.3513 20.7514L27.3756 20.5695L27.4607 20.4361L27.7037 20.3391V19.951H27.5822L27.5579 19.8055L27.3392 19.7812L27.2906 19.8904H27.1934L27.1691 20.0481Z" fill="#D69D36"/>
<path d="M28.1163 21.1995V20.9084L28.0798 20.6416L27.7761 20.4961L27.5574 20.7023L27.521 20.9933V21.1752L27.3144 21.2116L27.278 21.7695L27.12 21.8301L27.1443 22.0363L26.9256 22.0969L26.707 22.1575L26.6705 22.4243L26.5126 22.5214L26.4275 22.7639L26.3303 23.3581C26.3303 23.3581 26.5126 23.7098 26.6098 23.5401C26.707 23.3824 26.877 23.3581 26.877 23.3581L26.9378 23.2126L27.4845 23.2369C27.521 23.0065 27.7882 23.0913 27.7882 23.2005C27.7882 23.2975 27.9948 23.2247 27.9948 23.2247L28.1406 22.9943H28.3593L28.3836 22.7518L28.4807 22.6911V22.3273C28.8088 22.2303 28.7602 21.915 28.7602 21.915L28.8452 21.818L28.8088 21.6724C28.6508 21.6118 28.7237 21.4663 28.8331 21.5027C28.9303 21.539 28.6873 21.3208 28.6873 21.3208C28.5658 21.4178 28.4686 21.1995 28.4686 21.1995H28.1163Z" fill="#D69D36"/>
<path d="M28.4452 23.6729C28.4209 23.9154 28.1172 24.0003 28.1172 24.0003L27.8985 23.9397L27.777 23.8427L27.7527 23.5516L27.9349 23.5273L27.9714 23.6486L28.4452 23.6729Z" fill="#D69D36"/>
<path d="M29.5383 22.3645C29.5869 22.5464 29.5747 22.0734 29.6598 22.0977C29.7448 22.122 29.6841 21.8066 29.6841 21.8066L29.3196 22.0734C29.4897 22.0977 29.514 22.2796 29.5383 22.3645Z" fill="#D69D36"/>
<path d="M30.607 21.2955C30.6921 21.4774 30.6678 21.7442 30.9715 21.9504C31.0687 22.0231 30.9108 22.1565 30.8136 22.0959C30.7164 22.0353 30.4248 21.5866 30.4248 21.5866V21.3198C30.4856 21.1621 30.5706 21.2227 30.607 21.2955Z" fill="#D69D36"/>
<path d="M30.6074 27.5169L30.6682 27.5776L30.7289 27.6867L30.8626 27.4563L30.7532 27.4199L30.6074 27.5169Z" fill="#D69D36"/>
<path d="M33.0246 26.8995L33.1825 26.7904L33.1217 26.6934L32.9517 26.7904L33.0246 26.8995Z" fill="#D69D36"/>
<path d="M38.8687 31.1684L39.0509 31.2533L39.0752 31.605C39.3182 31.8476 40.1079 31.6414 40.1079 31.5808C40.1079 31.5201 40.0715 30.8289 40.0715 30.8289L39.9743 30.7319L39.95 30.2225C40.035 29.9557 39.5612 29.5676 39.5248 29.6525C39.4883 29.7374 39.221 29.6768 39.221 29.7495C39.221 29.8344 39.0631 30.2346 39.136 30.3802C39.221 30.5257 39.0752 30.5257 39.0509 30.6712C39.0266 30.7925 38.8201 31.035 38.8687 31.1684Z" fill="#D69D36"/>
<path d="M38.4195 30.3429C38.383 30.5006 38.2372 30.5854 38.1522 30.5248C38.0671 30.4642 38.2494 30.6218 38.298 30.7067C38.3344 30.7916 38.4559 30.7916 38.5045 30.7067C38.541 30.6218 38.5288 30.4399 38.5653 30.355C38.6017 30.2823 38.4438 30.258 38.4195 30.3429Z" fill="#D69D36"/>
<path d="M37.6294 26.5957H37.4836V26.9838H37.6294V26.5957Z" fill="#D69D36"/>
<path d="M39.5734 22.6547C39.4884 22.5334 39.9743 22.3272 40.0594 22.5698C40.1444 22.8123 40.0594 22.776 39.9743 22.7517C39.9015 22.7274 39.6949 22.8123 39.5734 22.6547Z" fill="#D69D36"/>
<path d="M40.0111 19.9141L39.9868 20.0353L40.2055 20.0717L40.2298 19.9504L40.0111 19.9141Z" fill="#D69D36"/>
<path d="M39.4403 20.2659L39.4524 20.3023L39.5739 20.2538L39.5253 20.1567L39.501 20.084L39.4403 20.1204L39.2945 20.2053L39.1608 20.1204L39.1001 20.2295L39.258 20.3265L39.2945 20.3508L39.3188 20.3265L39.4403 20.2659Z" fill="#D69D36"/>
<path d="M40.2049 15.2804H39.9011C39.9011 15.2804 39.9983 15.3168 39.7189 15.05C39.4395 14.7832 39.2572 15.1106 39.2572 15.1106L38.9292 15.147V15.4744L38.7712 15.5351L38.7955 15.7412L39.0142 15.717C39.0142 15.717 39.0142 15.9595 39.075 15.8625C39.1357 15.7655 39.646 15.8868 39.5974 16.1293C39.5852 16.2263 40.1077 16.4931 40.0469 16.8206C40.3142 16.857 40.2535 17.1238 40.2535 17.1238L40.5936 17.1601L40.6908 16.954L40.788 16.9782V16.857L40.5693 16.7963L40.5329 16.1414L40.3871 16.0444L40.4235 15.8746L40.2656 15.814L40.3506 15.5472L40.2049 15.2804Z" fill="#D69D36"/>
<path d="M41.0918 17.368L40.9338 17.3438L40.5694 17.4044L40.3628 17.7925C40.3628 17.7925 40.46 17.8531 40.5451 17.9986C40.6301 18.1442 40.6666 18.9809 40.4236 19.1265C40.1806 19.272 40.4479 19.1871 40.4479 19.1871L40.4114 19.6358C40.4722 19.842 40.5694 19.7328 40.6301 19.6358C40.6909 19.5388 40.7516 19.5145 40.8366 19.4054C40.9217 19.3084 41.0432 19.1143 41.0553 18.9809C41.0796 18.8354 41.1768 18.6171 41.1161 18.5565C41.0553 18.4958 41.1768 18.2048 41.1768 18.2048C41.1768 18.2048 41.2619 18.035 41.1768 17.8774C41.0918 17.7076 41.2011 17.5257 41.2619 17.4529L41.0918 17.368Z" fill="#D69D36"/>
<path d="M41.3352 18.2045L41.3474 18.0469L41.4688 18.059L41.4567 18.2288L41.3352 18.2045Z" fill="#D69D36"/>
<path d="M41.323 18.7737L41.2136 18.7131L41.2744 18.5918L41.3837 18.6524L41.323 18.7737Z" fill="#D69D36"/>
<path d="M41.1525 17.1492L41.0675 16.9673C41.0675 16.9673 41.0675 16.8096 41.1039 16.7247C41.1404 16.6398 41.0189 16.5671 40.9581 16.5428C40.8974 16.5186 40.9217 16.3609 40.8974 16.276C40.8731 16.1911 40.7394 16.1305 40.7394 16.1305C40.7394 16.1305 40.703 15.8273 40.703 15.7667C40.703 15.706 40.5207 15.6211 40.5815 15.5605C40.6422 15.4999 40.6787 15.415 40.7394 15.3786C40.8002 15.3422 40.6787 15.0512 40.7759 15.1118C40.8731 15.1724 40.8731 15.2816 40.9217 15.3543C40.9581 15.4392 40.8974 15.7182 41.0067 15.7788C41.1039 15.8394 40.9824 16.0456 41.1525 16.0456C41.3104 16.0456 41.2133 16.4337 41.2133 16.4337C41.2133 16.4337 41.1768 16.7247 41.274 16.7369C41.3712 16.7611 41.3104 17.2462 41.3104 17.2462L41.1525 17.1492Z" fill="#D69D36"/>
<path d="M39.8403 13.8383C39.9011 13.9232 40.0226 13.9838 40.0226 14.0687C40.0226 14.1536 39.9861 14.2142 40.1076 14.2264C40.2291 14.2506 40.3142 14.2021 40.3506 14.3113C40.387 14.4083 40.387 14.5781 40.3749 14.663C40.3506 14.7478 40.3992 14.8691 40.4964 14.8691C40.5936 14.8691 40.6179 14.8934 40.6179 14.954C40.6179 15.0147 40.7394 14.7236 40.7394 14.7236C40.6422 14.6387 40.5571 14.4568 40.5571 14.4568C40.5571 14.4568 40.4599 14.1657 40.4599 14.1294C40.4599 14.093 40.3142 14.0445 40.2534 14.0323C40.1927 14.0081 40.0955 13.8262 40.0955 13.8262L39.8403 13.8383Z" fill="#D69D36"/>
<path d="M40.0352 13.6446C39.9745 13.5598 39.9137 13.4991 39.8287 13.4627C39.7436 13.4264 39.6829 13.3778 39.61 13.3778C39.5249 13.3778 39.452 13.293 39.4885 13.1959C39.5249 13.0989 39.4277 13.0504 39.4277 12.9655C39.4277 12.8806 39.4885 12.8806 39.5857 12.9413C39.6829 13.0019 39.6707 13.0262 39.7436 13.1232C39.8287 13.2202 39.8651 13.3293 39.9502 13.3051C40.0352 13.2808 40.0959 13.487 40.1688 13.4264C40.2539 13.3657 40.2296 13.5719 40.2296 13.5719L40.0352 13.6446Z" fill="#D69D36"/>
<path d="M37.6785 15.9604C37.7879 16.0695 37.071 16.0453 37.071 15.9604C37.071 15.8755 37.1318 15.5965 37.314 15.6572C37.4963 15.7178 37.5206 15.2934 37.5206 15.2934C37.5206 15.2934 37.3626 15.3176 37.4963 15.2327C37.6421 15.1478 37.4963 15.0266 37.4355 14.9659C37.3748 14.9053 37.314 14.7961 37.314 14.7961H37.5935C37.715 14.7112 37.7514 14.3232 37.7514 14.3232C37.9944 14.4081 38.1159 14.2383 38.1159 14.2383C38.1159 14.2383 38.1523 14.3596 38.2374 14.4687C38.3224 14.5657 38.0308 14.6142 38.1402 14.6749C38.2374 14.7355 38.286 14.9174 38.2374 14.978C38.2009 15.0387 37.9701 15.0023 37.9701 14.9174C37.9701 14.8325 37.885 15.0144 37.9701 15.1236C38.0551 15.2206 37.8729 15.3661 37.8243 15.3661C37.7879 15.3661 37.5206 15.4025 37.7393 15.5359C37.9579 15.6572 38.2009 15.5965 38.2009 15.5965C38.2009 15.5965 38.3832 15.5723 38.4439 15.6814C38.5047 15.7785 38.4196 15.8027 38.3224 15.8027C38.2252 15.8027 37.7393 15.7663 37.7393 15.7663C37.7393 15.7663 37.6178 15.8997 37.6785 15.9604Z" fill="#D69D36"/>
<path d="M36.3783 16.1429C36.4755 16.1187 36.7185 16.1065 36.7671 16.1672C36.8035 16.2278 36.6213 16.3127 36.6213 16.3127L36.3783 16.3491C36.3054 16.2521 36.2811 16.1672 36.3783 16.1429Z" fill="#D69D36"/>
<path d="M38.99 14.4322C39.1479 14.3473 39.5003 14.3473 39.476 14.226C39.4517 14.1047 39.6825 14.0684 39.6825 14.0684L39.7432 14.3109L39.9255 14.4322L39.9498 14.6626C39.9498 14.6626 40.0105 14.6262 39.7918 14.6869C39.5732 14.7475 39.7068 14.8445 39.7068 14.8445L39.2208 14.8688L39.1601 14.6626L38.99 14.4322Z" fill="#D69D36"/>
<path d="M38.2009 13.3174C38.3224 13.3174 38.1644 13.7904 38.4803 13.7419C38.8083 13.7055 38.5046 13.8874 38.7476 13.8995C38.9906 13.9238 38.9298 13.7176 39.0149 13.5721C39.0999 13.4265 39.0513 13.3416 38.9177 13.3053C38.7719 13.2689 38.7719 13.2689 38.7354 13.0991C38.699 12.9414 38.5289 12.8929 38.5289 12.8929L38.4682 12.6504L38.2009 12.808L37.9336 13.1597C37.9336 13.4508 38.0794 13.3174 38.2009 13.3174Z" fill="#D69D36"/>
<path d="M38.7351 15.051L38.7959 14.9297L38.9052 14.9782L38.8445 15.1116L38.7351 15.051Z" fill="#D69D36"/>
<path d="M38.6505 14.8574H38.5291V15.0029H38.6505V14.8574Z" fill="#D69D36"/>
<path d="M38.6256 12.1289L38.6499 12.3108L38.5284 12.3229L38.5042 12.141L38.6256 12.1289Z" fill="#D69D36"/>
<path d="M38.4066 14.0332H38.2852V14.1302H38.4066V14.0332Z" fill="#D69D36"/>
<path d="M37.9572 14.0318L37.9451 13.9106L38.1516 13.8984L38.1638 14.0197L37.9572 14.0318Z" fill="#D69D36"/>
<path d="M36.2934 16.0085L36.1841 15.96L36.2448 15.8145L36.3542 15.863L36.2934 16.0085Z" fill="#D69D36"/>
<path d="M35.6613 15.6338L35.6492 15.5125L35.8557 15.4883L35.8679 15.6096L35.6613 15.6338Z" fill="#D69D36"/>
<path d="M32.1627 15.5957L31.7131 15.6078L31.7253 15.7291L32.1627 15.717V15.5957Z" fill="#D69D36"/>
<path d="M31.4216 15.7667L31.373 15.5848L31.4945 15.5605L31.531 15.7425L31.4216 15.7667Z" fill="#D69D36"/>
<path d="M31.336 15.899L31.2996 15.7778L31.3603 15.7656L31.3968 15.8748L31.336 15.899Z" fill="#D69D36"/>
<path d="M32.3444 15.5476L32.3201 15.6932L32.5388 15.7174C32.5388 15.7174 32.636 15.8023 32.636 15.8629C32.636 15.9236 32.7817 15.9842 32.8546 15.9842C32.9397 15.9842 33.1584 15.8144 33.1584 15.8144C33.1584 15.8144 33.2556 15.5234 33.1827 15.5476C33.0976 15.5719 32.9397 15.6932 32.9154 15.5719C32.8911 15.4506 32.6481 15.5113 32.6481 15.5113L32.3444 15.5476Z" fill="#D69D36"/>
<path d="M33.353 15.3297C33.353 15.3904 33.3166 15.4752 33.4381 15.4995C33.5596 15.5238 33.7783 15.4146 33.8026 15.5359C33.8268 15.6572 33.8268 15.742 33.9848 15.8027C34.1427 15.8633 34.2521 15.8876 34.3736 15.8876C34.4951 15.8876 34.7623 15.8512 34.7623 15.8512C34.7623 15.8512 35.0539 15.8997 35.1025 15.9482C35.3212 16.1786 35.467 16.2393 35.5278 16.1301C35.5885 16.0331 35.5035 15.8027 35.4913 15.7178C35.467 15.6329 35.1876 15.2448 35.0904 15.3297C34.9932 15.4146 34.9689 15.3297 34.7866 15.3904C34.6044 15.451 34.2156 15.4146 34.2035 15.3297C34.1792 15.2448 33.8997 15.2084 33.8997 15.1235C33.8997 15.0387 33.6932 14.9416 33.7175 15.0629C33.7418 15.1842 33.5717 15.2448 33.5353 15.2084C33.4745 15.1599 33.353 15.3297 33.353 15.3297Z" fill="#D69D36"/>
<path d="M37.9942 12.7094L38.14 12.2606C37.9334 12.2243 37.982 11.9938 37.982 11.9938C37.9577 11.8119 37.6783 11.6058 37.5811 11.6664C37.4839 11.727 37.5203 11.2419 37.5203 11.2419C37.5203 11.2419 37.7026 11.1207 37.7876 11.1813C37.8727 11.2419 37.0951 10.1626 36.9372 10.2596C36.7792 10.3566 36.4148 10.1626 36.4269 9.96857C36.4512 9.78666 35.6979 9.16817 35.6979 9.16817C35.6979 9.16817 35.455 9.01052 35.4185 9.13179C35.3821 9.25306 35.297 9.33795 35.4185 9.39859C35.54 9.45923 35.5157 9.30157 35.6615 9.43497C35.8073 9.5805 36.0624 9.76241 35.9652 9.88368C35.868 10.005 35.7465 10.0535 35.7465 10.0535L35.8923 10.2232H36.111L36.1475 10.5749C36.1475 10.5749 36.3905 10.6962 36.4512 10.8417C36.5119 10.9873 36.5119 11.0722 36.4512 11.1449C36.3905 11.2298 36.269 11.3753 36.2933 11.5087C36.3176 11.6543 36.4755 11.7149 36.4755 11.7149L36.6334 11.7392L36.7549 11.7998V12.0666C36.9129 12.0302 37.1802 12.2485 37.1559 12.394C37.1316 12.5396 37.1923 12.4547 37.3988 12.6002C37.6054 12.7457 37.5446 12.77 37.6783 12.867C37.8119 12.9519 37.9334 12.8913 37.9942 12.7094Z" fill="#D69D36"/>
<path d="M34.6656 9.92128C34.6413 9.83639 34.6049 9.55746 34.7264 9.56959C34.8479 9.59384 34.7628 9.56959 34.9086 9.63022C35.0544 9.69086 35.0665 9.5332 35.0665 9.5332H35.2852L35.5647 9.76362L35.5282 9.94553L35.3217 9.96979C35.2245 9.81213 35.0179 9.87277 35.0544 10.0062C35.0908 10.1517 34.9572 10.4185 34.8721 10.4306C34.7871 10.4549 34.532 10.4549 34.5441 10.3336C34.5806 10.2123 34.6656 9.92128 34.6656 9.92128Z" fill="#D69D36"/>
<path d="M34.5066 9.37576V9.21811C34.5066 9.21811 34.4823 9.06045 34.3851 9.06045C34.2879 9.06045 34.1056 8.93918 34.1421 8.85429C34.1785 8.7694 33.8019 8.68451 33.8019 8.68451C33.8019 8.68451 33.4617 8.35707 33.5832 8.39345C33.7047 8.42983 33.644 8.24792 33.644 8.24792C33.644 8.24792 33.401 8.2843 33.3402 8.27218C33.2795 8.24792 33.3038 8.06601 33.3038 8.06601C33.3038 8.06601 33.0608 8.00538 33.0608 8.06601C33.0608 8.12665 33.1458 8.12665 33.1823 8.24792C33.2187 8.3692 33.2066 8.57536 33.3888 8.61174C33.5711 8.64812 33.6075 8.69663 33.6318 8.78153C33.6561 8.86642 33.8748 8.87854 33.8748 8.87854L34.0327 8.96344L34.5066 9.37576Z" fill="#D69D36"/>
<path d="M32.3205 7.29015L32.2597 7.12037L32.1018 7.08398V7.26589L32.3205 7.29015Z" fill="#D69D36"/>
<path d="M32.2599 6.42783C32.0533 6.27018 32.5393 6.54911 32.5393 6.54911C32.6972 6.54911 32.8066 6.67038 32.8066 6.73102C32.8066 6.79165 33.0253 6.7674 33.0253 6.7674L33.0496 6.62187L32.8916 6.41571L32.7458 6.31869C32.7458 6.31869 32.5272 6.29443 32.5272 6.2338C32.5272 6.18529 32.3449 6.48847 32.2599 6.42783Z" fill="#D69D36"/>
<path d="M35.9767 6.54928C35.916 6.73119 35.8917 6.97373 35.7945 6.97373C35.6973 6.97373 35.7337 7.24054 35.7337 7.24054C35.7337 7.24054 36.001 7.24054 36.0739 7.26479C36.159 7.28904 36.159 7.49521 36.159 7.49521C36.4627 7.47095 36.5842 7.88328 36.5477 7.99243C36.5113 8.08945 36.6692 8.08945 36.6692 8.08945C36.6692 8.08945 36.6692 8.41689 36.6328 8.50178C36.5963 8.58667 36.9001 8.64731 36.973 8.76858C37.058 8.88985 36.9365 9.30218 36.8758 9.32644C36.815 9.35069 37.0337 9.41133 37.0216 9.50835C36.9973 9.60537 37.0823 9.50835 37.1066 9.67813C37.1309 9.83579 37.1674 10.1875 37.1674 10.1875L37.4468 10.2117C37.4832 9.94493 38.0057 9.9328 38.0907 9.96919C38.4309 10.0905 38.6982 10.6241 38.6982 10.7453C38.6982 10.8666 38.4795 10.8909 38.4795 10.8909L38.5159 11.4851C38.8561 11.5821 39.1477 12.0793 39.0991 12.1642C39.0627 12.2491 39.3421 12.2249 39.3421 12.2249C39.3785 11.8611 39.7309 11.9823 39.743 12.1036C39.7673 12.2249 39.8281 12.4917 39.8281 12.4917L39.9253 12.6736L40.071 12.8191L40.2897 12.7949L40.3505 12.9161L40.6178 12.9525C40.6178 12.9525 40.8364 13.1951 40.8607 13.2557C40.885 13.3163 41.1888 13.2921 41.2617 13.3163C41.3467 13.3406 41.4682 13.4012 41.4804 13.4982C41.5047 13.5953 41.6262 13.765 41.6262 13.765C41.6262 13.765 41.8691 13.8257 41.8934 13.9106C41.9177 13.9955 42.0149 14.1774 42.0149 14.1774L42.2215 14.3472L42.2458 14.5291L42.4645 14.5533L42.5252 14.7959L42.8897 14.7716L43.0962 14.6261C43.3635 14.4806 43.5457 14.2986 43.5579 14.2138C43.5822 14.1289 43.6186 13.8257 43.8252 13.8863C44.0317 13.947 43.8859 13.4376 43.8859 13.4376C43.8859 13.4376 43.6065 13.2314 43.6186 13.1344C43.6429 13.0374 43.3392 12.8312 43.3514 12.7463C43.3757 12.6615 43.0841 12.5038 43.1084 12.4189C43.1327 12.334 42.9626 12.1157 42.9626 12.1157L42.6588 11.8247L42.6224 11.6428L42.3794 11.6185L41.8934 11.0243L41.9177 10.8545L41.7719 10.8302V10.5998L41.6262 10.5149L41.4075 10.4907L40.9579 10.0056L40.9215 9.77515H40.7028L40.7393 9.35069C40.885 9.16878 40.8 8.81709 40.8 8.81709C40.8 8.81709 40.5206 8.96262 40.3748 8.90198C40.229 8.84134 40.4355 8.69582 40.4355 8.69582V8.53816L40.314 8.41689C40.314 8.41689 39.9738 8.45327 39.9496 8.39263C39.9253 8.332 39.8645 8.06519 39.8645 8.06519L39.8402 7.7135L39.6944 7.65286L39.6701 7.53159L39.4514 7.55585V7.3133L39.3299 7.27692L39.2084 7.21628L39.1841 6.97373L38.7346 6.94948L38.5888 6.74331L38.4309 6.50077L37.9206 6.46439L37.7991 6.34311L37.5926 6.30673L37.4468 6.24609L37.386 6.34311L36.9973 6.36737L36.973 6.48864C36.8029 6.57353 36.001 6.48864 35.9767 6.54928Z" fill="#D69D36"/>
<path d="M38.103 6.01593C38.0665 5.85828 38.5039 5.71275 38.6133 5.83402C38.7104 5.9553 39.002 5.97955 39.0385 6.58592C39.0506 6.80421 38.674 6.3555 38.674 6.3555L38.3703 6.25848C38.2002 6.2221 38.1151 6.12508 38.103 6.01593Z" fill="#D69D36"/>
<path d="M32.174 6.26989L32.0647 6.22138L32.1497 6.02734L32.2591 6.08798L32.174 6.26989Z" fill="#D69D36"/>
<path d="M31.1298 4.25689L30.8625 3.99009V3.75967L30.7775 3.67478L30.6924 3.38372L30.4251 3.29883L30.1579 3.39585L29.8784 3.57776L29.5747 3.61414L29.4167 3.79605L30.0607 3.85669L30.1822 4.06285L30.6438 4.09923L30.9476 4.40242C31.227 4.52369 31.2877 4.40242 31.1298 4.25689Z" fill="#D69D36"/>
<path d="M31.0931 3.25073C31.0445 3.06882 30.7894 3.48115 31.0567 3.55392C31.324 3.63881 31.5791 3.55392 31.5791 3.55392L31.6398 3.43264L32.6482 3.4569C32.7333 3.37201 32.7697 3.25073 32.7697 3.25073C32.7697 3.25073 33.0127 3.16584 33.1099 3.21435C33.2071 3.25073 33.1342 2.92329 33.0249 2.9718C32.9277 3.00819 32.7211 2.99606 32.7211 2.99606H32.3566C32.3323 2.85053 32.0165 2.91117 31.9922 2.99606C31.98 3.06882 31.8585 3.09308 31.8585 3.09308L31.3968 3.12946C31.3482 3.25073 31.1174 3.33562 31.0931 3.25073Z" fill="#D69D36"/>
<path d="M29.0891 6.70816C29.4049 6.80518 29.5143 6.73241 29.5386 6.64752C29.5629 6.56263 29.575 6.5505 29.6965 6.52625C29.818 6.50199 29.6722 6.25945 29.5507 6.2837C29.4292 6.30796 29.3077 6.24732 29.2834 6.13817C29.2591 6.04115 29.0648 5.77435 29.0405 5.98052C29.0162 6.18668 28.8947 6.18668 28.919 6.33221C28.9554 6.46561 29.0162 6.6839 29.0891 6.70816Z" fill="#D69D36"/>
<path d="M26.7681 6.93808C26.7559 6.86532 27.169 6.85319 27.2298 6.91382C27.2905 6.97446 27.2541 7.08361 27.4363 7.08361C27.6185 7.08361 27.5335 7.20488 27.5213 7.26552C27.497 7.32615 27.3027 7.3019 27.2784 7.24126C27.2541 7.18063 26.9503 7.15637 26.9503 7.15637C26.9503 7.15637 26.7924 7.0351 26.7681 6.93808Z" fill="#D69D36"/>
<path d="M33.4259 2.80155L33.4745 2.85006L33.5109 2.81368L33.7175 2.64389L33.6324 2.54688L33.4745 2.68028L33.3773 2.57113L33.2922 2.66815L33.4259 2.80155Z" fill="#D69D36"/>
<path d="M32.5269 2.3293L32.5512 2.30505L32.782 2.15952L32.7091 2.0625L32.5269 2.18377L32.3933 2.09888L32.3325 2.20803L32.4905 2.30505L32.5269 2.3293Z" fill="#D69D36"/>
<path d="M31.798 6.50059L31.9317 6.70675L32.0289 6.63399L31.8952 6.4157L31.8709 6.39144H31.8466L31.6401 6.36719L31.6279 6.48846L31.798 6.50059Z" fill="#D69D36"/>
<path d="M25.1884 12.0918L25.2127 12.3222H25.5165C25.638 12.3222 25.4193 12.1767 25.4193 12.1767C25.4193 12.1767 25.1763 12.2009 25.1884 12.0918Z" fill="#D69D36"/>
<path d="M25.5771 12.1048L25.65 12.0078L25.7715 12.1048L25.6986 12.2018L25.5771 12.1048Z" fill="#D69D36"/>
<path d="M21.8965 8.27239L21.9815 8.1875L22.103 8.30877L22.018 8.39366L21.8965 8.27239Z" fill="#D69D36"/>
<path d="M27.5943 34.7222L27.6794 34.8071L27.7766 34.7101L27.8373 34.6494L27.7644 34.6009L27.5579 34.5039L27.5093 34.6131L27.6308 34.6737L27.5943 34.7222Z" fill="#D69D36"/>
<path d="M26.0022 33.2413L26.1479 33.3383L26.2208 33.2413L26.1358 33.1807L26.1965 33.1322L26.1236 33.0352L26.0022 33.1443L25.9414 33.1928L26.0022 33.2413Z" fill="#D69D36"/>
<path d="M41.2254 29.2529C41.2011 29.1438 41.0796 29.1074 41.0675 29.1074L41.031 29.2287C41.0432 29.2287 41.0553 29.2408 41.0675 29.2529L41.0918 29.3621C41.0796 29.3742 41.0675 29.3863 41.0675 29.3985L41.1525 29.4834C41.2132 29.3864 41.2375 29.3257 41.2254 29.2529Z" fill="#D69D36"/>
<path d="M41.408 28.864L41.2136 28.8518L41.2258 28.6699L41.4202 28.6942L41.408 28.864Z" fill="#D69D36"/>
<path d="M46.0855 27.2757C46.1705 27.2272 46.2799 27.118 46.2677 27.3484C46.2556 27.5789 46.1584 27.5061 46.0855 27.5789C46.0126 27.6516 45.964 27.3484 46.0855 27.2757Z" fill="#D69D36"/>
<path d="M47.1177 26.4018V26.3775C47.1177 26.3412 47.1056 26.2926 47.0813 26.2441L46.9719 26.3048C46.9841 26.329 46.9841 26.3654 46.9962 26.3897C46.9962 26.4261 47.0084 26.4624 47.0327 26.4867C47.057 26.4988 47.0813 26.5109 47.1177 26.4988L47.0934 26.3775C47.0934 26.3897 47.1056 26.3897 47.1177 26.4018Z" fill="#D69D36"/>
<path d="M46.8508 26.4993C46.8873 26.6205 46.9237 26.7418 46.9237 26.7539L47.0331 26.7054C47.0331 26.7054 46.9845 26.5842 46.9602 26.4629L46.8508 26.4993Z" fill="#D69D36"/>
<path d="M46.4012 26.9848L46.2797 26.9727C46.2676 27.0697 46.2919 27.1909 46.3891 27.2031L46.4134 27.0818C46.4134 27.0818 46.4012 27.0333 46.4012 26.9848Z" fill="#D69D36"/>
<path d="M45.8791 24.5472C45.8669 24.5108 45.8548 24.4744 45.8183 24.4623C45.7333 24.4259 45.5753 24.4865 45.5024 24.535L45.5753 24.6321C45.6482 24.5835 45.7576 24.5593 45.7697 24.5714C45.7697 24.5714 45.7697 24.5714 45.7697 24.5593L45.8791 24.5472Z" fill="#D69D36"/>
<path d="M40.2781 18.0108C40.193 18.0957 40.0108 18.1321 40.0108 18.1321L39.95 18.3625L39.8528 18.4474C39.8528 18.4474 39.8771 18.508 39.8528 18.6535C39.8285 18.7991 39.6463 18.884 39.6463 18.884L39.5613 18.981C39.5613 18.981 39.0753 19.0052 39.0145 18.981C38.8323 18.8961 38.9538 18.6535 39.0753 18.6778C39.1968 18.7021 39.051 18.3261 39.051 18.3261L39.2089 18.3019C39.2089 18.3019 39.2332 17.938 39.294 17.938C39.3547 17.938 39.2697 17.8168 39.1968 17.7561C39.1117 17.6955 39.0145 17.4893 38.9295 17.5136C38.8445 17.5378 38.5286 17.5136 38.5286 17.5136L38.4678 17.6349L38.2491 17.6712C38.2491 17.6712 38.2734 17.8289 38.2248 17.8774C38.1033 18.0229 37.6417 18.3261 37.8361 17.8168L37.8968 17.6955V17.5136L37.5323 17.4893C37.5323 17.4893 37.3501 17.4287 37.3501 17.3438C37.3501 17.2589 37.3258 17.1619 37.3258 17.1619L36.9006 16.6889L36.3903 16.6283L36.3539 16.5313L36.0501 16.4949C35.6856 16.313 35.3576 16.4706 35.4184 16.7859C35.4791 17.0891 35.5763 17.2104 35.3819 17.2104C35.1754 17.2104 35.1389 17.0527 35.1389 17.0527C35.1389 17.0527 34.981 16.9921 34.981 17.077C34.981 17.1619 34.9202 17.3195 34.981 17.4044C35.0417 17.4893 34.8959 17.6106 34.8352 17.55C34.7744 17.4893 34.6165 17.3074 34.653 17.2468C34.6894 17.1861 34.3735 16.7981 34.6894 16.7374C35.0174 16.6768 34.6651 16.4949 34.7866 16.4464L34.9445 16.3615H35.1025L35.1997 16.2766L34.9324 16.2402L34.7744 16.216L34.4707 16.1917C34.167 16.3979 34.1062 16.6404 34.1062 16.6404C33.9483 16.9436 33.5595 16.5191 33.7053 16.3494C33.8511 16.1796 33.2558 16.3251 33.1586 16.41C33.0614 16.4949 32.7577 16.4464 32.7577 16.4464C32.6969 16.6283 32.4175 16.4221 32.4904 16.3008C32.5754 16.1796 32.5754 16.0947 32.5754 16.0947L32.4782 16.0704L32.3567 16.3008C32.0773 16.3008 31.9923 16.4585 32.053 16.5676C32.1137 16.6647 31.968 16.5434 31.9315 16.6889C31.8951 16.8344 31.9558 16.8344 32.0773 16.8951C32.1988 16.9557 32.0166 16.9557 32.1016 17.0527C32.1866 17.1498 32.4296 17.0527 32.2838 17.1983C32.138 17.3438 31.8586 17.2832 31.8586 17.2832C31.8343 17.4651 31.4577 17.4287 31.4091 17.3681C31.3726 17.3074 31.0689 16.9436 31.0689 16.9436L30.6801 16.9193C30.6437 16.6283 30.8624 16.7738 30.9474 16.5555C31.0325 16.3251 31.0689 15.9613 31.0689 15.9613C31.0689 15.9613 30.7409 15.937 30.7287 16.0462C30.7044 16.1432 30.51 16.216 30.51 16.216C30.51 16.216 30.3521 16.2766 30.4128 16.3615C30.4736 16.4464 30.2914 16.4828 30.2914 16.4828C30.2914 16.4828 30.3278 16.6162 30.2671 16.6647C30.1091 16.8344 29.696 16.6889 29.6353 16.6283L29.3923 16.5313L29.1493 16.3736L28.8699 16.4949L28.7848 16.5798H28.4811L28.4568 16.8223L29.0035 16.883L29.04 17.3923L28.8213 17.3195H28.6755L28.6148 17.1983L28.4933 17.174V17.6227L28.6148 17.7197L28.7119 17.8168L28.9185 17.841L28.9549 18.0836L29.4652 18.1078L29.526 18.2048L29.8297 18.2291L30.4128 18.8233L30.3764 19.0052L30.2792 19.0659C30.3157 19.2114 30.0119 19.1265 30.0119 19.1265V19.2478L30.1577 19.272L30.3035 19.3569L30.51 19.0052C30.7287 18.8597 30.8381 19.0659 30.8502 19.1872C30.8745 19.3084 30.753 19.2842 30.753 19.2842V19.5752L30.8745 19.6116C31.0811 19.8542 30.7895 19.9997 30.7895 19.9997L30.7287 20.2058C30.668 20.3878 30.4493 20.3514 30.4493 20.3514L30.3643 20.4727L30.1213 20.5333L30.5951 20.5939C30.6437 20.4241 30.7652 20.3878 30.8259 20.4727C30.8867 20.5575 30.8867 20.7031 30.8867 20.7031L31.0082 20.7273L30.9839 20.9577L31.1054 20.9941V21.649L31.2511 21.8067C31.4941 21.7096 31.4941 21.8673 31.3726 21.9522C31.2511 22.0371 31.3362 22.4009 31.3362 22.4009L31.239 22.4979V22.6677L31.1175 22.7526V22.983C30.911 22.886 30.668 22.9224 30.6072 22.983C30.425 22.8617 30.0362 22.8981 30.0362 23.0073C30.1577 23.1649 29.8904 23.2134 29.8904 23.2134L29.7446 23.3711C29.8418 23.5772 29.6474 23.6015 29.6474 23.6015V23.9896L29.4045 24.22L29.4288 24.7536C29.4288 24.8991 29.7325 24.9113 29.7932 24.8385C29.854 24.7536 30.097 25.0083 30.097 25.0083H30.2792L30.3157 24.6445L30.1942 24.5838V23.9896L30.4007 23.7592C30.6437 23.6743 30.5586 24.2928 30.5586 24.3534C30.5829 24.5838 30.6801 24.5596 30.7773 24.5111C30.9839 24.4262 30.8138 24.7415 30.6558 24.7172C30.4979 24.693 30.5951 24.9234 30.5951 24.9234L30.6923 24.9598L30.51 25.1053L30.3521 25.2872L30.1456 25.2266L29.9026 25.2023L29.8175 25.0568L29.6717 25.0325L29.6474 25.3236L29.5502 25.4449L29.3073 25.6874C29.6353 25.6874 29.2708 25.9178 29.1858 25.9178C29.368 25.9785 29.1615 26.1604 28.6998 26.0148V26.1604L28.5419 26.1846L28.6876 26.3423L28.8456 26.3665L28.7848 26.7182C28.7848 26.985 28.1166 26.8031 28.0559 26.7425L28.0316 27.1063L27.9101 27.1306L27.9344 27.3731L27.9101 27.7248L28.1288 27.6884V27.8339L28.6755 27.8582L29.4652 27.0214L29.9269 26.9244C29.9633 26.7182 30.1699 26.9608 30.1699 26.9608C30.3764 26.9365 30.4128 27.0821 30.4128 27.0821L30.6801 27.1184C30.8988 27.1791 30.7652 27.2033 30.7773 27.2882C30.8016 27.4095 30.8988 27.3731 30.8988 27.3731L30.9353 27.1063L31.0568 27.1306L30.9353 26.985L30.7166 26.888L30.4736 26.791C30.3157 26.5606 30.51 26.6091 30.6801 26.6333H30.9474C30.9474 26.6333 31.2511 27.0457 31.2511 27.1427C31.2511 27.2397 31.3969 27.264 31.3969 27.264L31.5792 27.2397L31.6399 27.3852H31.8222L31.8829 27.5065H32.2474L32.2717 27.3246L31.9315 27.264L31.9072 27.0578L31.6642 26.9972C31.5792 26.6455 31.725 26.5484 31.8222 26.7061L31.9437 26.7304L31.9072 26.4272L32.053 26.3908L32.0166 25.9663L31.8951 25.93V25.7844L32.4053 25.8087C32.3689 25.5419 32.4296 25.4206 32.4296 25.4206H32.5754L32.5997 25.5176L33.2193 25.5783L33.6567 25.081C33.6324 25.0447 33.7053 25.0204 33.6567 24.9719C33.596 24.9113 33.5109 24.9719 33.4137 24.9113C33.3165 24.8506 33.4137 24.4989 33.3894 24.4262C33.3651 24.3413 33.7296 24.22 33.6689 24.4019C33.6081 24.5838 33.6689 24.6687 33.6689 24.6687C33.9361 24.4262 34.1548 24.693 34.1305 24.7536C34.1062 24.8142 34.2763 24.8749 34.3735 24.8142C34.4707 24.7536 34.5922 24.9961 34.5558 25.1174C34.5193 25.2387 34.1548 25.2144 34.1305 25.0932C34.1062 24.9719 34.0455 25.0083 34.009 25.0689C33.9726 25.1295 33.7904 25.1659 33.681 25.1053C33.6567 25.0932 33.6567 25.081 33.6446 25.0689L33.2072 25.5661H33.2315C33.4745 25.7117 33.353 25.8936 33.2679 25.93C33.1829 25.9663 33.0492 25.9663 33.0492 25.9663L33.0128 26.0512L32.4904 26.0876L32.4539 26.2938C32.1866 26.2574 32.0894 26.5363 32.1502 26.6818C32.2109 26.8274 32.1502 26.9486 32.1502 26.9486L32.3689 27.0457L32.6483 26.9608C32.6848 26.7546 32.867 26.7182 33.0371 26.597C33.195 26.4757 33.4623 26.8274 33.3773 26.985C33.2922 27.1427 33.2922 27.2155 33.2922 27.2155L33.3165 27.3974L33.11 27.4823L32.9521 27.5671L32.9278 27.6642H32.381L32.2838 27.7612L32.0166 27.7854L31.9315 27.9067L31.7493 27.931C31.7493 27.931 31.4455 28.0765 31.567 28.2341C31.6885 28.4039 31.0568 28.3797 30.9231 28.1493C30.8867 28.3554 30.6558 28.1735 30.6558 28.1735L30.4371 28.1129L30.4128 27.8097C30.3764 27.6035 29.9876 27.6035 30.0119 27.7491C30.0362 27.8946 29.283 27.8097 29.283 27.8097L29.04 27.931L28.8213 28.0644L28.797 28.1614L28.4325 28.1978L28.2746 28.2827L28.2138 28.1614H28.0559L27.8979 28.3918C27.4727 28.4161 27.0718 28.6586 27.1082 28.7556C27.1447 28.8526 26.9503 28.9618 26.9503 28.9618L26.7681 29.0224L26.6466 29.2043L26.4036 29.2892L26.3671 29.7137L26.2456 29.7986V29.9805L26.0999 30.0169V30.1139L25.8933 30.1381L26.0148 30.4413L26.1727 30.5262C26.4522 30.5626 26.3307 30.9143 26.3307 30.9143L26.4886 30.9385L26.5737 31.169L26.7316 31.4964C26.7924 31.739 26.9746 31.6783 27.0596 31.6662C27.1447 31.6419 27.2176 31.9087 27.2176 31.9087L28.0194 31.933C28.0194 31.933 27.983 32.0179 28.1166 32.0543C28.2624 32.0906 29.1858 32.1392 29.2222 32.0785C29.1858 31.8966 29.7325 31.8481 29.9512 32.0179C30.1699 32.1755 30.4736 32.0785 30.4736 32.0785L30.7773 32.4423L30.9839 32.891L31.324 32.9881L31.567 33.0487L31.6521 33.4004L31.8343 33.4247L31.8951 33.6551C32.1137 33.8127 31.8343 34.1644 31.8343 34.1644V34.6131L31.9923 34.698L31.968 34.8678L32.2352 35.1346L32.539 35.1589L33.3044 35.9714L33.9118 36.1533L34.009 36.4807L34.167 36.4565L34.2885 36.3595L34.7744 36.3352L35.0174 36.1048L35.2847 36.0684L37.5323 34.1644L37.3258 34.0431V33.5944C37.6903 33.3276 37.7146 32.8547 37.3622 32.8183C37.1071 32.7819 37.2165 32.5151 37.4594 32.4666L37.6052 32.406V32.224L38.0669 31.7996V31.4721L37.0585 30.6354C36.609 30.4777 37.0585 29.4954 37.3622 29.5075C37.666 29.5318 37.3379 27.9916 37.3379 27.9916L37.18 27.9067L37.2165 27.4095H36.9978L36.6333 27.8825L36.5361 28.2099C36.4996 28.6344 35.2483 28.5616 35.1875 28.5009C35.1268 28.4403 34.7015 28.2584 34.7015 28.2584C34.7015 28.2584 34.3735 27.9916 34.3128 28.0765C34.252 28.1614 33.9726 27.9795 33.9726 28.0401C33.9726 28.1007 33.7053 27.8946 33.7053 27.8946L33.3044 27.7491L33.6081 27.6884L33.5474 27.4459L34.0698 27.7127C34.1305 27.7976 34.3978 27.7733 34.3978 27.7733L34.4829 27.8703C34.4829 27.8703 34.6408 27.8461 34.7501 27.9673C34.8473 28.0886 35.3819 27.9916 35.3819 27.9916L35.5277 28.1129L35.7464 28.1978L36.3782 28.222L36.4024 27.8339L36.5239 27.7127L36.4996 27.4701L36.6454 27.3489V27.1427L36.7669 27.1063L36.7912 26.6576L36.8884 26.6333V25.651L36.5847 25.36C36.5604 25.457 36.2445 25.457 36.2445 25.457C36.2445 25.457 36.1595 25.6025 36.0987 25.6025C36.038 25.6025 36.1838 25.7844 36.1352 25.9057C36.0987 26.027 35.9286 26.027 35.9286 26.027L35.6249 26.1119L35.5398 26.2089H35.2118L35.1754 25.9421L35.5398 25.8451L35.7464 25.748L35.8436 25.5419C35.8679 25.3357 36.1109 25.36 36.1109 25.36C36.1109 25.36 36.5725 24.9719 36.5968 24.79C36.6211 24.6081 36.7791 24.0987 37.0585 24.0987H37.5809C37.7875 24.0138 37.7267 23.747 37.7267 23.747L37.994 23.7107L38.0305 23.8562C38.0305 23.8562 38.3949 23.8926 38.4314 23.8319C38.4678 23.7713 38.5529 23.6258 38.6501 23.6864C38.7473 23.747 39.0753 23.5409 39.0753 23.5409C39.0996 23.3953 39.5977 23.456 39.5977 23.456L39.6585 23.2741C39.6585 23.2741 39.3183 22.8011 39.2575 22.8011C39.1968 22.8011 38.8688 22.51 38.8323 22.6192C38.5043 22.5343 38.5286 22.0856 38.5286 22.0856L38.4071 21.7945C38.4071 21.6247 38.1033 21.2852 38.0426 21.3216C37.7389 21.0911 37.9576 20.8365 38.0426 20.8122C38.1276 20.788 38.322 20.509 38.322 20.509L38.4192 20.218L38.7594 20.121L38.7959 19.8542L38.6136 19.8299C38.6136 19.8299 38.8202 19.4661 38.9174 19.4661C39.0145 19.4661 39.6828 19.4661 39.7435 19.4297C39.8043 19.3933 39.9257 19.0659 39.9257 19.0052C39.9257 18.9446 40.0837 18.9204 40.1444 18.9082C40.2052 18.884 40.351 18.7263 40.3874 18.6414C40.4968 18.4353 40.3631 17.9259 40.2781 18.0108Z" fill="#D69D36"/>
<path d="M29.0884 25.3831C29.1127 25.3589 29.1492 25.4801 29.2099 25.4559C29.2707 25.4438 29.295 25.565 29.2342 25.565C29.1735 25.565 29.1735 25.6378 29.1735 25.6742C29.1735 25.7106 29.1735 25.7833 29.1249 25.8318C29.0763 25.8803 29.0398 25.844 28.9791 25.8197C28.9183 25.7833 28.894 25.7833 28.809 25.7833C28.7361 25.7833 28.7968 25.9046 28.7968 25.9046C28.7968 25.9046 28.4809 25.8925 28.5417 25.844C28.6024 25.7955 28.6632 25.7833 28.6146 25.7469C28.566 25.7106 28.6146 25.6863 28.6146 25.6257C28.6146 25.565 28.7604 25.5893 28.7239 25.5529C28.6753 25.5044 28.7239 25.3346 28.7968 25.4316L28.8454 25.3225C28.7968 25.274 28.8333 25.2619 28.7361 25.2255C28.651 25.1891 28.7239 25.0072 28.7239 25.0072L28.7361 24.8859C28.7604 24.7283 29.0641 24.7161 29.0884 24.8495C29.1006 24.9829 29.0884 25.0799 29.0884 25.0799L29.1735 25.1163C29.1735 25.1163 29.1613 25.2133 29.0884 25.2133C29.0155 25.2133 29.0884 25.2619 29.0398 25.3104L29.0884 25.3831Z" fill="#D69D36"/>
<path d="M28.093 25.5414C28.1416 25.4443 28.2388 25.0563 28.3603 25.1775C28.4818 25.2988 28.5547 25.1775 28.5547 25.1775C28.5547 25.1775 28.6154 25.2382 28.579 25.3594C28.5547 25.4807 28.5182 25.602 28.4453 25.6262C28.3725 25.6384 28.3117 25.6869 28.2145 25.699C28.1416 25.7111 28.093 25.5414 28.093 25.5414Z" fill="#D69D36"/>
</svg>
