<svg width="153" height="49" viewBox="0 0 153 49" fill="none" xmlns="http://www.w3.org/2000/svg">
<path d="M8.74007 36.1703H1.62188L1.71378 32.75V11.3789C1.70346 10.4188 1.64211 9.45987 1.52999 8.50626C1.48406 8.05107 1.38348 7.60307 1.23041 7.17194C1.04608 6.81117 0.832153 6.4663 0.59082 6.14088L0.9584 5.16128H8.83931L17.5252 5.02344C18.071 5.83562 18.4 6.77388 18.4809 7.74905C18.5851 8.73998 18.4632 9.74164 18.1244 10.6787H17.0419C16.9022 10.0097 16.3876 9.43992 15.498 8.96941C14.6232 8.50221 13.6548 8.23717 12.664 8.19381L8.51584 8.01002C8.3149 11.5976 8.21504 15.1619 8.21626 18.7029H14.1141C14.5895 18.7029 14.9571 18.6956 15.2168 18.6809C15.545 18.6493 15.8672 18.5726 16.1744 18.453C16.5322 18.3268 16.8583 18.1242 17.1301 17.8593C17.2315 18.3852 17.285 18.9191 17.29 19.4546C17.29 21.3856 15.854 22.3512 12.9819 22.3512C12.3975 22.3512 11.568 22.3358 10.4934 22.3052C9.41886 22.2746 8.64327 22.2593 8.16664 22.2593C8.15194 24.281 8.17522 26.5005 8.23648 28.918L8.30448 32.5662L8.42027 34.0255C8.44353 34.7504 8.55085 35.4702 8.74007 36.1703Z" fill="#11237D"/>
<path d="M29.8024 26.002C29.8024 30.3493 29.9715 33.739 30.3097 36.1711H23.6932L23.9469 20.2568C23.9565 19.3875 23.8715 18.5198 23.6932 17.669C23.5843 17.085 23.3898 16.5202 23.1161 15.9928C22.9252 15.6579 22.6841 15.3542 22.4012 15.0923C22.2289 14.9168 22.0266 14.7737 21.8039 14.6696C21.7146 14.6353 21.6214 14.6125 21.5264 14.6016V13.7579C23.3263 12.6626 25.0251 12.1149 26.6229 12.1149C28.897 12.1149 30.0334 13.5968 30.0322 16.5607C30.0322 17.0165 29.9942 17.7879 29.9182 18.8747C29.841 19.9627 29.8024 20.8081 29.8024 21.4165V26.002ZM23.1437 6.1417C23.1362 5.70963 23.2188 5.28075 23.3862 4.88236C23.5536 4.48397 23.8021 4.12481 24.116 3.82778C24.4206 3.52158 24.7838 3.27996 25.1839 3.11733C25.584 2.9547 26.0127 2.87441 26.4446 2.88126C26.8602 2.87719 27.2722 2.95918 27.6546 3.12207C28.037 3.28497 28.3816 3.52524 28.6666 3.82778C28.9708 4.13013 29.2104 4.49115 29.3709 4.88891C29.5314 5.28667 29.6095 5.71288 29.6003 6.1417C29.6059 6.55394 29.5258 6.96285 29.3651 7.34251C29.2044 7.72217 28.9665 8.0643 28.6666 8.34717C28.3773 8.64219 28.0313 8.87567 27.6495 9.03359C27.2676 9.19151 26.8578 9.27061 26.4446 9.26612C25.5772 9.28065 24.7396 8.95011 24.116 8.34717C23.8067 8.06962 23.56 7.7294 23.3924 7.34913C23.2247 6.96886 23.14 6.55726 23.1437 6.1417Z" fill="#11237D"/>
<path d="M59.5269 34.3522V35.3777C57.6682 36.3187 55.9406 36.7899 54.3441 36.7911C53.5378 36.7714 52.7511 36.5394 52.0632 36.1184C51.2953 35.6883 50.6883 35.0199 50.3338 34.2143C48.2925 35.9297 46.1728 36.7874 43.9746 36.7874C42.7589 36.7949 41.5521 36.5788 40.4146 36.1497C39.2782 35.7095 38.2373 35.0542 37.349 34.2199C36.419 33.3622 35.6839 32.192 35.1435 30.7095C34.6032 29.2269 34.3342 27.5115 34.3367 25.5633C34.3389 24.2722 34.4975 22.9861 34.809 21.7332C35.1303 20.447 35.625 19.2104 36.2793 18.0574C36.9159 16.9077 37.7088 15.8518 38.6355 14.9201C39.587 13.9826 40.7144 13.2425 41.9529 12.7422C43.2811 12.195 44.7051 11.9188 46.1415 11.9298C46.8933 11.9446 47.6419 12.0333 48.3764 12.1945C49.2341 12.3685 49.6629 12.4861 49.6629 12.5473C49.6629 11.5892 49.655 10.7039 49.639 9.89158C49.6231 9.07923 49.6004 8.33795 49.571 7.66773C49.5471 7.06779 49.4814 6.47026 49.3744 5.87945C49.2907 5.40968 49.1558 4.95052 48.9719 4.51022C48.814 4.13385 48.5752 3.79683 48.2725 3.52304C47.9698 3.24925 47.6106 3.04541 47.2204 2.92595V2.08235L47.8655 1.7405C48.4441 1.43834 49.0543 1.20104 49.685 1.03292C50.4179 0.812654 51.1785 0.697548 51.9438 0.691058C52.5178 0.678444 53.0911 0.740221 53.6493 0.874848C54.1058 1.0046 54.5219 1.24807 54.8587 1.58245C55.2599 2.00802 55.5348 2.53684 55.6526 3.10974C55.8417 3.95334 55.9287 4.8166 55.9118 5.68096V6.2746C55.9118 6.54906 55.8738 7.58257 55.7978 9.37513C55.7219 11.1677 55.6404 13.3671 55.5534 15.9732C55.4688 18.5732 55.4266 20.998 55.4266 23.2476C55.4266 24.5403 55.4339 25.6001 55.4486 26.4272C55.4633 27.2542 55.4946 28.0831 55.5424 28.9138C55.5707 29.5659 55.6321 30.2161 55.7262 30.862C55.8034 31.337 55.9152 31.8056 56.0607 32.2643C56.157 32.6318 56.325 32.9765 56.555 33.2788C56.7646 33.5134 57.0096 33.7137 57.281 33.8725C57.5814 34.0559 57.9138 34.1806 58.2606 34.2401C58.6798 34.3056 59.1028 34.3431 59.5269 34.3522ZM46.4172 33.4167C47.6621 33.4167 48.6833 33.1355 49.481 32.5731L49.5288 27.2138V15.5799C47.8379 15.1694 46.5783 14.9642 45.75 14.9642C44.8257 14.9492 43.9263 15.2646 43.2137 15.8537C42.4746 16.4727 41.91 17.2742 41.5762 18.1787C41.2133 19.111 40.9437 20.0769 40.7712 21.0623C40.6029 22.0261 40.518 23.0026 40.5175 23.9809C40.5175 26.9448 41.0628 29.2588 42.1533 30.9227C43.2438 32.5866 44.6651 33.4161 46.4172 33.4112V33.4167Z" fill="#11237D"/>
<path d="M80.2224 23.1508L79.8052 23.3254C79.0223 23.6305 77.9624 23.7831 76.6257 23.7831L66.1662 23.6452C66.1956 23.9944 66.2121 24.5734 66.2121 25.3784C66.2722 27.6427 66.9595 29.4193 68.2742 30.7083C69.589 31.9973 71.0519 32.6436 72.6632 32.6473C74.1151 32.6347 75.5475 32.312 76.8646 31.7008C78.2859 31.0624 79.5338 29.9529 80.6084 28.3723C80.8695 29.3008 80.8695 30.2834 80.6084 31.2119C80.3575 32.0982 79.8858 32.9064 79.2373 33.5607C78.5418 34.2535 77.7456 34.8372 76.8756 35.292C75.9309 35.7954 74.9235 36.1712 73.8798 36.4095C72.8151 36.6566 71.7253 36.7799 70.6323 36.777C69.3025 36.7886 67.9809 36.5684 66.7267 36.1264C65.5178 35.6916 64.4044 35.0269 63.4479 34.1691C62.4677 33.2967 61.6884 32.1229 61.1101 30.6476C60.5318 29.1724 60.2359 27.4773 60.2224 25.5622C60.2224 23.0553 60.6562 20.783 61.5236 18.7454C62.3911 16.7078 63.6452 15.0941 65.2858 13.9044C66.9107 12.7153 68.8782 12.087 70.8914 12.1143C72.0166 12.0996 73.138 12.2494 74.2198 12.559C75.0884 12.7981 75.913 13.1747 76.6624 13.6746C77.3033 14.1286 77.8626 14.6879 78.3165 15.3287C78.7384 15.899 79.0936 16.5156 79.3752 17.1666C79.6259 17.7876 79.8107 18.4332 79.9265 19.0928C80.036 19.6507 80.117 20.2138 80.1691 20.78C80.2004 21.199 80.2151 21.6272 80.2151 22.0665L80.2224 23.1508ZM70.5918 14.9648C69.9925 14.9556 69.4048 15.1307 68.9083 15.4666C68.3786 15.846 67.9517 16.3513 67.6659 16.9369C67.3262 17.5847 67.0445 18.2612 66.8241 18.9586C66.5734 19.7783 66.3697 20.6116 66.214 21.4545C67.1207 21.4398 68.4874 21.3944 70.3143 21.3185C72.1412 21.2425 73.5545 21.1966 74.5543 21.1806C74.5401 20.4482 74.4552 19.7188 74.3007 19.0027C74.1521 18.3124 73.9201 17.6428 73.6097 17.0086C73.3264 16.4143 72.8986 15.9005 72.3654 15.5144C71.8476 15.1475 71.2264 14.9551 70.5918 14.9648Z" fill="#11237D"/>
<path d="M92.2739 36.1701H85.6575C85.7493 31.3916 85.7953 26.9683 85.7953 22.9005L85.9111 8.23953C85.9111 6.70305 85.6617 5.47778 85.1631 4.56374C84.6644 3.64969 84.1087 3.10322 83.4961 2.92433V2.08073L84.1412 1.73889C84.7363 1.43777 85.3616 1.20059 86.0067 1.0313C86.7553 0.810831 87.531 0.695777 88.3114 0.689453C89.7817 0.689453 90.7956 1.06989 91.3531 1.83078C91.9106 2.59167 92.1869 3.76181 92.182 5.34118C92.182 6.29933 92.1361 7.39411 92.0442 8.6255C91.8481 11.9558 91.7501 16.0451 91.7501 20.8935V26.8446C91.7501 28.5465 91.7887 30.1957 91.8659 31.7922C91.9279 33.2575 92.0641 34.7186 92.2739 36.1701Z" fill="#11237D"/>
<path d="M104.906 26.002C104.906 30.3493 105.075 33.739 105.414 36.1711H98.7971L99.0526 20.2567C99.0626 19.3874 98.977 18.5196 98.7971 17.669C98.6895 17.0848 98.4956 16.52 98.2219 15.9928C98.0309 15.6579 97.7898 15.3542 97.5069 15.0923C97.3344 14.9163 97.1314 14.773 96.9078 14.6695C96.8192 14.6351 96.7265 14.6122 96.6321 14.6015V13.7579C98.4308 12.6625 100.129 12.1149 101.727 12.1149C104.001 12.1149 105.137 13.5968 105.136 16.5607C105.136 17.0165 105.098 17.7878 105.022 18.8747C104.945 19.9627 104.906 20.8081 104.906 21.4165V26.002ZM98.2476 6.14168C98.2394 5.71002 98.3211 5.28138 98.4875 4.88301C98.654 4.48465 98.9015 4.12528 99.2143 3.82776C99.5186 3.52171 99.8815 3.28015 100.281 3.11752C100.681 2.9549 101.11 2.87454 101.541 2.88125C101.957 2.87714 102.369 2.95911 102.752 3.122C103.135 3.28489 103.48 3.52517 103.765 3.82776C104.069 4.13012 104.309 4.49113 104.469 4.88889C104.63 5.28665 104.708 5.71286 104.699 6.14168C104.704 6.55392 104.624 6.96283 104.463 7.34249C104.303 7.72216 104.065 8.06428 103.765 8.34716C103.475 8.64223 103.129 8.87573 102.747 9.03364C102.365 9.19156 101.955 9.27063 101.541 9.26611C100.674 9.28035 99.8374 8.94981 99.2143 8.34716C98.906 8.0691 98.6604 7.72865 98.4937 7.34841C98.3271 6.96816 98.2432 6.55682 98.2476 6.14168Z" fill="#11237D"/>
<path d="M119.236 8.71875L118.705 12.5949H123.116C123.615 12.5905 124.113 12.5332 124.601 12.4239C125.133 12.31 125.467 12.1164 125.604 11.8432C125.702 12.2074 125.748 12.5835 125.742 12.9606C125.742 14.8291 124.391 15.764 121.688 15.7652C121.443 15.7652 120.932 15.742 120.155 15.6954C119.378 15.6488 118.852 15.6262 118.576 15.6274V26.1384C118.561 26.5794 118.561 27.0444 118.576 27.5296C118.591 28.0148 118.611 28.4982 118.633 28.9779C118.654 29.4414 118.732 29.9006 118.865 30.3453C118.981 30.7451 119.147 31.1286 119.359 31.4866C119.57 31.8226 119.869 32.0946 120.223 32.2733C120.634 32.478 121.089 32.5796 121.548 32.5692C122.557 32.5604 123.559 32.4025 124.522 32.1005C125.549 31.7899 126.196 31.3764 126.457 30.8581C126.655 31.3187 126.736 31.8214 126.691 32.3209C126.647 32.8204 126.479 33.301 126.203 33.7197C125.636 34.6546 124.749 35.3995 123.542 35.9546C122.324 36.5124 120.998 36.7966 119.659 36.7871C118.217 36.7871 117.023 36.6199 116.077 36.2854C115.213 36.0099 114.459 35.4674 113.923 34.736C113.426 34.0272 113.081 33.224 112.908 32.3762C112.707 31.3051 112.614 30.2164 112.632 29.1268C112.632 27.9714 112.709 26.256 112.862 23.9807C113.015 21.7053 113.092 20.0408 113.092 18.9871C113.092 17.1933 112.954 16.1218 112.678 15.7726C112.067 14.9936 111.247 14.405 110.313 14.0762L110.543 12.6868C110.73 12.6787 110.915 12.6479 111.094 12.5949C111.462 12.4822 111.82 12.3415 112.166 12.174C112.77 11.8635 113.316 11.4506 113.779 10.9536C114.432 10.2831 114.996 9.53209 115.459 8.71875H119.236Z" fill="#11237D"/>
<path d="M141.209 36.1256L140.657 35.8977C140.194 35.6974 139.775 35.4069 139.426 35.043C138.989 34.6357 138.667 34.1203 138.492 33.5488L134.366 20.5696C134.102 19.6862 133.767 18.8257 133.364 17.9965C133.072 17.3773 132.724 16.7856 132.326 16.2285C132.048 15.8511 131.736 15.4999 131.394 15.179C131.18 14.9752 130.948 14.7907 130.701 14.6276C130.595 14.5585 130.479 14.5047 130.358 14.4677L130.31 13.6242C130.948 13.1854 131.641 12.8331 132.372 12.5765C133.103 12.2877 133.88 12.1315 134.666 12.1152C135.988 12.1152 136.955 12.4265 137.568 13.0489C138.18 13.6713 138.67 14.6669 139.038 16.0355C139.344 17.7999 140.573 21.6594 142.725 27.6142L143.289 28.7648C143.635 29.4717 143.823 29.8712 143.853 29.9631L144.083 29.0055C144.206 28.4549 144.368 27.9138 144.568 27.3863L147.54 18.9724C147.97 17.7729 148.185 16.7927 148.185 16.0318C148.185 15.2709 147.924 14.7465 147.402 14.4586L147.309 13.615C148.373 12.7012 149.714 12.1729 151.115 12.1152C152.218 12.1152 152.769 12.6929 152.769 13.8484C152.769 14.6534 152.377 16.0214 151.593 17.9524L142.199 40.8453C141.861 41.6662 141.577 42.3315 141.346 42.8412C141.116 43.3509 140.819 43.9526 140.455 44.646C140.153 45.2414 139.778 45.797 139.339 46.3002C138.929 46.7431 138.486 47.1547 138.014 47.5316C137.512 47.9402 136.932 48.2428 136.309 48.4211C135.631 48.6082 134.931 48.6985 134.228 48.6894C132.814 48.6894 131.704 48.1577 130.898 47.0941C130.092 46.0306 129.847 44.7079 130.163 43.1261C130.47 43.5059 130.966 43.8178 131.65 44.0616C132.311 44.3015 133.008 44.4259 133.712 44.4292C134.878 44.4292 135.873 44.2129 136.695 43.7804C137.478 43.3877 138.095 42.7281 138.435 41.9204L140.641 37.1107L141.209 36.1256Z" fill="#11237D"/>
</svg>
