<svg width="7" height="11" viewBox="0 0 7 11" fill="none" xmlns="http://www.w3.org/2000/svg">
<path d="M4.2412 5.46018L0.584201 1.80318C0.511113 1.73663 0.452122 1.65608 0.410718 1.56632C0.369315 1.47655 0.346341 1.3794 0.343157 1.2806C0.339972 1.1818 0.356642 1.08336 0.392179 0.991119C0.427717 0.898877 0.481399 0.814701 0.550049 0.743575C0.618699 0.67245 0.700921 0.61582 0.791847 0.577039C0.882774 0.538257 0.980557 0.518112 1.07941 0.517796C1.17826 0.517479 1.27617 0.536997 1.36734 0.575196C1.45851 0.613395 1.5411 0.669497 1.6102 0.740182L1.6282 0.758182L5.8082 4.93718C5.94676 5.07577 6.0246 5.26371 6.0246 5.45968C6.0246 5.65565 5.94676 5.8436 5.8082 5.98218L1.6292 10.1612C1.56177 10.231 1.48125 10.2868 1.39224 10.3255C1.30322 10.3642 1.20747 10.3849 1.11043 10.3866C1.01339 10.3883 0.916976 10.3708 0.826685 10.3352C0.736395 10.2996 0.653999 10.2466 0.584201 10.1792C0.514404 10.1117 0.458572 10.0312 0.419893 9.94222C0.381214 9.85321 0.360446 9.75745 0.358775 9.66041C0.357103 9.56337 0.374561 9.46696 0.410151 9.37667C0.445742 9.28638 0.498767 9.20398 0.566201 9.13418L0.584201 9.11618L4.2412 5.46018Z" fill="#151617" stroke="#151617" stroke-width="0.5"/>
</svg>
