<svg width="235" height="48" viewBox="0 0 235 48" fill="none" xmlns="http://www.w3.org/2000/svg">
<g clip-path="url(#clip0_2462_23039)">
<path d="M0.206055 3.55356C0.208265 3.20137 0.349724 2.86435 0.599548 2.6161C0.849372 2.36784 1.18727 2.22851 1.53946 2.22852H5.5397C5.89334 2.22852 6.2325 2.369 6.48256 2.61906C6.73262 2.86912 6.87311 3.20828 6.87311 3.56193V27.5522C6.87311 27.9058 7.01359 28.245 7.26366 28.495C7.51372 28.7451 7.85288 28.8856 8.20652 28.8856H25.5436C25.8973 28.8856 26.2364 28.7451 26.4865 28.495C26.7366 28.245 26.8771 27.9058 26.8771 27.5522V23.5575C26.8771 23.2039 26.7366 22.8647 26.4865 22.6146C26.2364 22.3646 25.8973 22.2241 25.5436 22.2241H17.5432C16.4823 22.2241 15.4648 21.8026 14.7146 21.0525C13.9644 20.3023 13.543 19.2848 13.543 18.2239V6.22875C13.543 5.16782 13.9644 4.15035 14.7146 3.40016C15.4648 2.64997 16.4823 2.22852 17.5432 2.22852H29.5383C30.5992 2.22852 31.6167 2.64997 32.3669 3.40016C33.1171 4.15035 33.5385 5.16782 33.5385 6.22875V31.5663C33.5385 32.6273 33.1171 33.6448 32.3669 34.3949C31.6167 35.1451 30.5992 35.5666 29.5383 35.5666H4.20629C3.14536 35.5666 2.12788 35.1451 1.3777 34.3949C0.627506 33.6448 0.206055 32.6273 0.206055 31.5663V3.55356ZM26.8771 10.2206C26.8771 9.86697 26.7366 9.52781 26.4865 9.27775C26.2364 9.02768 25.8973 8.8872 25.5436 8.8872H20.21V14.2236C20.21 14.5773 20.3505 14.9164 20.6006 15.1665C20.8506 15.4166 21.1898 15.557 21.5434 15.557H26.8771V10.2206Z" fill="url(#paint0_linear_2462_23039)"/>
<path d="M47.7878 -0.00390625V37.0694H54.2038V-0.00390625H47.7878ZM85.7928 26.3072C86.7999 15.5395 81.3295 10.1278 72.587 10.1278C64.1012 10.1278 58.6922 15.8548 58.6922 23.8106C58.6922 32.1793 64.0482 37.7584 73.0641 37.7584C77.042 37.7584 81.5499 36.3803 84.3088 33.5155L80.1719 29.4316C78.6878 30.9686 75.5579 31.8724 73.1701 31.8724C68.6091 31.8724 65.7973 29.5376 65.3732 26.2933L85.7928 26.3072ZM65.4792 20.9513C66.4333 17.5564 69.2982 15.8603 72.7991 15.8603C76.512 15.8603 79.162 17.5564 79.5889 20.9513H65.4792ZM116.5 37.0722V23.3364C116.5 15.1155 111.568 10.5044 105.415 10.5044C102.126 10.5044 99.4756 11.8294 96.8228 14.4293L96.4015 10.8754H90.6188V37.075H97.0348V23.7074C97.0348 19.7295 99.7406 16.3876 103.73 16.3876C107.867 16.3876 110.043 19.4114 110.043 23.3894V37.0722H116.5ZM134.736 16.3346C138.82 16.3346 142.321 19.4031 142.321 23.9724C142.321 28.6923 138.82 31.6632 134.736 31.6632C130.599 31.6632 127.31 28.5333 127.31 23.9724C127.313 19.2441 130.602 16.3346 134.736 16.3346ZM142.747 -0.00390625V14.4767C141.21 11.7708 136.914 10.2924 134.155 10.2924C126.518 10.2924 120.844 14.9593 120.844 23.9752C120.844 32.567 126.624 37.658 134.314 37.658C137.497 37.658 140.73 36.5979 142.747 33.4736L143.171 37.0805H149.219V-0.00390625H142.747ZM175.533 13.6315C172.509 10.9786 169.435 10.1836 165.348 10.1836C160.575 10.1836 154.316 12.3064 154.316 18.3514C154.316 24.2904 160.204 26.0952 165.136 26.4663C168.849 26.6783 170.333 27.4203 170.333 29.2251C170.333 31.1332 168.051 32.408 165.613 32.355C162.695 32.302 158.453 30.765 156.597 28.6951L153.426 33.3063C157.245 37.2842 161.382 37.9732 165.519 37.9732C172.997 37.9732 176.763 33.9953 176.763 29.3814C176.763 22.4326 170.503 21.3195 165.572 21.0127C162.224 20.8006 160.693 19.8466 160.693 18.1478C160.693 16.5047 162.389 15.5479 165.466 15.5479C167.959 15.5479 170.079 16.1309 171.935 17.8828L175.533 13.6315ZM193.523 31.4512C189.121 31.4512 186.097 28.1037 186.097 24.0254C186.097 19.947 188.856 16.5996 193.523 16.5996C198.19 16.5996 200.949 19.947 200.949 24.0254C200.949 28.1037 197.925 31.4512 193.523 31.4512ZM208.004 47.9989V10.9256H201.964L201.54 14.5325C199.526 11.6146 196.025 10.3482 193.054 10.3482C184.992 10.3482 179.637 16.3401 179.637 24.031C179.637 31.6688 184.462 37.7138 192.842 37.7138C195.601 37.7138 199.685 36.8769 201.54 34.0009V48.0017L208.004 47.9989ZM213.68 10.9256V37.0722H220.152V23.2834C220.152 18.4574 223.282 16.6526 226.677 16.6526C228.8 16.6526 230.024 17.2356 231.344 18.3486L234.262 12.7277C232.831 11.2966 230.231 10.2338 227.525 10.2338C224.872 10.2338 222.169 10.7108 220.152 13.9467L219.675 10.9228L213.68 10.9256Z" fill="#213F7D"/>
</g>
<defs>
<linearGradient id="paint0_linear_2462_23039" x1="-2.57514" y1="50.2201" x2="32.2637" y2="-7.62143" gradientUnits="userSpaceOnUse">
<stop stop-color="#213F7D"/>
<stop offset="1" stop-color="#39CDCC"/>
</linearGradient>
<clipPath id="clip0_2462_23039">
<rect width="234.061" height="48" fill="white" transform="translate(0.206055)"/>
</clipPath>
</defs>
</svg>
