<svg width="34" height="34" viewBox="0 0 34 34" fill="none" xmlns="http://www.w3.org/2000/svg">
<path d="M16.9999 0.333984C17.6249 0.333984 18.2416 0.367318 18.8499 0.435651C19.0675 0.459727 19.2782 0.526417 19.4699 0.631916C19.6617 0.737414 19.8309 0.879654 19.9677 1.05051C20.1045 1.22137 20.2063 1.41751 20.2673 1.62772C20.3283 1.83793 20.3473 2.05809 20.3233 2.27565C20.2992 2.49321 20.2325 2.70389 20.127 2.89567C20.0215 3.08746 19.8792 3.25658 19.7084 3.39339C19.5375 3.53021 19.3414 3.63202 19.1312 3.69304C18.921 3.75405 18.7008 3.77306 18.4833 3.74898C15.7367 3.44172 12.9625 3.99555 10.5444 5.33386C8.1263 6.67216 6.18384 8.72881 4.9857 11.2193C3.78755 13.7098 3.39292 16.5111 3.8564 19.2357C4.31989 21.9603 5.61857 24.4735 7.57282 26.4277C9.52707 28.382 12.0403 29.6807 14.7649 30.1442C17.4895 30.6076 20.2908 30.213 22.7813 29.0149C25.2718 27.8167 27.3284 25.8743 28.6667 23.4562C30.005 21.0381 30.5588 18.2639 30.2516 15.5173C30.2275 15.2998 30.2465 15.0796 30.3075 14.8694C30.3685 14.6592 30.4704 14.463 30.6072 14.2922C30.8835 13.9471 31.2855 13.7259 31.7249 13.6773C32.1643 13.6287 32.605 13.7566 32.9501 14.0329C33.1209 14.1697 33.2632 14.3388 33.3687 14.5306C33.4742 14.7224 33.5408 14.9331 33.5649 15.1507C33.6316 15.759 33.6666 16.3757 33.6666 17.0007C33.6666 26.2057 26.2049 33.6673 16.9999 33.6673C7.79492 33.6673 0.333252 26.2057 0.333252 17.0007C0.333252 7.79565 7.79492 0.333984 16.9999 0.333984ZM16.9466 10.129C17.0564 10.5569 16.9919 11.0108 16.7672 11.3912C16.5425 11.7715 16.176 12.0471 15.7483 12.1573C14.573 12.4652 13.55 13.1901 12.87 14.1968C12.19 15.2036 11.8995 16.4233 12.0528 17.6285C12.206 18.8336 12.7925 19.9419 13.7028 20.7464C14.6131 21.5509 15.7851 21.9967 16.9999 22.0007C18.1083 22.0002 19.1852 21.6317 20.0615 20.9529C20.9378 20.2742 21.5639 19.3237 21.8416 18.2507C21.9521 17.8225 22.2281 17.4559 22.609 17.2313C22.9898 17.0067 23.4443 16.9426 23.8724 17.0532C24.3005 17.1637 24.6672 17.4397 24.8918 17.8206C25.1163 18.2014 25.1804 18.6559 25.0699 19.084C24.5586 21.0439 23.3513 22.7506 21.6735 23.8853C19.9957 25.02 17.9622 25.505 15.9529 25.2498C13.9435 24.9946 12.0958 24.0166 10.7549 22.4985C9.41404 20.9805 8.6717 19.0261 8.66658 17.0007C8.66687 15.1531 9.28087 13.358 10.4121 11.8973C11.5434 10.4366 13.1279 9.39309 14.9166 8.93065C15.1286 8.87602 15.3492 8.86367 15.566 8.89433C15.7827 8.92499 15.9913 8.99804 16.1798 9.10932C16.3683 9.2206 16.5331 9.36792 16.6646 9.54288C16.7962 9.71783 16.892 9.917 16.9466 10.129ZM27.8399 0.545651C28.1441 0.671783 28.4042 0.885213 28.5872 1.159C28.7702 1.43279 28.868 1.75466 28.8683 2.08398V5.13398H31.9166C32.2462 5.13405 32.5683 5.23184 32.8424 5.41498C33.1164 5.59812 33.3299 5.85839 33.456 6.16289C33.5822 6.46739 33.6152 6.80245 33.5509 7.1257C33.4866 7.44896 33.3279 7.7459 33.0949 7.97898L27.1999 13.8673C26.8874 14.1799 26.4636 14.3556 26.0216 14.3557H21.9999L18.9533 17.404C18.6405 17.7167 18.2164 17.8924 17.7741 17.8924C17.3318 17.8924 16.9077 17.7167 16.5949 17.404C16.2822 17.0912 16.1065 16.6671 16.1065 16.2248C16.1065 15.7825 16.2822 15.3584 16.5949 15.0457L19.6433 12.0007V7.97732C19.6433 7.53533 19.819 7.11147 20.1316 6.79898L26.0233 0.905651C26.2563 0.67243 26.5533 0.513582 26.8767 0.449203C27.2001 0.384825 27.5353 0.41781 27.8399 0.543984V0.545651ZM25.5349 6.10732L22.9766 8.66732V11.024H25.3333L27.8932 8.46565H27.2016C26.7596 8.46565 26.3356 8.29006 26.0231 7.9775C25.7105 7.66493 25.5349 7.24101 25.5349 6.79898V6.10732Z" fill="#151617"/>
</svg>
