<svg width="123" height="48" viewBox="0 0 123 48" fill="none" xmlns="http://www.w3.org/2000/svg">
<path d="M5.37615 30.7537C4.26506 31.8276 3.63393 33.0982 3.33406 33.8334C3.90293 34.8123 4.53398 35.7538 5.22332 36.652C10.5533 36.4042 13.7858 34.6776 15.7973 32.8148C18.2913 30.5075 18.9092 28.2713 18.7514 27.4791C18.5606 26.5183 16.8596 25.3023 14.3533 23.1718C11.8469 21.0414 10.5004 16.7589 17.5098 11.1985C23.9772 6.06764 31.5095 4.50715 33.0403 4.22958C29.6203 1.56957 25.4155 0 20.8654 0C9.39756 0 0.101562 9.93705 0.101562 22.335C0.101562 25.6799 0.911132 28.8512 2.22462 31.7029C3.67193 30.7711 5.37615 30.7537 5.37615 30.7537Z" fill="#0093E1"/>
<path d="M38.2271 10.0615C36.6162 11.2056 34.7038 11.346 34.7038 11.346C35.9694 10.6546 36.641 9.26099 36.9814 8.23086C36.5958 7.72199 36.1908 7.23349 35.7662 6.76537C33.6406 6.20281 30.8848 6.48285 28.7907 7.79138C26.7164 9.08751 24.8056 11.4138 24.058 12.9173C23.3104 14.4208 23.0667 16.2315 27.7919 18.9073C32.8608 21.7763 28.9666 26.2669 26.7114 28.7113C23.7201 31.9479 17.156 36.6789 17.156 36.6789H36.4039C39.3944 32.7897 41.6322 27.7919 41.6322 22.3397C41.6289 17.7896 40.3758 13.5773 38.2271 10.0615Z" fill="#0093E1"/>
<path d="M61.2553 23.2504C62.4835 23.2504 63.4792 22.2548 63.4792 21.0266C63.4792 19.7984 62.4835 18.8027 61.2553 18.8027C60.0271 18.8027 59.0315 19.7984 59.0315 21.0266C59.0315 22.2548 60.0271 23.2504 61.2553 23.2504Z" fill="#AAAAAA"/>
<path d="M64.6756 21.8094H76.3177V20.2324H64.6698C64.7308 20.4927 64.7621 20.759 64.7632 21.0263C64.7636 21.2898 64.7342 21.5525 64.6756 21.8094ZM51.0897 31.625C50.3256 29.9233 50.2215 26.9039 51.7886 25.0824C53.3557 23.2609 56.551 23.2014 58.4254 24.9254V21.8689C58.028 21.6984 57.6218 21.5492 57.2086 21.422C56.4651 21.189 53.2285 20.6389 50.8568 21.9515C48.485 23.2642 47.0667 26.3529 47.0667 28.8725C47.0667 31.3921 47.9134 34.3991 51.4078 36.0925C51.4078 36.0925 52.6353 36.6749 54.7121 36.6749C56.4692 36.6749 57.4647 36.1355 57.4647 36.1355L58.9467 33.4251C58.9467 33.4251 57.4225 34.1686 55.7076 34.1876C53.9926 34.2066 51.8555 33.3301 51.0897 31.625ZM60.0379 24.8271H62.4724V36.3742H60.0379V24.8271ZM70.141 24.543C69.3975 24.543 68.2113 24.7594 68.2113 24.7594L66.5393 27.0303V24.8271H64.1048V36.3742H66.5393V27.5095C66.5393 27.5095 67.2001 26.7197 68.6359 26.7197C70.0716 26.7197 70.9555 27.1815 71.2628 27.7556C71.4481 28.1056 71.5373 28.4984 71.5214 28.894V36.3784H73.9543V28.894C73.9543 28.894 74.0468 26.5809 72.9629 25.5227C72.0625 24.6404 70.9398 24.543 70.141 24.543ZM98.7411 24.543C98.0199 24.543 96.8717 24.7594 96.8717 24.7594L95.2261 27.0725C95.0881 26.5058 94.8543 25.9242 94.4553 25.5227C93.5846 24.6446 92.4967 24.5471 91.7243 24.5471C91.0031 24.5471 89.8548 24.7635 89.8548 24.7635L88.2365 27.0345V24.8271H85.802V36.3742H88.2365V27.5095C88.2365 27.5095 88.8759 26.7197 90.2671 26.7197C91.6582 26.7197 92.5124 27.1815 92.8106 27.7556C92.989 28.1077 93.0743 28.4996 93.0584 28.894V36.3784H95.4161V28.894C95.4238 28.4118 95.3859 27.93 95.3029 27.4549C95.4681 27.2806 96.105 26.7197 97.2855 26.7197C98.6758 26.7197 99.5308 27.1815 99.8291 27.7556C100.007 28.1077 100.093 28.4996 100.077 28.894V36.3784H102.434V28.894C102.434 28.894 102.524 26.5809 101.471 25.5227C100.601 24.6404 99.5143 24.543 98.7411 24.543ZM84.9041 30.7386C84.9041 30.7386 84.9041 27.906 83.8764 26.5256C82.8488 25.1452 81.4205 24.543 80.0161 24.543C78.4341 24.543 75.8303 25.5343 75.0282 28.8899C74.226 32.2454 75.8303 35.1508 77.6345 36.0529C79.4387 36.955 82.2226 36.8459 83.1495 36.3742L84.5786 34.048C84.5786 34.048 83.0718 34.8509 81.2544 34.7749C79.437 34.6989 78.5159 33.896 78.1268 33.3218C77.7377 32.7477 77.4486 32.0579 77.5048 30.7386H84.9041ZM78.3631 27.1559C79.1165 26.1547 80.715 26.0597 81.5394 26.9221C82.3639 27.7845 82.3705 29.1385 82.3705 29.1385H77.6328C77.6328 29.1385 77.6865 28.0563 78.3631 27.1559ZM111.983 34.8319V28.8899C111.983 28.8899 112.078 26.6594 110.895 25.5673C109.973 24.714 108.966 24.543 108.169 24.543C107.426 24.543 105.459 24.8552 105.459 24.8552L103.793 27.5095C104.52 27.0395 105.355 26.7634 106.219 26.7073C107.247 26.6429 108.004 26.5966 108.609 26.899C109.037 27.1129 109.247 27.5194 109.324 27.7028C109.481 28.0775 109.558 28.4811 109.549 28.8874V29.3872H107.365C107.365 29.3872 105.29 29.4045 103.969 30.8287C102.649 32.2529 103.078 35.1673 104.347 35.9736C105.616 36.7798 107.743 36.608 108.189 36.5056L109.549 34.5395V34.8294C109.554 35.3538 109.641 35.8741 109.806 36.3718H112.343C111.973 36.0041 111.983 34.8319 111.983 34.8319ZM109.549 33.7638V34.3421C109.218 34.5073 108.558 34.7981 107.888 34.8319C106.954 34.8782 105.616 34.7278 105.616 32.9939C105.616 31.6366 107.284 31.188 107.888 31.1913H109.549V33.7638Z" fill="#B3151E"/>
<path d="M118.508 27.4257C117.38 27.0498 116.03 26.2196 116.577 24.541C117.124 22.8624 120.736 23.0375 121.989 24.7104V21.9677C121.989 21.9677 119.999 20.6658 117.02 21.0186V20.2305H84.3015V21.8083H114.966C113.603 22.8186 113.13 24.5592 113.13 25.8991C113.13 27.8479 114.645 29.1151 116.526 29.5595C118.406 30.0039 119.26 31.0671 119.26 32.0584C119.26 33.0497 118.682 34.1782 117.02 34.1782C115.359 34.1782 113.987 33.5826 113.13 32.7251V35.6305C114.314 36.312 115.654 36.677 117.02 36.6903C119.243 36.6903 122.593 35.5792 122.593 32.0758C122.593 28.5723 119.636 27.8024 118.508 27.4257Z" fill="#B3151E"/>
<path d="M3.70249 41.9807C2.25849 42.0724 1.74548 43.4429 1.74548 44.5193C1.74548 44.6481 1.7397 45.2322 1.7397 45.3701C1.7397 46.9265 0.101562 46.9893 0.101562 46.9893V48.0004C2.02553 48.0004 2.64179 46.8497 2.64179 44.7844C2.64179 43.4173 3.34397 43.0497 3.81814 42.9538C3.958 42.9249 4.10136 42.9169 4.24358 42.9299V41.9873C4.06367 41.9709 3.88275 41.9687 3.70249 41.9807ZM4.73015 41.9733H5.74459V48.0004H4.73015V41.9733ZM13.5115 41.9733L11.7329 46.6621L9.95435 41.9733H8.94073L11.0464 47.5262C11.0994 47.6657 11.1935 47.7857 11.3162 47.8704C11.439 47.955 11.5846 48.0004 11.7337 48.0004C11.8829 48.0004 12.0285 47.955 12.1512 47.8704C12.274 47.7857 12.3681 47.6657 12.4211 47.5262L14.5268 41.9733H13.5115ZM7.93455 45.5329V39.5586H6.92011V45.7072C6.92033 46.2706 7.14428 46.8108 7.54272 47.209C7.94115 47.6073 8.48146 47.8311 9.04482 47.8311H9.56113V46.8943H9.29595C9.11717 46.8943 8.94014 46.8591 8.77497 46.7906C8.60979 46.7222 8.45972 46.622 8.3333 46.4955C8.20688 46.3691 8.1066 46.219 8.03818 46.0539C7.96977 45.8887 7.93455 45.7117 7.93455 45.5329ZM20.7167 44.0228V47.8311H21.7319V44.1963C21.7319 43.8352 21.8754 43.4889 22.1307 43.2336C22.386 42.9783 22.7323 42.8349 23.0933 42.8349H23.3585V41.8981H22.8422C22.2786 41.8981 21.7381 42.1219 21.3395 42.5203C20.9409 42.9188 20.7169 43.4592 20.7167 44.0228ZM32.9197 44.0228V47.8311H33.9341V44.1963C33.9343 43.8358 34.0775 43.4901 34.3323 43.235C34.587 42.98 34.9325 42.8364 35.293 42.8357H35.5582V41.8981H35.0452C34.4816 41.8981 33.9411 42.1219 33.5425 42.5203C33.1439 42.9188 32.9199 43.4592 32.9197 44.0228ZM5.23737 40.0782C5.11023 40.0789 4.98614 40.1172 4.88075 40.1883C4.77536 40.2594 4.69339 40.3601 4.64519 40.4777C4.59699 40.5954 4.58472 40.7247 4.60992 40.8493C4.63512 40.9739 4.69667 41.0883 4.7868 41.1779C4.87693 41.2676 4.9916 41.3286 5.11634 41.3531C5.24108 41.3777 5.3703 41.3647 5.4877 41.3159C5.60509 41.2671 5.7054 41.1847 5.77597 41.0789C5.84654 40.9732 5.8842 40.8489 5.8842 40.7217C5.8842 40.6369 5.86744 40.553 5.8349 40.4747C5.80235 40.3964 5.75465 40.3253 5.69455 40.2655C5.63444 40.2057 5.56311 40.1584 5.48465 40.1262C5.40619 40.0941 5.32215 40.0778 5.23737 40.0782ZM30.7776 41.9733H31.7921V48.0004H30.7776V41.9733ZM31.2848 40.0782C31.1576 40.0782 31.0331 40.1159 30.9273 40.1867C30.8215 40.2574 30.739 40.3579 30.6903 40.4755C30.6416 40.5931 30.6288 40.7224 30.6537 40.8473C30.6785 40.9721 30.7398 41.0868 30.8298 41.1768C30.9198 41.2668 31.0345 41.3281 31.1593 41.3529C31.2841 41.3777 31.4135 41.365 31.5311 41.3163C31.6487 41.2676 31.7492 41.1851 31.8199 41.0793C31.8906 40.9734 31.9284 40.849 31.9284 40.7217C31.9284 40.6372 31.9117 40.5535 31.8794 40.4755C31.847 40.3974 31.7996 40.3264 31.7399 40.2667C31.6801 40.2069 31.6092 40.1595 31.5311 40.1272C31.453 40.0949 31.3693 40.0782 31.2848 40.0782ZM40.7452 39.5586V42.9811C40.2543 42.5426 39.6277 42.286 38.9703 42.2539C38.3128 42.2219 37.6643 42.4164 37.133 42.8051C36.6018 43.1937 36.22 43.7529 36.0514 44.3891C35.8828 45.0254 35.9377 45.7003 36.2069 46.3009C36.4761 46.9016 36.9433 47.3917 37.5303 47.6894C38.1174 47.987 38.7889 48.0742 39.4325 47.9363C40.0761 47.7985 40.653 47.4439 41.0666 46.9319C41.4802 46.4198 41.7056 45.7814 41.7051 45.1231V39.5586H40.7452ZM38.8279 47.0397C38.4486 47.0397 38.0779 46.9272 37.7626 46.7165C37.4472 46.5058 37.2015 46.2063 37.0564 45.8559C36.9113 45.5055 36.8734 45.1199 36.9474 44.748C37.0215 44.376 37.2042 44.0344 37.4724 43.7662C37.7406 43.4981 38.0823 43.3156 38.4543 43.2417C38.8263 43.1678 39.2118 43.2059 39.5622 43.3511C39.9125 43.4964 40.2119 43.7423 40.4225 44.0577C40.6331 44.3731 40.7454 44.7439 40.7452 45.1231C40.7451 45.375 40.6954 45.6244 40.5989 45.857C40.5024 46.0896 40.361 46.301 40.1828 46.479C40.0046 46.6569 39.793 46.7981 39.5603 46.8943C39.3275 46.9905 39.0781 47.0399 38.8262 47.0397H38.8279ZM17.1116 47.0397C16.8347 47.0392 16.5612 46.9781 16.3103 46.8608C16.0595 46.7435 15.8373 46.5728 15.6593 46.3606L18.8662 44.3524L19.6832 43.8386C19.3756 43.2215 18.8566 42.7354 18.2206 42.469C17.5847 42.2025 16.8742 42.1733 16.2186 42.3867C15.5629 42.6001 15.0058 43.0419 14.6486 43.6317C14.2914 44.2215 14.1579 44.9199 14.2724 45.5998C14.387 46.2797 14.742 46.8959 15.2727 47.336C15.8035 47.7762 16.4747 48.011 17.164 47.9978C17.8534 47.9846 18.5151 47.7242 19.0286 47.264C19.5421 46.8039 19.8732 46.1746 19.9616 45.4908H18.9918C18.9065 45.9269 18.6724 46.3198 18.3294 46.6024C17.9865 46.8849 17.556 47.0395 17.1116 47.0397ZM17.1116 43.2058C17.5279 43.2064 17.9325 43.3436 18.2632 43.5965L15.2322 45.4965C15.1755 45.2184 15.1815 44.9311 15.2498 44.6556C15.318 44.3801 15.4468 44.1232 15.6268 43.9037C15.8068 43.6842 16.0335 43.5076 16.2903 43.3868C16.5472 43.2659 16.8277 43.2038 17.1116 43.205V43.2058ZM26.9594 42.2459C26.2514 42.2455 25.5683 42.5074 25.0421 42.9811V39.5586H24.0821V45.1231C24.0821 45.6922 24.2509 46.2485 24.5671 46.7217C24.8832 47.1948 25.3326 47.5636 25.8583 47.7814C26.3841 47.9992 26.9626 48.0561 27.5208 47.9451C28.0789 47.8341 28.5916 47.5601 28.994 47.1577C29.3964 46.7553 29.6704 46.2426 29.7814 45.6845C29.8924 45.1263 29.8355 44.5478 29.6177 44.0221C29.3999 43.4963 29.0311 43.0469 28.558 42.7308C28.0848 42.4146 27.5285 42.2459 26.9594 42.2459ZM26.9594 47.0372C26.5801 47.0374 26.2093 46.925 25.8939 46.7144C25.5785 46.5038 25.3326 46.2043 25.1873 45.854C25.0421 45.5036 25.0041 45.118 25.078 44.746C25.152 44.374 25.3346 44.0323 25.6028 43.7641C25.871 43.4959 26.2127 43.3132 26.5847 43.2393C26.9567 43.1653 27.3423 43.2034 27.6927 43.3486C28.0431 43.4938 28.3425 43.7397 28.5532 44.0551C28.7638 44.3706 28.8761 44.7414 28.876 45.1207C28.8762 45.3725 28.8268 45.622 28.7306 45.8547C28.6343 46.0875 28.4932 46.299 28.3152 46.4772C28.1373 46.6554 27.9259 46.7968 27.6933 46.8933C27.4607 46.9898 27.2113 47.0396 26.9594 47.0397V47.0372Z" fill="#828282"/>
<path d="M95.5897 13.8571C95.5897 13.8571 95.455 14.0736 95.3551 14.2074C95.3529 14.2111 95.3504 14.2147 95.3476 14.2181L94.8768 13.9439C95.0626 13.7233 95.1898 13.5705 95.1898 13.5705L95.0593 13.4788C94.5843 14.1396 93.6872 15.1012 93.2832 15.5159C93.0841 15.7208 92.9627 15.7497 92.89 15.7266C92.7785 14.8815 93.2155 13.1979 93.2155 13.1979C93.2244 13.1628 93.223 13.1259 93.2114 13.0916C93.1999 13.0573 93.1786 13.0271 93.1502 13.0046L91.9937 12.0959C91.9388 12.0514 91.8703 12.027 91.7996 12.027C91.7289 12.027 91.6603 12.0514 91.6054 12.0959C91.1253 12.5049 90.7032 12.9773 90.3506 13.5002C90.7744 12.518 91.1717 11.6002 91.365 11.0542C91.9326 9.44827 91.6327 8.67422 91.6327 8.67422C91.6086 8.61236 91.5659 8.55952 91.5104 8.52305L90.9627 8.11744H90.9586C90.7982 7.99575 90.6032 7.92833 90.4018 7.92496C90.2498 7.9167 89.8318 7.91918 88.8843 8.70148L85.8443 6.26204C86.5184 5.98447 87.5179 5.73169 88.1986 5.89195C88.0461 5.84069 87.889 5.80418 87.7294 5.7829L87.6757 5.70856C87.8451 5.75895 88.0186 5.81843 88.1986 5.89195C88.0021 5.76783 87.7947 5.66166 87.5791 5.57473C86.9579 5.31864 85.95 5.0642 84.9174 5.48055C84.1153 5.8019 82.7778 6.609 80.4392 8.72709C75.8436 12.8939 72.1155 16.7179 72.1155 16.7179L72.1518 16.7517L73.5339 18.038L73.5702 18.0718C73.5702 18.0718 73.8651 17.7414 74.3492 17.2053L79.2347 20.8326L78.9109 21.2861L78.8952 21.3085C78.73 21.5464 78.635 21.6777 78.635 21.6777L78.5846 21.7496L80.0203 22.8656L80.0509 22.8202C80.0509 22.8202 85.1231 15.145 86.8538 12.8171C87.508 11.9373 88.083 11.226 88.5679 10.6634C88.5042 10.8467 88.4328 11.0273 88.3539 11.2045C88.0343 11.9175 87.5188 12.96 87.3329 13.5391C87.0314 14.4775 86.8794 15.6159 87.3329 16.0876C87.3329 16.0876 87.1528 15.791 87.2891 14.9831L88.9033 16.1396C88.8152 16.3713 88.7418 16.6083 88.6836 16.8492C88.5035 17.6902 88.8917 17.7934 88.8917 17.7934C88.8917 17.7934 89.1999 17.9727 89.5972 17.601C89.8607 17.3531 90.9355 15.9876 91.774 14.9385C91.7624 15.1285 91.764 15.4341 91.8673 15.6687C91.906 15.7393 91.9631 15.7981 92.0325 15.8389C92.0383 15.8389 92.04 15.848 92.0474 15.8513L93.0222 16.3337C93.1692 16.4073 93.3526 16.3982 93.5542 16.2974C94.1035 16.0215 94.8429 15.0731 95.0354 14.8179C95.118 14.7138 95.7136 13.9439 95.7136 13.9439L95.5897 13.8571ZM91.8599 12.1562L93.0371 13.0996C92.91 13.2063 92.7912 13.3226 92.6818 13.4474L91.4559 12.4486C91.7591 12.1438 91.8599 12.1562 91.8599 12.1562ZM91.1569 12.7749C91.223 12.6923 91.2841 12.6287 91.3403 12.5692L92.5901 13.5605C92.472 13.7002 92.3357 13.8612 92.1862 14.0397L90.947 13.0319C91.0189 12.9418 91.0891 12.8542 91.1569 12.7749ZM92.681 15.4787L91.9103 15.0657C91.9186 14.9509 91.9335 14.8367 91.9549 14.7237L92.6984 15.0979C92.6893 15.202 92.6818 15.3044 92.6769 15.4036C92.6785 15.4308 92.6818 15.4523 92.681 15.4787ZM92.0507 14.5956L92.2655 14.3288L92.7611 14.5766C92.7446 14.6997 92.7289 14.8245 92.7157 14.9517L92.0507 14.5956ZM90.8008 11.4738L89.1594 10.2611C89.2857 9.99221 89.4441 9.73952 89.6311 9.50857C89.75 9.38879 89.855 9.28801 89.9433 9.2054L91.1825 10.1967C91.0817 10.6299 90.9542 11.0564 90.8008 11.4738ZM91.2486 9.86792V9.87371L90.1631 9.01127C90.3978 8.81989 90.6678 8.67646 90.9578 8.58913C90.9881 8.57989 91.0199 8.57681 91.0514 8.58008C91.0829 8.58334 91.1134 8.59288 91.1412 8.60813C91.2643 8.71387 91.3799 9.06166 91.2486 9.86792ZM90.7752 8.09596L91.1519 8.36609C91.087 8.35035 91.0204 8.34258 90.9537 8.34296L90.6059 8.0687C90.6632 8.07138 90.72 8.08052 90.7752 8.09596ZM90.3465 8.09596L90.6819 8.38426C90.6222 8.40132 90.5637 8.4223 90.5067 8.44705L90.1813 8.15461C90.2349 8.13131 90.2901 8.11171 90.3465 8.09596ZM89.95 8.27357L90.2804 8.56766C90.2201 8.60483 90.1573 8.65026 90.092 8.69405L89.7616 8.39252C89.8244 8.35012 89.8872 8.31074 89.95 8.27439V8.27357ZM89.5063 8.56518L89.8599 8.88074C89.8103 8.9248 89.7575 8.97272 89.7013 9.02448L89.3213 8.71635C89.3907 8.6577 89.4526 8.60648 89.5063 8.566V8.56518ZM89.104 8.91131L89.4824 9.23596C89.4163 9.30205 89.3461 9.37392 89.2726 9.45075L88.876 9.12857C88.957 9.05009 89.0322 8.97905 89.104 8.91214V8.91131ZM89.0644 9.67131C89.0024 9.73905 88.938 9.80927 88.8711 9.88362L88.4456 9.56062C88.5225 9.47801 88.5976 9.40449 88.6695 9.33262L89.0644 9.67131ZM88.5646 8.97822C88.2342 9.27975 87.8393 9.66718 87.3849 10.1637L83.9327 7.50365C84.5787 7.008 85.0554 6.68995 85.3123 6.52556C85.3437 6.50491 85.3891 6.4826 85.4279 6.46112L88.5646 8.97822ZM81.5032 9.61018C82.2467 8.89974 82.9075 8.32561 83.4701 7.86961L87 10.5957C86.5498 11.1104 86.0442 11.7217 85.475 12.4519C85.4577 12.4742 85.4411 12.4965 85.4238 12.518L81.5032 9.61018ZM84.9612 13.1136C84.2177 14.076 83.5089 15.0095 82.853 15.8843L78.5169 12.6692C79.3793 11.7531 80.2318 10.8658 80.9596 10.1414L84.9612 13.1136ZM87.5435 5.66973L87.6138 5.76721C87.565 5.76143 87.513 5.7573 87.4601 5.75316L87.3684 5.62677C87.4262 5.64082 87.4841 5.65486 87.5435 5.67056V5.66973ZM87.1949 5.58712L87.3065 5.74243H87.1222L86.9859 5.55408C87.0545 5.56482 87.1247 5.57803 87.1949 5.59125V5.58712ZM86.772 5.52434L86.9322 5.74656C86.862 5.74656 86.7902 5.75647 86.7158 5.7639L86.5316 5.50864C86.6101 5.51525 86.6902 5.52103 86.772 5.52847V5.52434ZM86.2301 5.50947L86.4647 5.7986C86.3903 5.81099 86.3143 5.82503 86.2367 5.84156L85.9327 5.53508C86.0285 5.52599 86.1268 5.51773 86.2301 5.5136V5.50947ZM85.6262 5.58216L85.9401 5.91756C85.8525 5.94234 85.7633 5.97043 85.6725 6.00017L85.328 5.65569C85.4205 5.63421 85.5196 5.60777 85.6262 5.58629V5.58216ZM85.0339 5.76721L85.3817 6.11417C85.309 6.14556 85.233 6.18025 85.152 6.22073L84.7761 5.90104C84.859 5.85203 84.9451 5.8087 85.0339 5.77134V5.76721ZM84.487 6.07369L84.8488 6.38347C84.7588 6.43469 84.6646 6.49086 84.5655 6.55447L84.188 6.26452C84.2995 6.19595 84.3978 6.13317 84.487 6.07782V6.07369ZM83.9088 6.45121L84.2805 6.74034C84.1888 6.8023 84.0921 6.87087 83.9922 6.94274L83.6254 6.64782C83.7254 6.58173 83.8204 6.51565 83.9096 6.45534L83.9088 6.45121ZM83.3528 6.84195L83.7237 7.14265C83.6411 7.20378 83.5585 7.26739 83.4759 7.33513L83.124 7.01378L83.3528 6.84195ZM82.8092 7.24756L83.1801 7.57139C83.0975 7.635 83.0224 7.70026 82.9406 7.76883L82.5936 7.41443C82.668 7.36074 82.739 7.30622 82.8101 7.25169L82.8092 7.24756ZM82.3086 7.63996L82.6647 8.00426C82.5573 8.09678 82.4474 8.19344 82.3342 8.29422L81.9749 7.91257L82.3094 7.64409L82.3086 7.63996ZM81.6667 8.17857L82.036 8.57096C81.9292 8.66788 81.8229 8.76536 81.7171 8.8634L81.3066 8.48009C81.4305 8.37435 81.5505 8.27384 81.6667 8.17857ZM81.0059 8.75187L81.4189 9.13848C81.3066 9.24422 81.1926 9.35244 81.0753 9.46892L80.6515 9.07488C80.7737 8.95977 80.8927 8.85073 81.0083 8.74774L81.0059 8.75187ZM80.331 9.36814L80.763 9.76962C80.6413 9.88692 80.5212 10.004 80.4028 10.1207L79.9642 9.71179L80.331 9.36814ZM79.6313 10.029L80.0757 10.4421C79.9105 10.6073 79.7453 10.7642 79.5883 10.9228L79.1348 10.5015L79.6313 10.029ZM78.8052 10.8196L79.2636 11.2467L78.8589 11.6515L78.3888 11.2211C78.5298 11.0812 78.6694 10.9451 78.8076 10.813L78.8052 10.8196ZM77.9692 11.6275L78.4475 12.0662L78.0848 12.4263L77.5892 11.9951L77.9692 11.6275ZM77.1431 12.4305L77.6519 12.8716L77.1563 13.3829L76.6416 12.9236L77.1431 12.4305ZM76.2674 13.2904L76.792 13.7588L76.3186 14.2545L75.7651 13.7894C75.9295 13.6225 76.1022 13.4573 76.2674 13.2904ZM75.3447 14.1991L75.913 14.6758C75.7032 14.8961 75.5036 15.1075 75.3141 15.3102L74.7524 14.7873L75.3447 14.1991ZM73.5231 17.2507L72.8804 16.6576L73.4488 16.0884L74.0617 16.6592C73.8478 16.8955 73.6661 17.0946 73.5231 17.2532V17.2507ZM73.823 15.7133L74.379 15.159L74.9572 15.6943C74.7656 15.9003 74.5877 16.0931 74.4236 16.2726L73.823 15.7133ZM74.9531 16.5345C75.7594 15.6456 76.83 14.4692 77.927 13.2954L82.3384 16.57C81.4684 17.7387 80.6081 18.9145 79.7576 20.0974L74.9531 16.5345ZM79.8898 22.0412L79.352 21.6282L79.8113 20.9731L80.3574 21.3275C80.1674 21.6149 80.0104 21.8562 79.8898 22.0437V22.0412ZM80.7324 20.7558L80.2079 20.4047L80.6416 19.7893L81.1455 20.1387C80.9976 20.3609 80.8613 20.565 80.7324 20.7583V20.7558ZM81.537 19.5613L81.0414 19.2193C81.1694 19.0384 81.3016 18.8508 81.4371 18.6608L81.9228 18.9913C81.7915 19.192 81.6618 19.3804 81.537 19.5638V19.5613ZM82.2524 18.5212L81.7733 18.1908L82.2475 17.5241L82.7184 17.8546C82.5573 18.0859 82.4036 18.3064 82.2524 18.5237V18.5212ZM82.9877 17.4729L82.5201 17.1425C82.6726 16.9288 82.8268 16.7137 82.9827 16.4973L83.4461 16.8277C83.2892 17.0508 83.1364 17.2656 82.9877 17.4754V17.4729ZM83.7188 16.451L83.2561 16.1206C83.3817 15.9455 83.5073 15.7714 83.6328 15.5985L84.0988 15.929C83.9699 16.1041 83.8432 16.2789 83.7188 16.4535V16.451ZM84.4127 15.501L83.9443 15.1706L84.2218 14.7898L84.6968 15.1202C84.601 15.2485 84.5063 15.3763 84.4127 15.5035V15.501ZM84.9909 14.7187L84.5126 14.3883C84.6184 14.2437 84.7233 14.1016 84.8257 13.9629L85.3007 14.3073L84.9909 14.7187ZM85.5799 13.9389L85.1008 13.5911L85.3833 13.2128L85.8625 13.5688C85.7675 13.6944 85.6758 13.8183 85.5824 13.9414L85.5799 13.9389ZM86.2474 13.0707L86.1301 13.2219L85.6477 12.8633C85.7435 12.7378 85.836 12.6155 85.9252 12.4998L86.4135 12.8584L86.2474 13.0707ZM86.6605 12.542L86.1714 12.1826C86.2722 12.0538 86.373 11.9274 86.4738 11.8035L86.9496 12.176L86.6605 12.542ZM87.1809 11.8869L86.7075 11.516C86.7935 11.4108 86.8791 11.3081 86.9645 11.2078L87.4287 11.5804C87.3502 11.682 87.2685 11.7836 87.1834 11.8894L87.1809 11.8869ZM87.6576 11.2995L87.1991 10.9311C87.2701 10.8485 87.3395 10.7659 87.4097 10.6882L87.8616 11.0517L87.6576 11.2995ZM88.0937 10.7733L87.6493 10.4164L87.8426 10.2017L88.2804 10.5536L88.0937 10.7733ZM88.4787 10.3231L88.0384 9.98771C88.1078 9.91336 88.1755 9.83984 88.2424 9.76962L88.6654 10.11C88.6076 10.1802 88.5456 10.2521 88.4812 10.3264L88.4787 10.3231ZM88.691 11.2425C88.7959 11.0145 88.895 10.7981 88.9917 10.5957L90.6769 11.8035C90.61 11.9835 90.5456 12.1537 90.4886 12.3074C90.406 12.5197 90.301 12.784 90.1771 13.0773L88.4423 11.7935C88.5274 11.6093 88.6117 11.4226 88.6935 11.245L88.691 11.2425ZM88.2895 12.1438L90.0433 13.3995C89.8913 13.7547 89.7244 14.1429 89.56 14.5221L87.8327 13.2442C87.9731 12.8815 88.1284 12.5114 88.2895 12.1438ZM87.3643 14.6287C87.4006 14.4792 87.4469 14.3172 87.5031 14.1413C87.5592 13.9653 87.6286 13.7811 87.6972 13.5944L89.432 14.8336C89.2825 15.1879 89.1404 15.5333 89.0189 15.848L87.3643 14.6287ZM88.8438 17.6786C88.819 17.4696 88.9396 17.0277 89.1412 16.4618L89.8103 16.9781C89.3799 17.5481 89.1544 17.8009 88.8438 17.6786ZM90.3027 16.3321C90.1598 16.5155 90.0383 16.6749 89.9268 16.8277L89.2156 16.2619C89.3056 16.014 89.408 15.7546 89.5187 15.4804L90.4274 16.1793L90.3027 16.3321ZM90.5456 16.0264L89.6005 15.2755C89.6765 15.0896 89.7558 14.8996 89.8368 14.708C89.8368 14.6997 89.8558 14.6642 89.8839 14.6064L90.9875 15.4812C90.8306 15.6729 90.681 15.8612 90.5456 16.0264ZM91.109 15.3342L89.9805 14.4172C90.045 14.2982 90.1292 14.1545 90.2283 14.0042L90.3266 13.8621L91.5319 14.817C91.3931 14.9897 91.2494 15.1632 91.109 15.3342ZM91.6575 14.6733L90.4605 13.6985C90.577 13.5333 90.6992 13.3631 90.8223 13.2029L92.0614 14.1884L91.6575 14.6733ZM92.0482 15.7133C92.0009 15.6844 91.9641 15.6409 91.9433 15.5894C91.9154 15.4726 91.9018 15.3527 91.9028 15.2326L92.6843 15.6514C92.69 15.8134 92.7306 15.9724 92.8033 16.1173L92.0482 15.7133ZM92.7785 14.4527L92.3522 14.2247C92.4274 14.1322 92.4951 14.0504 92.5546 13.9769L92.8305 14.1149C92.8132 14.2222 92.7958 14.3346 92.7785 14.4511V14.4527ZM92.6281 13.8926C92.667 13.848 92.7017 13.81 92.7297 13.777C92.8124 13.6944 92.8727 13.62 92.9313 13.5539C92.9082 13.6721 92.8793 13.829 92.8487 14.0099L92.6281 13.8926ZM93.0742 16.1553C92.9889 16.078 92.9331 15.9735 92.9164 15.8596C92.9677 15.8669 93.0201 15.8588 93.0668 15.8364L93.5319 16.1305C93.3559 16.2156 93.1957 16.2404 93.0742 16.1536V16.1553ZM93.6599 16.0595L93.1899 15.7654C93.2948 15.6867 93.3939 15.6005 93.4864 15.5076L93.9895 15.8067C93.8865 15.899 93.7763 15.983 93.6599 16.0578V16.0595ZM94.1002 15.7067L93.5872 15.4077C93.6698 15.3201 93.7772 15.2078 93.8912 15.0773L94.4092 15.3854C94.3104 15.496 94.2074 15.6026 94.1002 15.7051V15.7067ZM94.5067 15.2805L93.9854 14.9773C94.0754 14.8765 94.1696 14.7691 94.2638 14.6609L94.7735 14.9641C94.6958 15.0583 94.6066 15.1665 94.5067 15.2829V15.2805ZM95.042 14.6196L94.8611 14.8526L94.3547 14.5576C94.4241 14.475 94.491 14.3999 94.5571 14.323L95.042 14.6196ZM95.1246 14.5139L94.6372 14.2297C94.6934 14.1644 94.7471 14.1016 94.7975 14.0413L95.2675 14.3288L95.1246 14.5139Z" fill="#AAAAAA"/>
</svg>
