<svg width="16" height="20" viewBox="0 0 16 20" fill="none" xmlns="http://www.w3.org/2000/svg">
<path d="M15.7064 5.83333C15.7064 4.68333 14.7731 3.75 13.6231 3.75C13.4814 3.75 13.3398 3.76667 13.2064 3.79167V3.33333C13.2064 2.18333 12.2731 1.25 11.1231 1.25C10.9314 1.25 10.7398 1.275 10.5648 1.325C10.2564 0.55 9.50644 0 8.62311 0C7.59811 0 6.74811 0.741667 6.57311 1.71667C6.43144 1.68333 6.28144 1.66667 6.12311 1.66667C4.97311 1.66667 4.03977 2.6 4.03977 3.75V8.65833C3.75644 8.4 3.40644 8.20833 3.02311 8.10833L2.38144 7.93333C1.68977 7.74167 0.964773 8.00833 0.556439 8.625C0.239772 9.1 0.223106 9.71667 0.431439 10.25L2.56477 15.6083C3.61477 18.2583 6.18144 20 9.03977 20C12.7231 20 15.7064 17.0167 15.7064 13.3333V5.83333ZM14.0398 13.3333C14.0398 16.0917 11.7981 18.3333 9.03977 18.3333C6.86477 18.3333 4.91477 17.0083 4.11477 14.9917L1.94811 9.54167L2.38977 9.65833C2.77311 9.75833 3.08144 10.0417 3.22311 10.4083L4.03977 12.5H5.70644V3.75C5.70644 3.51667 5.88977 3.33333 6.12311 3.33333C6.35644 3.33333 6.53977 3.51667 6.53977 3.75V10H8.20644V2.08333C8.20644 1.85 8.38977 1.66667 8.62311 1.66667C8.85644 1.66667 9.03977 1.85 9.03977 2.08333V10H10.7064V3.33333C10.7064 3.1 10.8898 2.91667 11.1231 2.91667C11.3564 2.91667 11.5398 3.1 11.5398 3.33333V10H13.2064V5.83333C13.2064 5.6 13.3898 5.41667 13.6231 5.41667C13.8564 5.41667 14.0398 5.6 14.0398 5.83333V13.3333Z" fill="#192434"/>
</svg>
