<svg width="22" height="17" viewBox="0 0 22 17" fill="none" xmlns="http://www.w3.org/2000/svg">
<path d="M18 10.4062V2.40625C18 1.30625 17.1 0.40625 16 0.40625H2C0.9 0.40625 0 1.30625 0 2.40625V10.4062C0 11.5063 0.9 12.4062 2 12.4062H16C17.1 12.4062 18 11.5063 18 10.4062ZM16 10.4062H2V2.40625H16V10.4062ZM9 3.40625C7.34 3.40625 6 4.74625 6 6.40625C6 8.06625 7.34 9.40625 9 9.40625C10.66 9.40625 12 8.06625 12 6.40625C12 4.74625 10.66 3.40625 9 3.40625ZM22 3.40625V14.4062C22 15.5063 21.1 16.4062 20 16.4062H3C3 15.4062 3 15.5063 3 14.4062H20V3.40625C21.1 3.40625 21 3.40625 22 3.40625Z" fill="white"/>
</svg>
