<svg width="20" height="15" viewBox="0 0 20 15" fill="none" xmlns="http://www.w3.org/2000/svg">
<path d="M7 9.15625C4.66 9.15625 0 10.3263 0 12.6562V14.4062H14V12.6562C14 10.3263 9.34 9.15625 7 9.15625ZM2.34 12.4062C3.18 11.8263 5.21 11.1562 7 11.1562C8.79 11.1562 10.82 11.8263 11.66 12.4062H2.34ZM7 7.40625C8.93 7.40625 10.5 5.83625 10.5 3.90625C10.5 1.97625 8.93 0.40625 7 0.40625C5.07 0.40625 3.5 1.97625 3.5 3.90625C3.5 5.83625 5.07 7.40625 7 7.40625ZM7 2.40625C7.83 2.40625 8.5 3.07625 8.5 3.90625C8.5 4.73625 7.83 5.40625 7 5.40625C6.17 5.40625 5.5 4.73625 5.5 3.90625C5.5 3.07625 6.17 2.40625 7 2.40625ZM14.04 9.21625C15.2 10.0563 16 11.1763 16 12.6562V14.4062H20V12.6562C20 10.6362 16.5 9.48625 14.04 9.21625ZM13 7.40625C14.93 7.40625 16.5 5.83625 16.5 3.90625C16.5 1.97625 14.93 0.40625 13 0.40625C12.46 0.40625 11.96 0.53625 11.5 0.75625C12.13 1.64625 12.5 2.73625 12.5 3.90625C12.5 5.07625 12.13 6.16625 11.5 7.05625C11.96 7.27625 12.46 7.40625 13 7.40625Z" fill="white"/>
</svg>
