<svg width="16" height="17" viewBox="0 0 16 17" fill="none" xmlns="http://www.w3.org/2000/svg">
<path d="M8 2.30625C9.16 2.30625 10.1 3.24625 10.1 4.40625C10.1 5.56625 9.16 6.50625 8 6.50625C6.84 6.50625 5.9 5.56625 5.9 4.40625C5.9 3.24625 6.84 2.30625 8 2.30625ZM8 11.3062C10.97 11.3062 14.1 12.7662 14.1 13.4062V14.5063H1.9V13.4062C1.9 12.7662 5.03 11.3062 8 11.3062ZM8 0.40625C5.79 0.40625 4 2.19625 4 4.40625C4 6.61625 5.79 8.40625 8 8.40625C10.21 8.40625 12 6.61625 12 4.40625C12 2.19625 10.21 0.40625 8 0.40625ZM8 9.40625C5.33 9.40625 0 10.7463 0 13.4062V16.4062H16V13.4062C16 10.7463 10.67 9.40625 8 9.40625Z" fill="white"/>
</svg>
