<svg width="11" height="19" viewBox="0 0 11 19" fill="none" xmlns="http://www.w3.org/2000/svg">
<path d="M4.76953 18.2783V16.0654C3.88151 16.0511 3.06152 15.9723 2.30957 15.8291C1.56478 15.6787 0.920247 15.4854 0.375977 15.249V12.9609C0.927409 13.2188 1.60775 13.4515 2.41699 13.6592C3.22624 13.8669 4.01042 13.985 4.76953 14.0137V9.98535C3.73112 9.63444 2.88607 9.26921 2.23437 8.88965C1.58984 8.51009 1.11719 8.06966 0.816406 7.56836C0.515625 7.0599 0.365234 6.45117 0.365234 5.74219C0.365234 5.01172 0.547852 4.38509 0.913086 3.8623C1.28548 3.33236 1.80111 2.91341 2.45996 2.60547C3.12598 2.29753 3.89583 2.11491 4.76953 2.05762V0.306641H6.16602V2.02539C6.96094 2.04688 7.69499 2.13639 8.36816 2.29395C9.0485 2.44434 9.69661 2.6556 10.3125 2.92773L9.52832 4.92578C8.99121 4.71094 8.43262 4.53548 7.85254 4.39941C7.27246 4.26335 6.71029 4.17025 6.16602 4.12012L6.16602 8.05176C7.03971 8.33822 7.81673 8.64616 8.49707 8.97559C9.18457 9.30501 9.72168 9.72038 10.1084 10.2217C10.5023 10.7158 10.6992 11.3639 10.6992 12.166C10.6992 13.2188 10.3125 14.0889 9.53906 14.7764C8.76562 15.4567 7.64128 15.8649 6.16602 16.001V18.2783H4.76953ZM6.16602 13.9277C6.85352 13.8418 7.36556 13.6628 7.70215 13.3906C8.03874 13.1113 8.20703 12.7497 8.20703 12.3057C8.20703 12.0049 8.13542 11.7507 7.99219 11.543C7.85612 11.3353 7.6377 11.1491 7.33691 10.9844C7.04329 10.8197 6.65299 10.6585 6.16602 10.501V13.9277ZM4.76953 7.52539L4.76953 4.16309C4.35417 4.20605 4.00326 4.29199 3.7168 4.4209C3.43034 4.5498 3.21549 4.7181 3.07227 4.92578C2.92904 5.13346 2.85742 5.38053 2.85742 5.66699C2.85742 5.9821 2.92187 6.25065 3.05078 6.47266C3.17969 6.69466 3.38379 6.88802 3.66309 7.05273C3.94954 7.21745 4.31836 7.375 4.76953 7.52539Z" fill="white"/>
</svg>
