<svg width="19" height="18" viewBox="0 0 19 18" fill="none" xmlns="http://www.w3.org/2000/svg">
<path d="M13.2549 11.2539H12.4649L12.1849 10.9839C13.1649 9.84391 13.7549 8.36391 13.7549 6.75391C13.7549 3.16391 10.8449 0.253906 7.25488 0.253906C3.66488 0.253906 0.754883 3.16391 0.754883 6.75391C0.754883 10.3439 3.66488 13.2539 7.25488 13.2539C8.86488 13.2539 10.3449 12.6639 11.4849 11.6839L11.7549 11.9639V12.7539L16.7549 17.7439L18.2449 16.2539L13.2549 11.2539ZM7.25488 11.2539C4.76488 11.2539 2.75488 9.24391 2.75488 6.75391C2.75488 4.26391 4.76488 2.25391 7.25488 2.25391C9.74488 2.25391 11.7549 4.26391 11.7549 6.75391C11.7549 9.24391 9.74488 11.2539 7.25488 11.2539Z" fill="#1C3454" fill-opacity="0.26"/>
</svg>
