<svg width="37" height="36" viewBox="0 0 37 36" fill="none" xmlns="http://www.w3.org/2000/svg">
<g clip-path="url(#clip0_1949_10538)">
<path d="M4.5 5C3.43913 5 2.42172 5.42143 1.67157 6.17157C0.921427 6.92172 0.5 7.93913 0.5 9L0.5 27C0.5 28.0609 0.921427 29.0783 1.67157 29.8284C2.42172 30.5786 3.43913 31 4.5 31H12.5V5H4.5Z" fill="#009A49"/>
<path d="M12.5 5H24.5V31H12.5V5Z" fill="#EEEEEE"/>
<path d="M32.5 5H24.5V31H32.5C33.5609 31 34.5783 30.5786 35.3284 29.8284C36.0786 29.0783 36.5 28.0609 36.5 27V9C36.5 7.93913 36.0786 6.92172 35.3284 6.17157C34.5783 5.42143 33.5609 5 32.5 5Z" fill="#009A49"/>
</g>
<defs>
<clipPath id="clip0_1949_10538">
<rect width="36" height="36" fill="white" transform="translate(0.5)"/>
</clipPath>
</defs>
</svg>
