<svg width="40" height="40" viewBox="0 0 40 40" fill="none" xmlns="http://www.w3.org/2000/svg">
<path d="M30.1249 2.58984L37.0799 9.83984V37.4098H11.0986V37.4998H37.1686V9.93109L30.1249 2.58984Z" fill="#909090"/>
<path d="M30.0385 2.5H11.0098V37.41H37.0798V9.84125L30.0373 2.5" fill="#F4F4F4"/>
<path d="M10.8186 4.375H2.83105V12.9087H27.9561V4.375H10.8186Z" fill="#7A7B7C"/>
<path d="M28.0904 12.7627H2.99414V4.22266H28.0904V12.7627Z" fill="#DD2025"/>
<path d="M11.3154 5.66736H9.68164V11.6674H10.9666V9.64361L11.2504 9.65986C11.5261 9.65512 11.7992 9.60573 12.0591 9.51361C12.287 9.43524 12.4967 9.3115 12.6754 9.14986C12.8573 8.99589 13.0007 8.80156 13.0941 8.58236C13.2195 8.21799 13.2643 7.83074 13.2254 7.44736C13.2176 7.1735 13.1696 6.90227 13.0829 6.64236C13.004 6.45475 12.8869 6.28561 12.739 6.14573C12.5912 6.00585 12.4158 5.89828 12.2241 5.82986C12.0584 5.76986 11.8872 5.72632 11.7129 5.69986C11.5809 5.6795 11.4477 5.66864 11.3141 5.66736M11.0779 8.53486H10.9666V6.68486H11.2079C11.3144 6.67719 11.4212 6.69353 11.5205 6.73269C11.6198 6.77185 11.7091 6.83283 11.7816 6.91111C11.932 7.11238 12.0124 7.35737 12.0104 7.60861C12.0104 7.91611 12.0104 8.19486 11.7329 8.39111C11.533 8.50107 11.3054 8.55058 11.0779 8.53361M15.6666 5.65111C15.5279 5.65111 15.3929 5.66111 15.2979 5.66486L15.0004 5.67236H14.0254V11.6724H15.1729C15.6114 11.6844 16.048 11.6101 16.4579 11.4536C16.7878 11.3228 17.0799 11.1118 17.3079 10.8399C17.5296 10.5654 17.6887 10.2459 17.7741 9.90361C17.8723 9.51595 17.9202 9.11726 17.9166 8.71736C17.9409 8.24506 17.9043 7.7716 17.8079 7.30861C17.7164 6.96782 17.545 6.65373 17.3079 6.39236C17.1219 6.18132 16.8942 6.01108 16.6391 5.89236C16.4201 5.79101 16.1897 5.71631 15.9529 5.66986C15.8587 5.65431 15.7633 5.6472 15.6679 5.64861M15.4404 10.5699H15.3154V6.73986H15.3316C15.5893 6.71021 15.8501 6.75671 16.0816 6.87361C16.2512 7.00902 16.3894 7.17961 16.4866 7.37361C16.5916 7.57778 16.6521 7.80187 16.6641 8.03111C16.6754 8.30611 16.6641 8.53111 16.6641 8.71736C16.6692 8.93191 16.6554 9.14649 16.6229 9.35861C16.5844 9.5764 16.5131 9.78711 16.4116 9.98361C16.2968 10.1663 16.1415 10.3202 15.9579 10.4336C15.8037 10.5334 15.621 10.5799 15.4379 10.5661M21.7879 5.67236H18.7504V11.6724H20.0354V9.29236H21.6604V8.17736H20.0354V6.78736H21.7854V5.67236" fill="#464648"/>
<path d="M27.2259 25.3189C27.2259 25.3189 31.2109 24.5964 31.2109 25.9576C31.2109 27.3189 28.7421 26.7651 27.2259 25.3189ZM24.2796 25.4226C23.6465 25.5625 23.0295 25.7674 22.4384 26.0339L22.9384 24.9089C23.4384 23.7839 23.9571 22.2501 23.9571 22.2501C24.5538 23.2543 25.2479 24.1972 26.0296 25.0651C25.4401 25.153 24.8559 25.2732 24.2796 25.4251V25.4226ZM22.7021 17.2976C22.7021 16.1114 23.0859 15.7876 23.3846 15.7876C23.6834 15.7876 24.0196 15.9314 24.0309 16.9614C23.9335 17.9971 23.7167 19.018 23.3846 20.0039C22.9298 19.1762 22.6944 18.2458 22.7009 17.3014L22.7021 17.2976ZM16.8909 30.4426C15.6684 29.7114 19.4546 27.4601 20.1409 27.3876C20.1371 27.3889 18.1709 31.2076 16.8909 30.4426V30.4426ZM32.3746 26.1189C32.3621 25.9939 32.2496 24.6101 29.7871 24.6689C28.7607 24.6523 27.7348 24.7247 26.7209 24.8851C25.7387 23.8956 24.8929 22.7795 24.2059 21.5664C24.6387 20.3157 24.9007 19.0122 24.9846 17.6914C24.9484 16.1914 24.5896 15.3314 23.4396 15.3439C22.2896 15.3564 22.1221 16.3626 22.2734 17.8601C22.4215 18.8664 22.701 19.849 23.1046 20.7826C23.1046 20.7826 22.5734 22.4364 21.8709 24.0814C21.1684 25.7264 20.6884 26.5889 20.6884 26.5889C19.4668 26.9866 18.3168 27.5774 17.2821 28.3389C16.2521 29.2976 15.8334 30.0339 16.3759 30.7701C16.8434 31.4051 18.4796 31.5489 19.9421 29.6326C20.7192 28.6429 21.4291 27.6022 22.0671 26.5176C22.0671 26.5176 24.2971 25.9064 24.9909 25.7389C25.6846 25.5714 26.5234 25.4389 26.5234 25.4389C26.5234 25.4389 28.5596 27.4876 30.5234 27.4151C32.4871 27.3426 32.3921 26.2414 32.3796 26.1214" fill="#DD2025"/>
<path d="M29.9424 2.59766V9.93891H36.9836L29.9424 2.59766Z" fill="#909090"/>
<path d="M30.0391 2.5V9.84125H37.0803L30.0391 2.5Z" fill="#F4F4F4"/>
<path d="M11.2187 5.56971H9.58496V11.5697H10.875V9.54721L11.16 9.56346C11.4357 9.55871 11.7088 9.50932 11.9687 9.41721C12.1966 9.3388 12.4062 9.21506 12.585 9.05346C12.7655 8.89907 12.9076 8.70477 13 8.48596C13.1253 8.12158 13.1701 7.73433 13.1312 7.35096C13.1234 7.07709 13.0754 6.80586 12.9887 6.54596C12.9098 6.35834 12.7927 6.18921 12.6449 6.04932C12.497 5.90944 12.3217 5.80187 12.13 5.73346C11.9635 5.67287 11.7914 5.62891 11.6162 5.60221C11.4842 5.58185 11.351 5.57099 11.2175 5.56971M10.9812 8.43721H10.87V6.58721H11.1125C11.2189 6.57953 11.3258 6.59588 11.4251 6.63504C11.5244 6.6742 11.6136 6.73517 11.6862 6.81346C11.8366 7.01473 11.917 7.25971 11.915 7.51096C11.915 7.81846 11.915 8.09721 11.6375 8.29346C11.4375 8.40341 11.21 8.45292 10.9825 8.43596M15.57 5.55346C15.4312 5.55346 15.2962 5.56346 15.2012 5.56721L14.9075 5.57471H13.9325V11.5747H15.08C15.5185 11.5867 15.9551 11.5124 16.365 11.356C16.6949 11.2251 16.987 11.0142 17.215 10.7422C17.4367 10.4678 17.5958 10.1483 17.6812 9.80596C17.7794 9.41829 17.8273 9.0196 17.8237 8.61971C17.848 8.14741 17.8114 7.67394 17.715 7.21096C17.6234 6.87016 17.452 6.55607 17.215 6.29471C17.029 6.08366 16.8013 5.91342 16.5462 5.79471C16.3272 5.69335 16.0968 5.61865 15.86 5.57221C15.7658 5.55665 15.6704 5.54954 15.575 5.55096M15.3475 10.4722H15.2225V6.64221H15.2387C15.4964 6.61256 15.7571 6.65906 15.9887 6.77596C16.1583 6.91137 16.2965 7.08196 16.3937 7.27596C16.4987 7.48013 16.5592 7.70421 16.5712 7.93346C16.5825 8.20846 16.5712 8.43346 16.5712 8.61971C16.5763 8.83425 16.5625 9.04883 16.53 9.26096C16.4914 9.47874 16.4202 9.68946 16.3187 9.88596C16.2038 10.0687 16.0486 10.2226 15.865 10.336C15.7107 10.4357 15.5281 10.4822 15.345 10.4685M21.6912 5.57471H18.6537V11.5747H19.9387V9.19471H21.5637V8.07971H19.9387V6.68971H21.6887V5.57471" fill="white"/>
</svg>
