<svg width="25" height="24" viewBox="0 0 25 24" fill="none" xmlns="http://www.w3.org/2000/svg">
<path d="M12.5002 0.332031C6.06016 0.332031 0.833496 5.5587 0.833496 11.9987C0.833496 18.4387 6.06016 23.6654 12.5002 23.6654C18.9402 23.6654 24.1668 18.4387 24.1668 11.9987C24.1668 5.5587 18.9402 0.332031 12.5002 0.332031ZM6.7485 19.3254C7.25016 18.2754 10.3068 17.2487 12.5002 17.2487C14.6935 17.2487 17.7618 18.2754 18.2518 19.3254C16.6652 20.5854 14.6702 21.332 12.5002 21.332C10.3302 21.332 8.33516 20.5854 6.7485 19.3254ZM19.9202 17.6337C18.2518 15.6037 14.2035 14.9154 12.5002 14.9154C10.7968 14.9154 6.7485 15.6037 5.08016 17.6337C3.89016 16.0704 3.16683 14.122 3.16683 11.9987C3.16683 6.8537 7.35516 2.66536 12.5002 2.66536C17.6452 2.66536 21.8335 6.8537 21.8335 11.9987C21.8335 14.122 21.1102 16.0704 19.9202 17.6337ZM12.5002 4.9987C10.2368 4.9987 8.41683 6.8187 8.41683 9.08203C8.41683 11.3454 10.2368 13.1654 12.5002 13.1654C14.7635 13.1654 16.5835 11.3454 16.5835 9.08203C16.5835 6.8187 14.7635 4.9987 12.5002 4.9987ZM12.5002 10.832C11.5318 10.832 10.7502 10.0504 10.7502 9.08203C10.7502 8.1137 11.5318 7.33203 12.5002 7.33203C13.4685 7.33203 14.2502 8.1137 14.2502 9.08203C14.2502 10.0504 13.4685 10.832 12.5002 10.832Z" fill="#E14C29"/>
</svg>
