<svg width="80" height="82" viewBox="0 0 80 82" fill="none" xmlns="http://www.w3.org/2000/svg">
<circle cx="40" cy="40" r="40" fill="#1A3860" fill-opacity="0.1"/>
<path d="M39.8349 25.4339C41.9696 25.4339 43.6994 27.1637 43.6994 29.2983C43.6994 31.433 41.9696 33.1628 39.8349 33.1628C37.7003 33.1628 35.9705 31.433 35.9705 29.2983C35.9705 27.1637 37.7003 25.4339 39.8349 25.4339ZM39.8349 41.9957C45.3003 41.9957 51.0602 44.6824 51.0602 45.8602C51.0602 46.9781 50.1539 47.8844 49.036 47.8844H30.6339C29.516 47.8844 28.6097 46.9781 28.6097 45.8602C28.6097 44.6824 34.3695 41.9957 39.8349 41.9957ZM39.8349 21.9375C35.7681 21.9375 32.4741 25.2315 32.4741 29.2983C32.4741 33.3652 35.7681 36.6592 39.8349 36.6592C43.9018 36.6592 47.1958 33.3652 47.1958 29.2983C47.1958 25.2315 43.9018 21.9375 39.8349 21.9375ZM39.8349 38.4994C34.9216 38.4994 25.1133 40.9652 25.1133 45.8602V48.6205C25.1133 50.145 26.3491 51.3808 27.8736 51.3808H51.7963C53.3207 51.3808 54.5566 50.145 54.5566 48.6205V45.8602C54.5566 40.9652 44.7483 38.4994 39.8349 38.4994Z" fill="#1C2E45" fill-opacity="0.6"/>
</svg>
