<svg width="167" height="157" viewBox="0 0 167 157" fill="none" xmlns="http://www.w3.org/2000/svg">
<g clip-path="url(#clip0_987_21609)">
<path d="M105.881 35.2744H61.151C60.1317 35.2756 59.1545 35.6681 58.4338 36.3657C57.713 37.0634 57.3075 38.0094 57.3063 38.9961V135.227L56.7937 135.378L45.8207 138.631C45.3007 138.784 44.739 138.732 44.2589 138.485C43.7789 138.238 43.4197 137.816 43.2602 137.313L10.6207 34.1107C10.4619 33.6073 10.516 33.0635 10.7712 32.5987C11.0265 32.1339 11.4619 31.7862 11.9818 31.6321L28.8911 26.6202L77.9116 12.0957L94.8208 7.08379C95.0781 7.00713 95.3485 6.98034 95.6166 7.00496C95.8846 7.02957 96.145 7.10512 96.3828 7.22726C96.6207 7.3494 96.8313 7.51574 97.0027 7.71677C97.174 7.91779 97.3027 8.14955 97.3814 8.39879L105.724 34.7781L105.881 35.2744Z" fill="#F2F2F2"/>
<path d="M115.643 34.7769L105.587 2.98373C105.42 2.45399 105.147 1.96136 104.783 1.53398C104.418 1.1066 103.971 0.75285 103.466 0.492942C102.96 0.233033 102.407 0.0720586 101.837 0.0192233C101.268 -0.033612 100.693 0.0227271 100.146 0.185015L76.3724 7.22894L27.3545 21.7559L3.58109 28.8023C2.4767 29.1306 1.55199 29.8696 1.00991 30.8572C0.467838 31.8447 0.352694 33.0001 0.689759 34.0698L35.0567 142.726C35.3305 143.589 35.883 144.345 36.6331 144.882C37.3832 145.419 38.2914 145.71 39.2245 145.711C39.6564 145.711 40.0858 145.648 40.4983 145.525L56.795 140.696L57.3076 140.542V140.024L56.795 140.175L40.3471 145.051C39.3723 145.338 38.3194 145.24 37.4194 144.777C36.5194 144.314 35.8458 143.525 35.5463 142.582L1.18199 33.9234C1.03361 33.4562 0.981892 32.9652 1.0298 32.4786C1.07772 31.992 1.22431 31.5194 1.4612 31.0877C1.6981 30.656 2.02064 30.2738 2.41034 29.963C2.80004 29.6522 3.24926 29.4188 3.73227 29.2762L27.5056 22.2298L76.5237 7.70532L100.297 0.658916C100.663 0.550689 101.044 0.495506 101.427 0.49516C102.249 0.496947 103.049 0.753485 103.71 1.2272C104.37 1.70091 104.857 2.36691 105.098 3.12764L115.107 34.7769L115.266 35.2731H115.799L115.643 34.7769Z" fill="#3F3D56"/>
<path d="M31.9457 31.714C31.4517 31.7136 30.9708 31.5601 30.5736 31.2758C30.1763 30.9915 29.8837 30.5914 29.7385 30.1343L26.4371 19.6958C26.3483 19.4154 26.3176 19.1208 26.3465 18.8289C26.3754 18.537 26.4634 18.2534 26.6055 17.9945C26.7477 17.7355 26.9411 17.5061 27.1748 17.3195C27.4085 17.1329 27.6779 16.9927 27.9676 16.9069L73.0637 3.54264C73.6487 3.36983 74.2806 3.42877 74.8208 3.7065C75.361 3.98424 75.7652 4.45809 75.9449 5.02404L79.2463 15.4627C79.4247 16.029 79.3638 16.6407 79.0769 17.1635C78.79 17.6864 78.3005 18.0777 77.7159 18.2517L32.6197 31.616C32.4013 31.6808 32.1742 31.7139 31.9457 31.714Z" fill="#151617"/>
<path d="M49.2396 11.155C52.0708 11.155 54.3659 8.9333 54.3659 6.19272C54.3659 3.45215 52.0708 1.23047 49.2396 1.23047C46.4084 1.23047 44.1133 3.45215 44.1133 6.19272C44.1133 8.9333 46.4084 11.155 49.2396 11.155Z" fill="#151617"/>
<path d="M49.2383 9.33138C51.0311 9.33138 52.4845 7.92455 52.4845 6.18913C52.4845 4.45371 51.0311 3.04688 49.2383 3.04688C47.4455 3.04688 45.9922 4.45371 45.9922 6.18913C45.9922 7.92455 47.4455 9.33138 49.2383 9.33138Z" fill="white"/>
<path d="M154.966 144.446H68.331C67.7534 144.445 67.1996 144.223 66.7912 143.827C66.3828 143.432 66.153 142.896 66.1523 142.337V41.8511C66.153 41.292 66.3827 40.7559 66.7912 40.3606C67.1996 39.9652 67.7534 39.7428 68.331 39.7422H154.966C155.544 39.7428 156.097 39.9652 156.506 40.3606C156.914 40.756 157.144 41.292 157.145 41.8511V142.337C157.144 142.896 156.914 143.432 156.506 143.827C156.097 144.223 155.544 144.445 154.966 144.446Z" fill="#E6E6E6"/>
<path d="M115.109 34.7812H61.1543C59.9991 34.7828 58.8917 35.2277 58.0749 36.0184C57.2581 36.8091 56.7985 37.881 56.7969 38.9992V140.18L57.3095 140.028V38.9992C57.3107 38.0125 57.7162 37.0666 58.437 36.3689C59.1577 35.6712 60.1349 35.2787 61.1543 35.2775H115.268L115.109 34.7812ZM162.143 34.7812H61.1543C59.9991 34.7828 58.8917 35.2277 58.0749 36.0184C57.2581 36.8091 56.7985 37.881 56.7969 38.9992V152.635C56.7985 153.753 57.2581 154.825 58.0749 155.616C58.8917 156.406 59.9991 156.851 61.1543 156.853H162.143C163.298 156.851 164.406 156.406 165.222 155.616C166.039 154.825 166.499 153.753 166.5 152.635V38.9992C166.499 37.881 166.039 36.8091 165.222 36.0184C164.406 35.2277 163.298 34.7828 162.143 34.7812ZM165.988 152.635C165.987 153.621 165.581 154.567 164.86 155.265C164.14 155.963 163.162 156.355 162.143 156.357H61.1543C60.1349 156.355 59.1577 155.963 58.437 155.265C57.7162 154.567 57.3107 153.621 57.3095 152.635V38.9992C57.3107 38.0125 57.7162 37.0666 58.437 36.3689C59.1577 35.6712 60.1349 35.2787 61.1543 35.2775H162.143C163.162 35.2787 164.14 35.6712 164.86 36.3689C165.581 37.0666 165.987 38.0125 165.988 38.9992V152.635Z" fill="#3F3D56"/>
<path d="M135.231 45.6955H88.0686C87.457 45.6948 86.8706 45.4593 86.4381 45.0407C86.0057 44.6221 85.7624 44.0545 85.7617 43.4625V32.5455C85.7624 31.9535 86.0057 31.3859 86.4381 30.9673C86.8706 30.5486 87.457 30.3132 88.0686 30.3125H135.231C135.842 30.3132 136.429 30.5486 136.861 30.9673C137.294 31.3859 137.537 31.9535 137.538 32.5455V43.4625C137.537 44.0545 137.294 44.6221 136.861 45.0407C136.429 45.4593 135.842 45.6948 135.231 45.6955Z" fill="#151617"/>
<path d="M111.65 31.0573C114.481 31.0573 116.776 28.8356 116.776 26.0951C116.776 23.3545 114.481 21.1328 111.65 21.1328C108.819 21.1328 106.523 23.3545 106.523 26.0951C106.523 28.8356 108.819 31.0573 111.65 31.0573Z" fill="#151617"/>
<path d="M111.646 29.1192C113.37 29.1192 114.768 27.766 114.768 26.0967C114.768 24.4274 113.37 23.0742 111.646 23.0742C109.921 23.0742 108.523 24.4274 108.523 26.0967C108.523 27.766 109.921 29.1192 111.646 29.1192Z" fill="white"/>
</g>
<defs>
<clipPath id="clip0_987_21609">
<rect width="166" height="156.85" fill="white" transform="translate(0.5)"/>
</clipPath>
</defs>
</svg>
